SplineFontDB: 3.0
FontName: Mikhak-Medium
FullName: Mikhak Medium
FamilyName: Mikhak Medium
Weight: Medium
Copyright: Copyright (c) 2019, Amin Abedi (www.opentypeshop.com|aminabedi68@gmail.com),\nwith Reserved Font Name Mikhak.\n\nThis Font Software is licensed under the SIL Open Font License, Version 1.1.\nThis license is copied below, and is also available with a FAQ at:\nhttp://scripts.sil.org/OFL
Version: 2.000
ItalicAngle: 0
UnderlinePosition: -450
UnderlineWidth: 100
Ascent: 1638
Descent: 410
InvalidEm: 0
sfntRevision: 0x00020000
LayerCount: 2
Layer: 0 0 "Back" 1
Layer: 1 0 "Fore" 0
PreferredKerning: 4
XUID: [1021 89 1101065813 17353]
StyleMap: 0x0040
FSType: 0
OS2Version: 4
OS2_WeightWidthSlopeOnly: 0
OS2_UseTypoMetrics: 1
CreationTime: 1497005464
ModificationTime: 1553076171
PfmFamily: 33
TTFWeight: 500
TTFWidth: 5
LineGap: 0
VLineGap: 0
OS2TypoAscent: 512
OS2TypoAOffset: 1
OS2TypoDescent: -725
OS2TypoDOffset: 1
OS2TypoLinegap: 0
OS2WinAscent: -200
OS2WinAOffset: 1
OS2WinDescent: -50
OS2WinDOffset: 1
HheadAscent: -200
HheadAOffset: 1
HheadDescent: 50
HheadDOffset: 1
OS2SubXSize: 1277
OS2SubYSize: 1185
OS2SubXOff: 0
OS2SubYOff: 256
OS2SupXSize: 1277
OS2SupYSize: 1185
OS2SupXOff: 0
OS2SupYOff: 870
OS2StrikeYSize: 91
OS2StrikeYPos: 766
OS2CapHeight: 1400
OS2XHeight: 1012
OS2Vendor: 'AA68'
Lookup: 4 1 0 "'ccmp' Glyph Composition/Decomposition in Arabic lookup 0" { "'ccmp' Glyph Composition/Decomposition in Arabic lookup 0 subtable 0"  } ['ccmp' ('arab' <'FAR ' 'dflt' > ) ]
Lookup: 1 9 0 "Single Substitution 1" { "Single Substitution 1 subtable"  } []
Lookup: 2 9 0 "Multiple Substitution 2" { "Multiple Substitution 2 subtable"  } []
Lookup: 2 9 0 "Multiple Substitution 3" { "Multiple Substitution 3 subtable"  } []
Lookup: 1 9 0 "'fina' Terminal Forms in Arabic lookup 4" { "'fina' Terminal Forms in Arabic lookup 4 subtable"  } ['fina' ('arab' <'FAR ' 'dflt' > ) ]

StartChar: a
Encoding: 97 97 0
Width: 1269
VWidth: 2426
Flags: HMW
LayerCount: 2
Fore
SplineSet
924 978 m 1
 929 1033 959 1073 1013 1073 c 0
 1063 1073 1100 1032 1100 986 c 0
 1100 982 1101 978 1100 974 c 2
 1036 507 l 2
 1035 498 1033 490 1032 481 c 2
 1028 452 l 2
 1021 398 1016 349 1016 293 c 0
 1016 168 1032 132 1109 132 c 0
 1157 132 1197 93 1197 45 c 0
 1197 -3 1157 -42 1109 -42 c 0
 998 -42 916 14 877 94 c 1
 796 -5 676 -72 521 -72 c 0
 222 -72 72 173 72 419 c 0
 72 705 273 1088 650 1088 c 0
 760 1088 843 1049 893 1015 c 0
 906 1006 917 992 924 978 c 1
911 886 m 1
 894 866 868 855 843 855 c 0
 826 855 809 859 795 869 c 0
 765 889 716 914 650 914 c 0
 413 914 248 649 248 419 c 0
 248 235 342 102 521 102 c 0
 675 102 761 194 816 340 c 0
 835 392 850 449 859 507 c 2
 911 886 l 1
EndSplineSet
Colour: ffff
EndChar

StartChar: c
Encoding: 99 99 1
Width: 1031
VWidth: 2426
Flags: HMW
LayerCount: 2
Fore
SplineSet
942 907 m 0
 942 858 901 820 855 820 c 0
 835 820 814 827 798 841 c 0
 744 888 685 914 611 914 c 0
 408 914 248 648 248 411 c 0
 248 241 316 102 528 102 c 0
 651 102 739 136 826 188 c 0
 840 196 855 200 870 200 c 0
 914 200 958 165 958 114 c 0
 958 84 943 54 916 38 c 0
 810 -26 685 -72 528 -72 c 0
 194 -72 72 189 72 411 c 0
 72 690 254 1088 611 1088 c 0
 731 1088 832 1042 912 973 c 0
 932 956 942 932 942 907 c 0
EndSplineSet
Colour: ffff
EndChar

StartChar: e
Encoding: 101 101 2
Width: 1141
VWidth: 2426
Flags: HMW
LayerCount: 2
Fore
SplineSet
316 496 m 1
 463 525 605 579 733 655 c 0
 807 699 862 750 862 805 c 0
 862 861 806 914 713 914 c 0
 507 914 341 724 316 496 c 1
981 238 m 0
 1028 238 1068 199 1068 151 c 0
 1068 127 1059 103 1040 86 c 0
 928 -15 781 -72 630 -72 c 0
 396 -72 218 98 159 299 c 1
 113 300 73 338 73 387 c 0
 73 426 100 462 138 472 c 1
 152 778 376 1088 713 1088 c 0
 862 1088 1036 993 1036 805 c 0
 1036 638 897 549 823 505 c 0
 673 416 507 354 336 322 c 1
 384 195 497 102 630 102 c 0
 737 102 842 143 922 216 c 0
 938 231 960 238 981 238 c 0
EndSplineSet
Colour: ffff
EndChar

StartChar: f
Encoding: 102 102 3
Width: 773
VWidth: 2426
Flags: HMW
LayerCount: 2
Fore
SplineSet
160 743 m 0
 114 743 73 780 73 830 c 0
 73 875 108 914 153 917 c 0
 188 920 220 921 252 921 c 1
 258 1068 266 1206 276 1317 c 0
 288 1460 331 1669 494 1695 c 0
 502 1696 511 1696 519 1696 c 0
 584 1696 636 1658 677 1612 c 0
 692 1596 699 1575 699 1554 c 0
 699 1507 660 1467 612 1467 c 0
 588 1467 564 1477 547 1496 c 0
 535 1509 525 1517 520 1520 c 1
 498 1500 459 1410 450 1301 c 0
 440 1195 433 1062 427 919 c 1
 492 916 557 911 623 903 c 0
 667 898 701 859 701 816 c 0
 701 765 659 729 613 729 c 2
 603 729 l 1
 541 736 481 741 421 744 c 1
 413 478 411 199 411 2 c 0
 411 0 411 -2 411 -4 c 0
 411 -52 371 -91 323 -91 c 0
 272 -91 236 -50 236 2 c 0
 236 200 238 478 246 745 c 1
 217 744 189 743 160 743 c 0
EndSplineSet
Colour: ffff
EndChar

StartChar: g
Encoding: 103 103 4
Width: 1177
VWidth: 2426
Flags: HMW
LayerCount: 2
Fore
SplineSet
861 953 m 0
 861 902 817 867 773 867 c 0
 758 867 743 871 729 879 c 0
 696 899 638 914 593 914 c 0
 403 914 256 667 256 420 c 0
 256 185 370 102 516 102 c 0
 820 102 886 531 886 971 c 0
 886 1019 927 1058 974 1058 c 0
 1025 1058 1059 1015 1061 975 c 0
 1063 925 1064 842 1064 764 c 0
 1064 730 1065 693 1065 656 c 0
 1065 179 1046 -502 521 -502 c 0
 313 -502 159 -390 85 -265 c 0
 77 -251 73 -237 73 -222 c 0
 73 -178 107 -134 159 -134 c 0
 189 -134 219 -150 235 -177 c 0
 279 -252 379 -328 521 -328 c 0
 706 -328 799 -189 849 72 c 1
 769 -16 655 -72 516 -72 c 0
 270 -72 82 109 82 420 c 0
 82 701 245 1088 593 1088 c 0
 668 1088 750 1071 819 1029 c 0
 846 1013 861 983 861 953 c 0
EndSplineSet
Colour: ffff
EndChar

StartChar: o
Encoding: 111 111 5
Width: 1109
VWidth: 2426
Flags: HMW
LayerCount: 2
Fore
SplineSet
567 1088 m 0
 880 1088 1036 794 1036 538 c 0
 1036 256 861 -72 540 -72 c 0
 243 -72 72 210 72 486 c 0
 72 768 230 1088 567 1088 c 0
567 914 m 0
 370 914 248 724 248 486 c 0
 248 266 377 102 540 102 c 0
 719 102 862 304 862 538 c 0
 862 742 744 914 567 914 c 0
EndSplineSet
Colour: ffff
EndChar

StartChar: s
Encoding: 115 115 6
Width: 980
VWidth: 2426
Flags: HMW
LayerCount: 2
Fore
SplineSet
895 815 m 0
 895 771 860 728 808 728 c 0
 768 728 732 756 723 796 c 0
 708 867 633 914 521 914 c 0
 405 914 303 829 295 756 c 1
 297 654 397 615 547 577 c 0
 673 546 908 476 908 239 c 0
 908 20 668 -72 488 -72 c 0
 331 -72 161 -18 87 93 c 0
 77 108 73 123 73 140 c 0
 73 185 109 228 160 228 c 0
 189 228 216 214 233 189 c 0
 251 162 365 102 488 102 c 0
 642 102 732 182 732 239 c 0
 732 326 645 372 505 407 c 0
 379 439 120 501 120 760 c 2
 120 767 l 1
 136 965 339 1090 521 1090 c 0
 673 1090 852 1019 893 834 c 0
 894 828 895 821 895 815 c 0
EndSplineSet
Colour: ffff
EndChar

StartChar: t
Encoding: 116 116 7
Width: 775
VWidth: 2426
Flags: HMW
LayerCount: 2
Fore
SplineSet
402 1303 m 0
 453 1303 489 1262 489 1216 c 2
 489 1206 l 1
 478 1110 468 1014 459 919 c 1
 516 917 572 914 626 907 c 0
 670 902 702 863 702 820 c 0
 702 769 660 733 615 733 c 2
 604 733 l 1
 553 739 500 744 445 745 c 1
 436 616 430 486 430 355 c 0
 430 185 445 102 538 102 c 0
 558 102 588 109 612 109 c 0
 657 109 700 74 700 22 c 0
 700 -19 670 -56 628 -64 c 0
 596 -70 565 -72 538 -72 c 0
 255 -72 256 229 256 355 c 0
 256 486 260 614 269 742 c 1
 236 740 203 737 171 733 c 1
 160 733 l 2
 114 733 73 769 73 820 c 0
 73 863 106 902 150 907 c 0
 194 912 238 916 283 918 c 1
 292 1021 303 1124 315 1226 c 0
 320 1270 359 1303 402 1303 c 0
EndSplineSet
Colour: ffff
EndChar

StartChar: v
Encoding: 118 118 8
Width: 1084
VWidth: 2426
Flags: HMW
LayerCount: 2
Fore
SplineSet
73 970 m 0
 73 1014 107 1058 159 1058 c 0
 192 1058 224 1039 239 1008 c 0
 339 796 457 538 535 275 c 1
 658 499 767 742 840 995 c 0
 851 1033 887 1058 925 1058 c 0
 978 1058 1012 1014 1012 970 c 0
 1012 962 1010 955 1008 947 c 0
 908 603 747 276 576 -1 c 0
 562 -24 538 -42 503 -42 c 0
 462 -42 424 -14 416 28 c 0
 356 334 206 667 81 934 c 0
 75 946 73 958 73 970 c 0
EndSplineSet
Colour: ffff
EndChar

StartChar: w
Encoding: 119 119 9
Width: 1501
VWidth: 2426
Flags: HMW
LayerCount: 2
Fore
SplineSet
303 1041 m 0
 355 1041 389 997 389 953 c 0
 389 939 385 924 378 911 c 0
 330 826 248 568 248 374 c 0
 248 199 301 102 406 102 c 0
 549 102 692 467 692 681 c 0
 692 729 732 768 779 768 c 0
 829 768 865 726 866 682 c 0
 871 390 909 102 1038 102 c 0
 1173 102 1254 264 1254 513 c 0
 1254 662 1218 821 1173 912 c 0
 1167 924 1164 937 1164 950 c 0
 1164 994 1198 1038 1250 1038 c 0
 1282 1038 1314 1020 1329 990 c 0
 1391 865 1428 688 1428 513 c 0
 1428 268 1349 -72 1038 -72 c 0
 870 -72 784 63 745 191 c 1
 679 62 572 -72 406 -72 c 0
 141 -72 72 189 72 374 c 0
 72 610 158 876 226 997 c 0
 242 1025 272 1041 303 1041 c 0
EndSplineSet
Colour: ffff
EndChar

StartChar: x
Encoding: 120 120 10
Width: 1137
VWidth: 2426
Flags: HMW
LayerCount: 2
Fore
SplineSet
148 956 m 0
 148 1000 182 1044 234 1044 c 0
 266 1044 298 1027 313 996 c 0
 373 875 458 745 553 618 c 1
 887 1026 l 2
 904 1047 929 1058 955 1058 c 0
 1004 1058 1042 1017 1042 971 c 0
 1042 951 1036 932 1023 916 c 2
 663 477 l 1
 787 325 920 181 1039 62 c 0
 1056 45 1064 23 1064 -0 c 0
 1064 -47 1025 -87 977 -87 c 0
 954 -87 932 -79 915 -62 c 0
 800 53 672 191 550 338 c 1
 228 -55 l 2
 211 -76 186 -87 160 -87 c 0
 111 -87 73 -46 73 0 c 0
 73 20 79 39 92 55 c 2
 438 478 l 1
 328 622 229 772 157 918 c 0
 151 930 148 943 148 956 c 0
EndSplineSet
Colour: ffff
EndChar

StartChar: y
Encoding: 121 121 11
Width: 1133
VWidth: 2426
Flags: HMW
LayerCount: 2
Fore
SplineSet
226 1058 m 0
 277 1058 313 1017 313 971 c 2
 313 961 l 1
 299 838 292 712 292 589 c 0
 292 296 333 102 531 102 c 0
 667 102 751 225 799 456 c 0
 832 616 839 786 846 960 c 0
 848 1005 885 1044 933 1044 c 0
 981 1044 1020 1005 1020 957 c 0
 1020 852 1013 741 1012 634 c 0
 1011 569 1011 502 1009 435 c 0
 997 27 947 -502 469 -502 c 0
 266 -502 142 -409 82 -288 c 0
 76 -276 73 -263 73 -250 c 0
 73 -206 107 -162 159 -162 c 0
 191 -162 224 -179 239 -210 c 0
 271 -275 322 -328 469 -328 c 0
 662 -328 750 -200 797 40 c 1
 730 -28 639 -72 531 -72 c 0
 147 -72 118 330 118 589 c 0
 118 718 125 852 139 981 c 0
 144 1025 182 1058 226 1058 c 0
EndSplineSet
Colour: ffff
EndChar

StartChar: z
Encoding: 122 122 12
Width: 1054
VWidth: 2426
Flags: HMW
LayerCount: 2
Fore
SplineSet
160 795 m 0
 115 795 73 830 73 882 c 0
 73 924 104 961 146 968 c 0
 234 983 378 1002 538 1002 c 2
 567 1002 l 2
 687 1002 853 997 901 864 c 0
 907 848 910 830 910 813 c 0
 910 764 887 707 837 662 c 0
 618 461 466 290 292 77 c 1
 424 95 690 116 894 116 c 0
 941 116 982 77 982 29 c 0
 982 -18 943 -57 896 -58 c 0
 690 -62 406 -82 298 -99 c 0
 279 -103 261 -104 246 -104 c 0
 203 -104 156 -93 121 -57 c 0
 96 -31 84 5 84 37 c 0
 84 82 101 119 127 152 c 0
 317 386 479 572 719 792 c 0
 725 797 727 799 730 803 c 1
 700 816 624 826 538 826 c 0
 392 826 254 809 174 796 c 0
 169 795 165 795 160 795 c 0
EndSplineSet
Colour: ffff
EndChar

StartChar: A
Encoding: 65 65 13
Width: 1416
VWidth: 1823
Flags: HMW
LayerCount: 2
Fore
SplineSet
159 -55 m 0
 106 -55 73 -11 73 33 c 0
 73 45 75 57 80 68 c 2
 263 475 l 1
 255 488 251 504 251 520 c 0
 251 564 283 599 322 606 c 1
 658 1352 l 2
 673 1384 706 1403 739 1403 c 0
 779 1403 808 1376 819 1348 c 2
 1147 516 l 1
 1165 500 1175 477 1175 452 c 2
 1175 444 l 1
 1337 32 l 2
 1341 22 1343 11 1343 1 c 0
 1343 -43 1310 -87 1257 -87 c 0
 1222 -87 1188 -66 1175 -32 c 2
 1016 371 l 1
 432 424 l 1
 240 -4 l 2
 226 -36 193 -55 159 -55 c 0
508 592 m 1
 944 553 l 1
 733 1091 l 1
 508 592 l 1
EndSplineSet
Colour: ffff
EndChar

StartChar: B
Encoding: 66 66 14
Width: 1138
VWidth: 2426
Flags: HMW
LayerCount: 2
Fore
SplineSet
831 770 m 1
 980 700 1066 558 1066 376 c 0
 1066 36 757 -72 501 -72 c 0
 389 -72 276 -55 177 -24 c 0
 140 -12 116 24 116 60 c 0
 116 62 116 64 116 66 c 0
 131 262 138 517 138 706 c 0
 138 936 128 1091 113 1273 c 1
 113 1280 l 2
 113 1316 136 1349 168 1362 c 0
 280 1406 409 1434 533 1434 c 0
 760 1434 984 1295 984 1028 c 0
 984 909 914 823 831 770 c 1
312 818 m 1
 386 822 464 830 546 848 c 0
 718 885 810 948 810 1028 c 0
 810 1173 698 1258 533 1258 c 0
 457 1258 373 1245 293 1220 c 1
 303 1093 310 971 312 818 c 1
890 376 m 0
 890 567 776 652 536 652 c 0
 490 652 382 646 312 642 c 1
 311 482 305 293 295 125 c 1
 358 111 432 102 501 102 c 0
 731 102 890 182 890 376 c 0
EndSplineSet
Colour: ffff
EndChar

StartChar: C
Encoding: 67 67 15
Width: 1271
VWidth: 2426
Flags: HMW
LayerCount: 2
Fore
SplineSet
1163 1291 m 0
 1163 1238 1119 1205 1075 1205 c 0
 1063 1205 1051 1207 1040 1212 c 0
 969 1244 893 1258 814 1258 c 0
 487 1258 248 995 248 662 c 0
 248 338 481 102 810 102 c 0
 900 102 990 124 1070 166 c 0
 1083 173 1096 176 1110 176 c 0
 1154 176 1198 142 1198 90 c 0
 1198 58 1181 28 1152 12 c 0
 1046 -44 928 -72 810 -72 c 0
 387 -72 72 244 72 662 c 0
 72 1081 383 1434 814 1434 c 0
 915 1434 1017 1414 1112 1372 c 0
 1144 1358 1163 1325 1163 1291 c 0
EndSplineSet
Colour: ffff
EndChar

StartChar: D
Encoding: 68 68 16
Width: 1279
VWidth: 2426
Flags: HMW
LayerCount: 2
Fore
SplineSet
197 1410 m 0
 265 1426 337 1434 406 1434 c 0
 866 1434 1206 1185 1206 701 c 0
 1206 271 883 -72 452 -72 c 0
 355 -72 258 -55 168 -20 c 0
 133 -6 113 30 113 63 c 2
 113 73 l 1
 141 294 158 567 158 811 c 0
 158 1007 150 1124 130 1316 c 1
 130 1324 l 2
 130 1366 162 1402 197 1410 c 0
312 1253 m 1
 326 1101 332 982 332 811 c 0
 332 585 319 339 295 123 c 1
 346 110 399 102 452 102 c 0
 783 102 1032 361 1032 701 c 0
 1032 1077 800 1258 406 1258 c 0
 375 1258 344 1257 312 1253 c 1
EndSplineSet
Colour: ffff
EndChar

StartChar: E
Encoding: 69 69 17
Width: 1098
VWidth: 2426
Flags: HMW
LayerCount: 2
Fore
SplineSet
937 1446 m 0
 981 1446 1025 1412 1025 1360 c 0
 1025 1320 998 1283 958 1274 c 0
 813 1240 635 1228 472 1228 c 0
 420 1228 368 1230 317 1232 c 1
 326 1144 330 1067 330 960 c 0
 330 919 329 878 328 837 c 1
 384 840 441 842 500 842 c 0
 625 842 747 834 869 820 c 0
 913 815 947 776 947 733 c 0
 947 682 905 646 859 646 c 2
 849 646 l 1
 734 660 619 666 500 666 c 0
 437 666 378 665 320 662 c 1
 313 549 302 438 288 335 c 0
 286 319 284 309 284 295 c 0
 284 150 440 132 768 132 c 0
 822 132 872 133 922 133 c 0
 969 133 1010 94 1010 46 c 0
 1010 -1 971 -40 924 -41 c 0
 873 -42 822 -43 770 -43 c 1
 768 -42 l 1
 749 -42 729 -43 709 -43 c 0
 452 -43 110 -31 110 295 c 0
 110 315 110 336 114 361 c 0
 127 451 137 548 144 649 c 1
 105 657 73 690 73 735 c 0
 73 778 106 817 150 822 c 1
 152 822 l 1
 153 868 154 914 154 960 c 0
 154 1102 148 1181 131 1314 c 1
 131 1321 l 2
 131 1357 162 1413 218 1413 c 0
 220 1413 221 1412 223 1412 c 0
 306 1407 390 1404 472 1404 c 0
 625 1404 795 1416 918 1444 c 0
 924 1445 931 1446 937 1446 c 0
EndSplineSet
Colour: ffff
EndChar

StartChar: F
Encoding: 70 70 18
Width: 1092
VWidth: 2426
Flags: HMW
LayerCount: 2
Fore
SplineSet
931 1425 m 0
 975 1425 1019 1391 1019 1339 c 0
 1019 1299 992 1262 952 1253 c 0
 807 1219 628 1208 466 1208 c 0
 414 1208 362 1210 311 1212 c 1
 324 1081 330 957 333 824 c 1
 385 827 437 828 489 828 c 0
 611 828 733 820 853 806 c 0
 897 801 931 762 931 719 c 0
 931 668 889 632 843 632 c 2
 833 632 l 1
 719 646 603 654 489 654 c 0
 438 654 386 652 335 649 c 1
 335 627 336 605 336 583 c 0
 336 375 324 172 304 -10 c 0
 299 -54 261 -87 217 -87 c 0
 166 -87 130 -46 130 0 c 2
 130 10 l 1
 149 184 160 381 160 583 c 0
 160 600 160 617 160 634 c 1
 114 634 73 670 73 721 c 0
 73 764 106 803 150 808 c 0
 153 808 155 809 158 809 c 1
 154 977 146 1128 126 1294 c 0
 126 1296 126 1298 126 1300 c 0
 126 1336 156 1392 213 1392 c 0
 215 1392 216 1391 218 1391 c 0
 300 1386 383 1384 466 1384 c 0
 620 1384 789 1395 912 1423 c 0
 918 1424 925 1425 931 1425 c 0
EndSplineSet
Colour: ffff
EndChar

StartChar: G
Encoding: 71 71 19
Width: 1349
VWidth: 2426
Flags: HMW
LayerCount: 2
Fore
SplineSet
561 649 m 0
 561 701 603 736 648 736 c 0
 653 736 658 736 663 735 c 0
 714 726 904 722 990 722 c 0
 1056 722 1123 727 1169 735 c 0
 1174 736 1178 736 1183 736 c 0
 1231 736 1268 694 1271 655 c 0
 1274 613 1276 572 1276 532 c 0
 1276 208 1133 -72 716 -72 c 0
 350 -72 72 258 72 639 c 2
 72 645 l 1
 76 1041 288 1434 763 1434 c 0
 880 1434 995 1396 1089 1326 c 0
 1112 1309 1124 1283 1124 1256 c 0
 1124 1206 1082 1169 1037 1169 c 0
 1019 1169 1000 1175 985 1186 c 0
 923 1232 842 1258 763 1258 c 0
 415 1258 252 990 248 645 c 1
 248 639 l 2
 248 336 464 102 716 102 c 0
 1021 102 1102 258 1102 532 c 0
 1102 538 1101 544 1101 551 c 1
 1067 549 1027 548 990 548 c 0
 898 548 718 548 633 563 c 0
 591 570 561 608 561 649 c 0
EndSplineSet
Colour: ffff
EndChar

StartChar: H
Encoding: 72 72 20
Width: 1319
VWidth: 2426
Flags: HMW
LayerCount: 2
Fore
SplineSet
272 1403 m 0
 320 1403 359 1363 359 1316 c 0
 359 1132 356 946 349 762 c 1
 527 760 751 755 944 748 c 1
 920 1312 l 2
 918 1360 957 1403 1007 1403 c 0
 1053 1403 1092 1366 1094 1320 c 2
 1120 742 l 2
 1121 742 1122 741 1123 741 c 0
 1169 739 1206 700 1206 654 c 0
 1206 608 1171 571 1128 567 c 1
 1153 -17 l 2
 1155 -65 1116 -108 1066 -108 c 0
 1020 -108 981 -71 979 -25 c 2
 952 573 l 1
 756 580 522 586 341 588 c 1
 330 387 315 186 295 -9 c 0
 291 -54 252 -87 208 -87 c 0
 158 -87 121 -46 121 0 c 0
 121 3 121 6 121 9 c 0
 140 201 154 397 164 596 c 1
 134 610 113 641 113 676 c 0
 113 714 138 747 172 759 c 1
 179 944 183 1131 185 1317 c 0
 185 1364 225 1403 272 1403 c 0
EndSplineSet
Colour: ffff
EndChar

StartChar: I
Encoding: 73 73 21
Width: 435
VWidth: 2426
Flags: HMW
LayerCount: 2
Fore
SplineSet
200 -87 m 0
 151 -87 112 -46 113 2 c 2
 148 1363 l 2
 149 1410 188 1448 235 1448 c 0
 284 1448 323 1407 322 1359 c 2
 287 -2 l 2
 286 -49 247 -87 200 -87 c 0
EndSplineSet
Colour: ffff
EndChar

StartChar: J
Encoding: 74 74 22
Width: 680
VWidth: 2426
Flags: HMW
LayerCount: 2
Fore
SplineSet
160 105 m 0
 184 105 209 102 233 102 c 0
 360 102 388 144 388 300 c 0
 388 637 379 922 342 1230 c 1
 173 1230 l 2
 125 1230 86 1269 86 1317 c 0
 86 1365 125 1404 173 1404 c 2
 520 1404 l 2
 568 1404 607 1364 607 1317 c 0
 607 1265 565 1229 518 1229 c 1
 554 921 562 633 562 300 c 0
 562 100 474 -72 233 -72 c 0
 207 -72 180 -71 153 -69 c 0
 108 -65 73 -27 73 18 c 0
 73 68 114 105 160 105 c 0
EndSplineSet
Colour: ffff
EndChar

StartChar: K
Encoding: 75 75 23
Width: 1217
VWidth: 2426
Flags: HMW
LayerCount: 2
Fore
SplineSet
986 1448 m 0
 1036 1448 1073 1406 1073 1361 c 0
 1073 1343 1067 1324 1056 1309 c 0
 864 1050 594 851 338 697 c 1
 546 467 843 243 1105 74 c 0
 1131 57 1144 28 1144 -1 c 0
 1144 -52 1102 -87 1057 -87 c 0
 1041 -87 1024 -83 1010 -74 c 0
 775 77 512 272 300 483 c 1
 287 -2 l 2
 286 -49 247 -87 200 -87 c 0
 151 -87 112 -46 113 2 c 2
 130 672 l 1
 122 685 117 703 117 720 c 0
 117 738 122 756 132 771 c 1
 148 1362 l 2
 149 1409 188 1447 235 1447 c 0
 284 1447 323 1406 322 1358 c 2
 310 886 l 1
 536 1028 760 1202 916 1413 c 0
 933 1436 959 1448 986 1448 c 0
EndSplineSet
Colour: ffff
EndChar

StartChar: L
Encoding: 76 76 24
Width: 1166
VWidth: 2426
Flags: HMW
LayerCount: 2
Fore
SplineSet
131 1316 m 0
 131 1362 168 1403 218 1403 c 0
 263 1403 302 1368 305 1322 c 0
 316 1153 322 990 322 830 c 0
 322 594 310 362 294 130 c 1
 1008 109 l 2
 1055 108 1093 69 1093 22 c 0
 1093 -27 1053 -65 1006 -65 c 2
 1004 -65 l 1
 198 -42 l 2
 155 -41 113 -3 113 45 c 2
 113 52 l 1
 133 315 146 569 146 830 c 0
 146 986 142 1145 131 1310 c 0
 131 1312 131 1314 131 1316 c 0
EndSplineSet
Colour: ffff
EndChar

StartChar: M
Encoding: 77 77 25
Width: 1599
VWidth: 2426
Flags: HMW
LayerCount: 2
Fore
SplineSet
190 -87 m 0
 140 -87 103 -46 103 0 c 0
 103 3 103 6 103 9 c 2
 240 1309 l 2
 245 1354 283 1387 327 1387 c 0
 372 1387 403 1351 411 1323 c 0
 473 1098 613 795 714 621 c 0
 746 566 773 531 787 520 c 1
 800 530 824 558 852 606 c 0
 967 800 1108 1155 1144 1333 c 0
 1152 1374 1191 1403 1231 1403 c 0
 1285 1403 1316 1353 1317 1319 c 0
 1335 809 1391 474 1494 32 c 0
 1496 26 1497 19 1497 13 c 0
 1497 -31 1462 -75 1410 -75 c 0
 1370 -75 1333 -48 1324 -8 c 0
 1252 299 1202 559 1172 863 c 1
 1120 739 1059 612 1002 516 c 0
 950 427 890 342 787 342 c 0
 674 342 614 443 562 533 c 0
 503 635 436 769 374 913 c 1
 277 -9 l 2
 272 -53 234 -87 190 -87 c 0
EndSplineSet
Colour: ffff
EndChar

StartChar: N
Encoding: 78 78 26
Width: 1307
VWidth: 2426
Flags: HMW
LayerCount: 2
Fore
SplineSet
200 -87 m 0
 151 -87 113 -47 113 0 c 0
 113 446 152 865 158 1317 c 0
 159 1365 198 1403 245 1403 c 0
 275 1403 302 1386 315 1369 c 0
 568 1037 800 681 1008 327 c 1
 1020 1362 l 2
 1021 1409 1060 1448 1107 1448 c 0
 1155 1448 1195 1408 1194 1360 c 2
 1179 3 l 2
 1179 -40 1143 -83 1093 -83 c 0
 1062 -83 1032 -67 1016 -38 c 0
 812 330 582 703 328 1057 c 1
 320 700 305 356 287 -4 c 0
 285 -50 246 -87 200 -87 c 0
EndSplineSet
Colour: ffff
EndChar

StartChar: O
Encoding: 79 79 27
Width: 1485
VWidth: 2426
Flags: HMW
LayerCount: 2
Fore
SplineSet
713 -72 m 0
 342 -72 72 218 72 613 c 0
 72 1034 367 1434 799 1434 c 0
 1193 1434 1412 1053 1412 684 c 0
 1412 255 1115 -72 713 -72 c 0
713 102 m 0
 1009 102 1238 337 1238 684 c 0
 1238 1003 1057 1258 799 1258 c 0
 489 1258 248 964 248 613 c 0
 248 300 444 102 713 102 c 0
EndSplineSet
Colour: ffff
EndChar

StartChar: P
Encoding: 80 80 28
Width: 1269
VWidth: 2426
Flags: HMW
LayerCount: 2
Fore
SplineSet
160 1080 m 0
 111 1080 73 1121 73 1167 c 0
 73 1188 80 1209 94 1225 c 0
 213 1360 442 1434 636 1434 c 0
 955 1434 1196 1176 1196 862 c 0
 1196 523 855 322 560 322 c 0
 512 322 440 325 370 335 c 1
 345 -6 l 2
 342 -51 303 -87 258 -87 c 0
 208 -87 171 -46 171 0 c 0
 171 2 171 4 171 6 c 2
 200 407 l 1
 194 419 190 434 190 448 c 0
 190 468 196 484 206 498 c 1
 252 1134 l 1
 242 1126 233 1117 226 1109 c 0
 209 1090 184 1080 160 1080 c 0
434 1225 m 1
 383 512 l 1
 443 503 520 496 560 496 c 0
 797 496 1022 659 1022 862 c 0
 1022 1086 855 1258 636 1258 c 0
 571 1258 500 1246 434 1225 c 1
EndSplineSet
Colour: ffff
EndChar

StartChar: Q
Encoding: 81 81 29
Width: 1485
VWidth: 1823
Flags: HMW
LayerCount: 2
Fore
SplineSet
796 439 m 0
 796 484 833 526 883 526 c 0
 910 526 937 513 954 490 c 0
 1085 309 1200 177 1366 31 c 0
 1385 14 1395 -11 1395 -35 c 0
 1395 -84 1354 -122 1308 -122 c 0
 1287 -122 1266 -115 1250 -101 c 0
 1074 53 947 201 812 388 c 0
 801 403 796 421 796 439 c 0
EndSplineSet
Refer: 27 79 N 1 0 0 1 0 0 2
Colour: ffff
EndChar

StartChar: R
Encoding: 82 82 30
Width: 1270
VWidth: 1823
Flags: HMW
LayerCount: 2
Fore
SplineSet
160 1080 m 0
 111 1080 73 1121 73 1167 c 0
 73 1188 80 1209 94 1225 c 0
 211 1358 427 1434 622 1434 c 0
 944 1434 1164 1172 1164 862 c 0
 1164 598 956 391 703 335 c 1
 1154 76 l 2
 1182 60 1197 29 1197 -1 c 0
 1197 -53 1153 -87 1109 -87 c 0
 1094 -87 1079 -84 1066 -76 c 2
 388 314 l 1
 369 -5 l 2
 366 -51 328 -87 282 -87 c 0
 233 -87 195 -47 195 -0 c 2
 195 5 l 1
 218 413 l 1
 196 429 183 456 183 484 c 0
 183 518 201 544 226 558 c 1
 259 1141 l 1
 246 1131 235 1120 226 1109 c 0
 209 1090 184 1080 160 1080 c 0
440 1230 m 1
 399 521 l 1
 453 503 508 494 560 494 c 0
 801 494 990 668 990 862 c 0
 990 1090 838 1258 622 1258 c 0
 562 1258 499 1248 440 1230 c 1
EndSplineSet
Colour: ffff
EndChar

StartChar: S
Encoding: 83 83 31
Width: 1182
VWidth: 2426
Flags: HMW
LayerCount: 2
Fore
SplineSet
1048 1259 m 0
 1048 1207 1004 1173 960 1173 c 0
 946 1173 931 1177 918 1184 c 0
 830 1233 726 1258 619 1258 c 0
 407 1258 252 1144 252 996 c 0
 252 872 380 819 607 750 c 0
 804 690 1110 614 1110 343 c 0
 1110 50 821 -72 578 -72 c 0
 409 -72 238 -35 118 31 c 0
 89 47 73 78 73 109 c 0
 73 161 117 195 161 195 c 0
 175 195 190 192 203 185 c 0
 285 139 435 102 578 102 c 0
 789 102 934 198 934 343 c 0
 934 446 796 510 557 582 c 0
 365 640 78 716 78 996 c 0
 78 1286 361 1434 619 1434 c 0
 754 1434 888 1401 1004 1336 c 0
 1032 1320 1048 1290 1048 1259 c 0
EndSplineSet
Colour: ffff
EndChar

StartChar: T
Encoding: 84 84 32
Width: 1423
VWidth: 2426
Flags: HMW
LayerCount: 2
Fore
SplineSet
1350 1297 m 0
 1350 1249 1310 1210 1263 1210 c 2
 1261 1210 l 1
 803 1217 l 1
 800 995 786 777 786 551 c 0
 786 368 795 186 795 3 c 0
 795 -44 757 -84 708 -84 c 0
 662 -84 623 -47 621 0 c 0
 615 184 610 367 610 551 c 0
 610 778 615 998 625 1220 c 1
 158 1229 l 2
 111 1230 73 1269 73 1316 c 0
 73 1364 113 1403 160 1403 c 2
 162 1403 l 1
 1265 1384 l 2
 1312 1383 1350 1344 1350 1297 c 0
EndSplineSet
Colour: ffff
EndChar

StartChar: U
Encoding: 85 85 33
Width: 1310
VWidth: 2426
Flags: HMW
LayerCount: 2
Fore
SplineSet
274 1421 m 0
 326 1421 361 1378 361 1334 c 0
 361 1328 360 1321 359 1315 c 0
 318 1125 288 942 288 734 c 0
 288 361 360 102 631 102 c 0
 970 102 1022 634 1022 1095 c 0
 1022 1183 1015 1273 1015 1361 c 0
 1015 1408 1053 1448 1102 1448 c 0
 1148 1448 1188 1411 1190 1365 c 0
 1194 1278 1198 1187 1198 1095 c 0
 1198 702 1190 -72 631 -72 c 0
 184 -72 112 379 112 734 c 0
 112 960 146 1157 189 1353 c 0
 198 1394 234 1421 274 1421 c 0
EndSplineSet
Colour: ffff
EndChar

StartChar: V
Encoding: 86 86 34
Width: 1368
VWidth: 2426
Flags: HMW
LayerCount: 2
Fore
SplineSet
73 1315 m 0
 73 1359 106 1403 159 1403 c 0
 195 1403 231 1381 243 1345 c 2
 613 275 l 1
 1129 1354 l 2
 1144 1385 1176 1403 1209 1403 c 0
 1261 1403 1295 1359 1295 1315 c 0
 1295 1302 1293 1290 1287 1278 c 2
 679 7 l 2
 667 -17 639 -42 601 -42 c 0
 565 -42 529 -20 517 16 c 2
 77 1287 l 2
 74 1296 73 1306 73 1315 c 0
EndSplineSet
Colour: ffff
EndChar

StartChar: W
Encoding: 87 87 35
Width: 2006
VWidth: 2426
Flags: HMW
LayerCount: 2
Fore
SplineSet
73 1348 m 0
 73 1392 106 1436 159 1436 c 0
 197 1436 233 1411 244 1374 c 2
 567 303 l 1
 949 1213 l 2
 963 1246 997 1266 1031 1266 c 0
 1072 1266 1103 1237 1113 1207 c 2
 1415 317 l 1
 1763 1344 l 2
 1775 1380 1810 1403 1847 1403 c 0
 1900 1403 1933 1359 1933 1315 c 0
 1933 1306 1932 1297 1929 1288 c 2
 1498 17 l 2
 1488 -13 1458 -42 1416 -42 c 0
 1380 -42 1344 -19 1332 17 c 2
 1021 933 l 1
 634 11 l 2
 623 -15 594 -42 554 -42 c 0
 517 -42 480 -18 469 20 c 2
 76 1324 l 2
 74 1332 73 1340 73 1348 c 0
EndSplineSet
Colour: ffff
EndChar

StartChar: X
Encoding: 88 88 36
Width: 1267
VWidth: 2426
Flags: HMW
LayerCount: 2
Fore
SplineSet
116 1277 m 0
 116 1322 153 1364 203 1364 c 0
 231 1364 257 1351 274 1327 c 2
 622 835 l 1
 998 1387 l 2
 1015 1412 1043 1425 1071 1425 c 0
 1122 1425 1157 1382 1157 1337 c 0
 1157 1320 1152 1304 1142 1289 c 2
 730 682 l 1
 1178 46 l 2
 1189 31 1194 13 1194 -4 c 0
 1194 -49 1157 -91 1107 -91 c 0
 1079 -91 1053 -78 1036 -54 c 2
 625 528 l 1
 232 -49 l 2
 215 -74 187 -87 159 -87 c 0
 108 -87 73 -44 73 1 c 0
 73 18 78 34 88 49 c 2
 517 680 l 1
 132 1227 l 2
 121 1242 116 1260 116 1277 c 0
EndSplineSet
Colour: ffff
EndChar

StartChar: Y
Encoding: 89 89 37
Width: 1267
VWidth: 2426
Flags: HMW
LayerCount: 2
Fore
SplineSet
723 2 m 2
 724 -46 685 -87 636 -87 c 0
 589 -87 550 -49 549 -2 c 2
 538 604 l 1
 89 1236 l 2
 78 1251 73 1269 73 1287 c 0
 73 1332 110 1374 160 1374 c 0
 188 1374 214 1362 231 1338 c 2
 624 786 l 1
 1035 1387 l 2
 1052 1412 1080 1425 1108 1425 c 0
 1159 1425 1194 1382 1194 1337 c 0
 1194 1320 1189 1304 1179 1289 c 2
 713 607 l 1
 723 2 l 2
EndSplineSet
Colour: ffff
EndChar

StartChar: Z
Encoding: 90 90 38
Width: 1422
VWidth: 2426
Flags: HMW
LayerCount: 2
Fore
SplineSet
161 1183 m 0
 117 1183 73 1217 73 1269 c 0
 73 1308 100 1345 139 1355 c 0
 344 1406 531 1434 745 1434 c 2
 823 1434 l 2
 944 1434 1123 1421 1177 1295 c 0
 1184 1278 1188 1260 1188 1241 c 0
 1188 1188 1160 1146 1127 1110 c 0
 834 787 597 495 375 152 c 1
 643 177 911 192 1197 192 c 2
 1262 192 l 2
 1310 192 1350 152 1350 104 c 0
 1350 56 1310 16 1262 16 c 2
 1197 16 l 2
 855 16 535 -4 216 -40 c 0
 213 -40 209 -41 206 -41 c 0
 154 -41 119 4 119 48 c 0
 119 63 123 78 131 92 c 0
 389 517 659 855 998 1228 c 1
 999 1229 l 1
 945 1249 827 1258 745 1258 c 0
 545 1258 376 1234 181 1185 c 0
 174 1183 168 1183 161 1183 c 0
EndSplineSet
Colour: ffff
EndChar

StartChar: zero
Encoding: 48 48 39
Width: 1141
VWidth: 2426
Flags: HMW
LayerCount: 2
Fore
SplineSet
72 486 m 0
 72 792 129 1434 580 1434 c 0
 904 1434 1068 1123 1068 843 c 0
 1068 484 988 -72 510 -72 c 0
 180 -72 72 229 72 486 c 0
248 486 m 0
 248 253 328 102 510 102 c 0
 798 102 894 460 894 843 c 0
 894 1075 766 1258 580 1258 c 0
 343 1258 248 838 248 486 c 0
EndSplineSet
Colour: ffff
EndChar

StartChar: one
Encoding: 49 49 40
Width: 675
VWidth: 2426
Flags: HMW
LayerCount: 2
Fore
SplineSet
506 -87 m 0
 458 -87 419 -47 419 1 c 2
 426 1138 l 1
 357 1077 283 1020 205 973 c 0
 191 965 176 961 161 961 c 0
 117 961 73 995 73 1047 c 0
 73 1077 88 1107 115 1123 c 0
 224 1188 338 1287 415 1374 c 0
 430 1391 456 1404 481 1404 c 2
 515 1404 l 2
 554 1404 602 1368 602 1315 c 2
 593 -1 l 2
 593 -48 553 -87 506 -87 c 0
EndSplineSet
Colour: ffff
EndChar

StartChar: two
Encoding: 50 50 41
Width: 1171
VWidth: 2426
Flags: HMW
LayerCount: 2
Fore
SplineSet
161 -42 m 2
 113 -42 73 -2 73 45 c 0
 73 69 82 93 101 110 c 2
 478 454 l 2
 710 666 866 857 866 1021 c 0
 866 1138 775 1258 609 1258 c 0
 424 1258 296 1101 296 904 c 0
 296 856 256 816 208 816 c 0
 160 816 120 856 120 904 c 0
 120 1173 308 1434 609 1434 c 0
 873 1434 1040 1230 1040 1021 c 0
 1040 757 826 534 596 324 c 2
 405 150 l 1
 479 153 551 154 626 154 c 0
 754 154 884 149 1015 143 c 0
 1061 141 1099 102 1099 56 c 0
 1099 7 1058 -31 1011 -31 c 2
 1007 -31 l 1
 877 -25 750 -20 626 -20 c 0
 470 -20 320 -26 169 -42 c 1
 161 -42 l 2
EndSplineSet
Colour: ffff
EndChar

StartChar: three
Encoding: 51 51 42
Width: 1078
VWidth: 2426
Flags: HMW
LayerCount: 2
Fore
SplineSet
531 602 m 0
 471 602 415 584 361 584 c 0
 315 584 274 621 274 671 c 0
 274 753 353 760 427 770 c 0
 480 780 533 792 580 808 c 0
 716 854 782 916 782 1008 c 0
 782 1204 685 1258 581 1258 c 0
 440 1258 340 1182 310 1048 c 0
 301 1008 264 980 224 980 c 0
 172 980 138 1024 138 1068 c 0
 138 1074 139 1080 140 1086 c 0
 188 1300 366 1434 581 1434 c 0
 777 1434 958 1288 958 1008 c 0
 958 883 892 787 806 726 c 1
 920 673 1001 567 1006 413 c 1
 1006 133 762 -72 484 -72 c 0
 350 -72 212 -31 104 58 c 0
 83 75 73 101 73 126 c 0
 73 175 114 213 160 213 c 0
 180 213 200 207 216 194 c 0
 288 135 386 102 484 102 c 0
 679 102 829 244 830 411 c 1
 825 533 756 583 608 599 c 0
 584 602 558 602 531 602 c 0
EndSplineSet
Colour: ffff
EndChar

StartChar: four
Encoding: 52 52 43
Width: 1268
VWidth: 2426
Flags: HMW
LayerCount: 2
Fore
SplineSet
804 868 m 0
 854 868 891 827 891 781 c 2
 891 773 l 1
 857 417 l 1
 936 431 1012 448 1087 466 c 0
 1094 468 1101 468 1108 468 c 0
 1152 468 1196 434 1196 382 c 0
 1196 343 1169 306 1129 296 c 0
 1035 273 938 253 839 237 c 1
 815 -8 l 2
 811 -53 772 -87 728 -87 c 0
 678 -87 641 -46 641 0 c 2
 641 8 l 1
 661 213 l 1
 564 203 465 196 368 196 c 0
 324 196 280 198 232 205 c 0
 194 209 123 223 88 294 c 0
 78 314 72 337 72 359 c 0
 72 411 92 447 112 473 c 0
 331 769 498 996 641 1349 c 0
 655 1383 688 1403 723 1403 c 0
 776 1403 809 1359 809 1315 c 0
 809 1304 807 1293 803 1283 c 0
 654 913 475 668 260 378 c 1
 295 373 330 372 368 372 c 0
 470 372 574 379 678 391 c 1
 717 789 l 2
 721 834 760 868 804 868 c 0
EndSplineSet
Colour: ffff
EndChar

StartChar: five
Encoding: 53 53 44
Width: 1113
VWidth: 2426
Flags: HMW
LayerCount: 2
Fore
SplineSet
943 1424 m 0
 987 1424 1030 1389 1030 1337 c 0
 1030 1297 1002 1260 961 1251 c 0
 883 1234 773 1228 637 1228 c 0
 531 1228 420 1233 333 1242 c 1
 303 941 l 1
 373 970 446 984 518 984 c 0
 772 984 1040 843 1040 470 c 0
 1040 128 781 -72 496 -72 c 0
 359 -72 220 -27 106 64 c 0
 85 81 73 106 73 132 c 0
 73 181 114 219 160 219 c 0
 179 219 199 213 215 200 c 0
 297 135 397 102 496 102 c 0
 699 102 866 230 866 470 c 0
 866 731 712 808 518 808 c 0
 428 808 333 777 257 709 c 0
 244 697 221 687 199 687 c 0
 151 687 112 727 112 774 c 0
 112 777 112 780 112 783 c 2
 168 1350 l 2
 172 1389 209 1428 256 1428 c 0
 261 1428 266 1428 272 1427 c 0
 344 1413 496 1404 637 1404 c 0
 767 1404 871 1412 925 1423 c 0
 931 1424 937 1424 943 1424 c 0
EndSplineSet
Colour: ffff
EndChar

StartChar: six
Encoding: 54 54 45
Width: 1099
VWidth: 2426
Flags: HMW
LayerCount: 2
Fore
SplineSet
852 409 m 0
 852 636 718 724 576 724 c 0
 438 724 290 623 249 567 c 1
 248 537 248 506 248 475 c 0
 248 243 342 102 548 102 c 0
 724 102 852 236 852 409 c 0
931 1280 m 0
 931 1227 887 1194 843 1194 c 0
 835 1194 827 1195 819 1197 c 0
 742 1220 675 1230 619 1230 c 0
 420 1230 318 1082 272 810 c 1
 356 859 461 898 576 898 c 0
 806 898 1027 729 1027 409 c 0
 1027 145 823 -72 548 -72 c 0
 218 -72 72 193 72 475 c 0
 72 554 76 633 83 709 c 0
 115 1054 243 1404 619 1404 c 0
 695 1404 778 1392 869 1365 c 0
 907 1354 931 1318 931 1280 c 0
EndSplineSet
Colour: ffff
EndChar

StartChar: eight
Encoding: 56 56 46
Width: 1079
VWidth: 2426
Flags: HMW
LayerCount: 2
Fore
SplineSet
344 830 m 1
 465 954 609 1063 740 1141 c 1
 682 1222 617 1258 523 1258 c 0
 337 1258 248 1152 248 1024 c 0
 248 957 285 888 344 830 c 1
371 596 m 1
 294 495 252 398 252 324 c 0
 252 191 346 102 488 102 c 0
 629 102 718 196 718 295 c 0
 718 398 585 507 421 573 c 0
 405 580 388 587 371 596 c 1
984 1028 m 0
 984 984 951 942 898 942 c 0
 867 942 836 958 820 985 c 1
 713 921 594 831 493 732 c 1
 658 665 894 530 894 295 c 0
 894 82 707 -72 488 -72 c 0
 262 -72 76 89 76 324 c 0
 76 457 142 583 229 698 c 1
 146 777 72 889 72 1024 c 0
 72 1254 255 1434 523 1434 c 0
 686 1434 813 1349 898 1220 c 1
 905 1222 911 1222 918 1222 c 0
 962 1222 1006 1189 1006 1136 c 0
 1006 1110 995 1085 975 1068 c 1
 980 1056 984 1042 984 1028 c 0
EndSplineSet
Colour: ffff
EndChar

StartChar: period
Encoding: 46 46 47
Width: 468
VWidth: 2430
Flags: HMW
LayerCount: 2
Fore
SplineSet
87 87 m 0
 87 159 145 203 211 203 c 0
 277 203 313 160 313 94 c 0
 313 28 270 -30 204 -30 c 0
 138 -30 87 36 87 87 c 0
EndSplineSet
Colour: ff0000
EndChar

StartChar: comma
Encoding: 44 44 49
Width: 478
VWidth: 1823
Flags: HMW
LayerCount: 2
Fore
SplineSet
111 -294 m 0
 59 -294 25 -250 25 -206 c 0
 25 -191 28 -177 36 -163 c 2
 266 233 l 2
 282 261 313 276 343 276 c 0
 395 276 429 232 429 188 c 0
 429 173 426 159 418 145 c 2
 188 -251 l 2
 172 -279 141 -294 111 -294 c 0
EndSplineSet
Colour: ffff
EndChar

StartChar: bracketleft
Encoding: 91 91 51
Width: 715
VWidth: 2426
Flags: HMW
LayerCount: 2
Fore
SplineSet
515 1408 m 0
 561 1408 602 1371 602 1321 c 0
 602 1276 567 1238 522 1234 c 0
 468 1230 415 1228 361 1228 c 0
 341 1228 321 1229 301 1229 c 1
 308 1141 312 1058 312 972 c 0
 312 741 287 501 287 279 c 1
 288 266 l 1
 288 149 312 141 514 132 c 0
 560 130 598 91 598 45 c 0
 598 -4 557 -42 510 -42 c 2
 506 -42 l 1
 309 -33 112 11 112 266 c 0
 112 495 136 739 136 972 c 0
 136 1085 131 1198 117 1311 c 1
 117 1318 l 2
 117 1355 148 1409 204 1409 c 0
 256 1409 307 1404 361 1404 c 0
 416 1404 466 1408 515 1408 c 0
EndSplineSet
Colour: ffff
EndChar

StartChar: bracketright
Encoding: 93 93 52
Width: 726
VWidth: 2426
Flags: HMW
LayerCount: 2
Fore
SplineSet
113 1343 m 0
 113 1394 155 1430 200 1430 c 0
 204 1430 210 1430 214 1429 c 0
 305 1415 409 1405 512 1403 c 0
 563 1402 597 1358 597 1314 c 0
 597 1308 596 1302 595 1297 c 0
 560 1138 560 1064 560 875 c 0
 560 683 614 481 614 285 c 0
 614 16 396 -42 207 -42 c 0
 159 -42 120 -3 120 45 c 0
 120 93 159 132 207 132 c 0
 382 132 438 156 438 285 c 0
 438 476 384 678 384 875 c 0
 384 1023 386 1115 405 1233 c 1
 330 1238 254 1246 186 1257 c 0
 143 1264 113 1301 113 1343 c 0
EndSplineSet
PairPos2: "'kern' Horizontal Kerning in Arabic lookup 2 per glyph data 0" uni0622 dx=300 dy=0 dh=300 dv=0 dx=0 dy=0 dh=0 dv=0
Colour: ffff
EndChar

StartChar: braceleft
Encoding: 123 123 53
Width: 695
VWidth: 1839
Flags: HMW
LayerCount: 2
Fore
SplineSet
208 215 m 0
 208 283 222 336 222 413 c 0
 222 505 208 611 189 657 c 1
 150 669 113 696 113 746 c 0
 113 795 153 833 205 836 c 1
 212 867 216 921 216 983 c 0
 216 1061 210 1127 210 1186 c 0
 210 1337 307 1448 492 1448 c 0
 540 1448 580 1409 580 1361 c 0
 580 1313 540 1274 492 1274 c 0
 385 1274 386 1257 386 1186 c 0
 386 1131 392 1076 392 1014 c 2
 392 983 l 2
 392 887 390 799 349 727 c 1
 386 639 396 520 396 413 c 0
 396 363 394 316 388 275 c 0
 384 251 382 232 382 215 c 0
 382 148 381 132 495 132 c 0
 543 132 582 93 582 45 c 0
 582 -3 543 -42 495 -42 c 0
 319 -42 208 54 208 215 c 0
EndSplineSet
Colour: ffff
EndChar

StartChar: braceright
Encoding: 125 125 54
Width: 695
VWidth: 0
Flags: HMW
LayerCount: 2
Fore
SplineSet
488 1190 m 0
 488 1122 474 1069 474 992 c 0
 474 900 487 794 506 748 c 1
 545 736 582 709 582 659 c 0
 582 610 542 572 490 569 c 1
 483 538 478 484 478 422 c 0
 478 344 484 278 484 219 c 0
 484 68 388 -44 203 -44 c 0
 155 -44 116 -4 116 44 c 0
 116 92 155 132 203 132 c 0
 310 132 310 148 310 219 c 0
 310 274 303 329 303 391 c 0
 303 402 304 413 304 422 c 0
 304 518 305 606 346 678 c 1
 309 766 298 885 298 992 c 0
 298 1042 301 1089 307 1130 c 0
 311 1154 312 1173 312 1190 c 2
 312 1197 l 2
 312 1258 310 1272 200 1272 c 0
 152 1272 112 1312 112 1360 c 0
 112 1408 152 1448 200 1448 c 0
 376 1448 488 1351 488 1190 c 0
EndSplineSet
PairPos2: "'kern' Horizontal Kerning in Arabic lookup 2 per glyph data 0" uni0622 dx=300 dy=0 dh=300 dv=0 dx=0 dy=0 dh=0 dv=0
Colour: ffff
EndChar

StartChar: grave
Encoding: 96 96 55
Width: 539
VWidth: 2426
Flags: HMW
LayerCount: 2
Fore
SplineSet
93 1482 m 0
 93 1528 130 1569 180 1569 c 0
 206 1569 232 1558 249 1536 c 0
 317 1450 390 1313 439 1205 c 0
 444 1194 446 1182 446 1170 c 0
 446 1126 413 1082 360 1082 c 0
 327 1082 293 1101 279 1133 c 0
 235 1229 161 1364 111 1428 c 0
 99 1444 93 1463 93 1482 c 0
EndSplineSet
Colour: ffff
EndChar

StartChar: bar
Encoding: 124 124 56
Width: 417
VWidth: 2426
Flags: HMW
LayerCount: 2
Fore
SplineSet
200 -87 m 0
 152 -87 113 -47 113 0 c 0
 113 367 130 1041 130 1459 c 0
 130 1507 169 1546 217 1546 c 0
 265 1546 304 1507 304 1459 c 0
 304 1039 295 365 288 -2 c 0
 287 -49 247 -87 200 -87 c 0
EndSplineSet
Colour: ffff
EndChar

StartChar: asciicircum
Encoding: 94 94 57
Width: 718
VWidth: 2426
Flags: HMW
LayerCount: 2
Fore
SplineSet
179 1082 m 0
 128 1082 93 1126 93 1170 c 0
 93 1186 97 1201 106 1215 c 2
 272 1484 l 2
 288 1511 318 1525 347 1525 c 0
 374 1525 401 1510 414 1493 c 2
 606 1252 l 2
 619 1236 625 1216 625 1197 c 0
 625 1151 587 1110 538 1110 c 0
 512 1110 487 1121 470 1142 c 2
 355 1286 l 1
 254 1123 l 2
 238 1096 209 1082 179 1082 c 0
EndSplineSet
Colour: ffff
EndChar

StartChar: hyphen
Encoding: 45 45 58
Width: 1037
VWidth: 2426
Flags: HMW
LayerCount: 2
Fore
SplineSet
160 350 m 2
 114 350 73 387 73 437 c 0
 73 481 107 520 152 524 c 0
 409 546 632 548 877 548 c 0
 925 548 965 509 965 461 c 0
 965 413 925 374 877 374 c 0
 632 374 417 372 168 350 c 1
 160 350 l 2
EndSplineSet
Colour: ffff
EndChar

StartChar: plus
Encoding: 43 43 59
Width: 1033
VWidth: 2426
Flags: HMW
LayerCount: 2
Fore
SplineSet
160 554 m 2
 114 554 73 590 73 641 c 0
 73 684 105 723 149 728 c 0
 242 739 332 746 421 750 c 1
 413 851 400 953 382 1034 c 0
 381 1040 380 1046 380 1052 c 0
 380 1096 414 1140 466 1140 c 0
 506 1140 543 1112 552 1072 c 0
 574 977 589 864 597 754 c 1
 604 754 611 754 618 754 c 0
 703 754 790 752 877 748 c 0
 923 746 961 707 961 661 c 0
 961 612 920 574 873 574 c 0
 787 574 702 580 618 580 c 0
 613 580 608 579 603 579 c 1
 603 574 604 570 604 566 c 0
 604 445 597 341 570 264 c 0
 558 228 522 206 486 206 c 0
 433 206 400 250 400 294 c 0
 400 303 401 313 404 322 c 0
 417 359 428 455 428 566 c 0
 428 569 428 572 428 575 c 1
 343 571 259 565 171 554 c 1
 160 554 l 2
EndSplineSet
Colour: ffff
EndChar

StartChar: exclam
Encoding: 33 33 60
Width: 583
VWidth: 0
Flags: HMW
LayerCount: 2
Fore
SplineSet
420 85 m 0
 420 33 379 -42 298 -42 c 0
 248 -42 162 -10 162 84 c 0
 162 156 221 216 294 216 c 0
 373 216 420 145 420 85 c 0
163 1361 m 0
 163 1406 199 1448 250 1448 c 0
 293 1448 331 1416 337 1373 c 0
 374 1103 382 838 382 547 c 2
 382 422 l 2
 381 375 341 337 294 337 c 0
 246 337 207 377 207 424 c 0
 207 465 208 507 208 547 c 0
 208 834 198 1091 163 1349 c 0
 162 1353 163 1357 163 1361 c 0
EndSplineSet
Colour: ffff
EndChar

StartChar: quotesingle
Encoding: 39 39 62
Width: 331
VWidth: 2426
Flags: HMW
LayerCount: 2
Fore
SplineSet
160 865 m 0
 134 865 115 887 115 910 c 0
 115 974 126 1048 126 1126 c 0
 126 1205 115 1287 115 1361 c 0
 115 1385 134 1406 160 1406 c 0
 183 1406 203 1388 205 1365 c 0
 212 1290 216 1207 216 1126 c 0
 216 1047 212 971 205 905 c 0
 203 882 182 865 160 865 c 0
EndSplineSet
Colour: ffff00
EndChar

StartChar: parenleft
Encoding: 40 40 63
Width: 606
VWidth: 1839
Flags: HMW
LayerCount: 2
Fore
SplineSet
361 1499 m 0
 413 1499 447 1455 447 1411 c 0
 447 1398 445 1386 439 1374 c 0
 316 1121 288 960 288 682 c 0
 288 415 357 255 485 -8 c 0
 491 -20 493 -32 493 -45 c 0
 493 -89 459 -133 407 -133 c 0
 374 -133 342 -115 327 -84 c 0
 199 179 112 379 112 682 c 0
 112 974 148 1177 281 1450 c 0
 296 1481 328 1499 361 1499 c 0
EndSplineSet
Colour: ffff
EndChar

StartChar: parenright
Encoding: 41 41 64
Width: 606
VWidth: 1839
Flags: HMW
LayerCount: 2
Fore
SplineSet
245 -133 m 0
 193 -133 159 -89 159 -45 c 0
 159 -32 161 -20 167 -8 c 0
 290 245 318 406 318 684 c 0
 318 951 249 1111 121 1374 c 0
 115 1386 113 1398 113 1411 c 0
 113 1455 147 1499 199 1499 c 0
 232 1499 264 1481 279 1450 c 0
 407 1187 494 987 494 684 c 0
 494 392 458 189 325 -84 c 0
 310 -115 278 -133 245 -133 c 0
EndSplineSet
PairPos2: "'kern' Horizontal Kerning in Arabic lookup 2 per glyph data 0" uni0622 dx=320 dy=0 dh=320 dv=0 dx=0 dy=0 dh=0 dv=0
Colour: ffff
EndChar

StartChar: less
Encoding: 60 60 65
Width: 645
VWidth: 1839
Flags: HMW
LayerCount: 2
Fore
SplineSet
572 414 m 0
 572 370 537 326 486 326 c 0
 456 326 426 341 410 368 c 0
 341 482 257 580 162 663 c 0
 142 681 134 704 134 727 c 0
 134 755 146 781 164 796 c 0
 259 875 341 969 409 1088 c 0
 425 1116 455 1132 486 1132 c 0
 538 1132 572 1088 572 1044 c 0
 572 1029 569 1015 561 1002 c 0
 501 896 429 806 349 728 c 1
 428 649 499 558 560 458 c 0
 568 444 572 429 572 414 c 0
EndSplineSet
Colour: ffff
EndChar

StartChar: backslash
Encoding: 92 92 66
Width: 1105
VWidth: 2426
Flags: HMW
LayerCount: 2
Fore
SplineSet
93 1316 m 0
 93 1361 130 1403 180 1403 c 0
 207 1403 233 1391 250 1368 c 0
 564 946 813 585 1008 29 c 0
 1011 20 1012 10 1012 1 c 0
 1012 -43 979 -87 926 -87 c 0
 890 -87 856 -65 843 -29 c 0
 656 505 422 844 110 1264 c 0
 99 1279 93 1298 93 1316 c 0
EndSplineSet
Colour: ffff
EndChar

StartChar: asterisk
Encoding: 42 42 67
Width: 1108
VWidth: 1839
Flags: HMW
LayerCount: 2
Fore
SplineSet
430 1345 m 0
 430 1390 465 1432 517 1432 c 0
 558 1432 596 1402 603 1360 c 0
 621 1258 633 1158 638 1060 c 1
 728 1105 820 1147 917 1183 c 0
 927 1187 937 1188 947 1188 c 0
 991 1188 1035 1155 1035 1102 c 0
 1035 1066 1014 1032 979 1019 c 0
 892 986 809 950 729 910 c 1
 810 857 888 800 963 738 c 0
 984 721 994 695 994 670 c 0
 994 621 953 583 907 583 c 0
 887 583 867 589 851 602 c 0
 782 659 711 712 637 761 c 1
 631 662 619 565 603 468 c 0
 596 426 559 395 517 395 c 0
 465 395 430 437 430 482 c 0
 430 487 430 491 431 496 c 0
 445 582 455 668 461 755 c 1
 390 708 322 656 256 602 c 0
 240 589 220 583 200 583 c 0
 154 583 113 621 113 670 c 0
 113 695 123 721 144 738 c 0
 219 800 298 858 379 911 c 1
 299 951 216 986 129 1019 c 0
 94 1032 73 1066 73 1102 c 0
 73 1155 117 1188 161 1188 c 0
 171 1188 181 1187 191 1183 c 0
 285 1148 375 1108 462 1064 c 1
 457 1151 447 1240 431 1330 c 0
 430 1335 430 1340 430 1345 c 0
EndSplineSet
Colour: ffff
EndChar

StartChar: numbersign
Encoding: 35 35 68
Width: 1734
VWidth: 1823
Flags: HMW
LayerCount: 2
Fore
SplineSet
387 -87 m 0
 334 -87 301 -43 301 1 c 0
 301 9 302 17 304 25 c 2
 416 399 l 1
 157 409 l 2
 110 411 73 450 73 496 c 0
 73 545 113 583 160 583 c 0
 161 583 162 583 163 583 c 2
 468 572 l 1
 549 843 l 1
 255 835 l 2
 254 835 253 835 252 835 c 0
 205 835 165 873 165 922 c 0
 165 969 202 1008 249 1009 c 2
 602 1020 l 1
 711 1386 l 2
 722 1424 758 1448 796 1448 c 0
 849 1448 882 1404 882 1360 c 0
 882 1352 881 1344 879 1336 c 2
 786 1025 l 1
 1162 1036 l 1
 1227 1377 l 2
 1235 1418 1272 1448 1313 1448 c 0
 1365 1448 1400 1406 1400 1361 c 0
 1400 1356 1400 1350 1399 1345 c 2
 1341 1042 l 1
 1571 1048 l 2
 1572 1048 1573 1048 1574 1048 c 0
 1621 1048 1661 1010 1661 961 c 0
 1661 914 1624 875 1577 874 c 2
 1307 866 l 1
 1246 543 l 1
 1513 532 l 2
 1560 530 1597 491 1597 445 c 0
 1597 396 1557 358 1510 358 c 0
 1509 358 1508 358 1507 358 c 2
 1213 369 l 1
 1139 -16 l 2
 1131 -57 1094 -87 1053 -87 c 0
 1001 -87 966 -45 966 0 c 0
 966 5 966 11 967 16 c 2
 1036 375 l 1
 597 392 l 1
 472 -25 l 2
 461 -63 425 -87 387 -87 c 0
1128 860 m 1
 733 849 l 1
 648 565 l 1
 1069 549 l 1
 1128 860 l 1
EndSplineSet
Colour: ffff
EndChar

StartChar: slash
Encoding: 47 47 70
Width: 965
VWidth: 1839
Flags: HMW
LayerCount: 2
Fore
SplineSet
199 -87 m 0
 148 -87 113 -43 113 1 c 0
 113 16 117 31 125 45 c 0
 393 489 583 921 679 1379 c 0
 688 1420 726 1448 766 1448 c 0
 818 1448 853 1406 853 1361 c 0
 853 1355 852 1349 851 1343 c 0
 750 861 549 411 275 -45 c 0
 259 -72 229 -87 199 -87 c 0
EndSplineSet
Colour: ffff
EndChar

StartChar: greater
Encoding: 62 62 71
Width: 645
VWidth: 1823
Flags: HMW
LayerCount: 2
Fore
SplineSet
73 1045 m 0
 73 1089 108 1133 159 1133 c 0
 189 1133 219 1118 235 1091 c 0
 304 977 388 879 483 796 c 0
 503 778 511 755 511 732 c 0
 511 704 499 678 481 663 c 0
 386 584 304 490 236 371 c 0
 220 343 190 327 159 327 c 0
 107 327 73 371 73 415 c 0
 73 430 76 444 84 457 c 0
 144 563 216 653 296 731 c 1
 217 810 146 901 85 1001 c 0
 77 1015 73 1030 73 1045 c 0
EndSplineSet
Colour: ffff
EndChar

StartChar: equal
Encoding: 61 61 72
Width: 1037
VWidth: 1839
Flags: HMW
LayerCount: 2
Fore
SplineSet
73 471 m 0
 73 523 115 558 160 558 c 0
 165 558 172 558 177 557 c 0
 214 550 397 544 498 544 c 0
 602 544 743 548 870 558 c 1
 877 558 l 2
 923 558 965 521 965 471 c 0
 965 426 929 387 884 384 c 0
 751 374 608 368 498 368 c 0
 389 368 218 370 143 385 c 0
 102 393 73 430 73 471 c 0
73 875 m 0
 73 925 114 962 160 962 c 2
 168 962 l 1
 277 952 467 948 557 948 c 0
 665 948 779 954 870 962 c 1
 877 962 l 2
 923 962 965 925 965 875 c 0
 965 830 930 792 885 788 c 0
 789 780 671 774 557 774 c 0
 463 774 273 778 152 788 c 0
 107 792 73 831 73 875 c 0
EndSplineSet
Colour: ffff
EndChar

StartChar: AE
Encoding: 198 198 75
Width: 1968
VWidth: 2426
Flags: HMW
LayerCount: 2
Fore
SplineSet
1807 1461 m 0
 1851 1461 1895 1427 1895 1375 c 0
 1895 1335 1868 1298 1828 1289 c 0
 1654 1248 1473 1230 1284 1230 c 2
 1174 1230 l 1
 1174 1119 l 2
 1174 1019 1174 909 1172 798 c 1
 1179 798 l 2
 1381 798 1579 792 1730 780 c 0
 1775 776 1811 738 1811 693 c 0
 1811 643 1769 606 1723 606 c 2
 1716 606 l 1
 1573 618 1377 624 1179 624 c 0
 1175 624 1171 623 1167 623 c 0
 1161 468 1150 321 1129 201 c 0
 1126 188 1126 178 1126 173 c 0
 1126 139 1167 95 1311 87 c 0
 1437 79 1536 74 1662 74 c 2
 1724 74 l 2
 1745 74 1766 75 1786 75 c 0
 1833 75 1874 37 1874 -12 c 0
 1874 -58 1836 -97 1790 -99 c 0
 1767 -100 1745 -101 1724 -101 c 0
 1703 -101 1682 -100 1662 -100 c 0
 1532 -100 1429 -95 1301 -87 c 0
 1162 -79 950 -29 950 173 c 0
 950 194 953 213 957 233 c 0
 975 337 986 475 992 622 c 1
 863 620 725 616 618 610 c 1
 510 357 373 117 227 -56 c 0
 210 -76 185 -87 160 -87 c 0
 111 -87 73 -46 73 0 c 0
 73 20 79 40 93 56 c 0
 220 206 344 426 446 659 c 1
 442 669 440 680 440 692 c 0
 440 728 462 760 494 773 c 1
 573 971 634 1172 665 1341 c 0
 672 1377 707 1412 751 1412 c 0
 821 1412 1212 1404 1284 1404 c 0
 1461 1404 1630 1422 1788 1459 c 0
 1795 1461 1801 1461 1807 1461 c 0
689 789 m 1
 785 793 895 796 997 797 c 1
 999 908 1000 1019 1000 1119 c 0
 1000 1158 999 1196 998 1232 c 1
 933 1233 870 1234 822 1235 c 1
 791 1095 746 942 689 789 c 1
EndSplineSet
Colour: ffff
EndChar

StartChar: cedilla
Encoding: 184 184 77
Width: 717
VWidth: 2426
Flags: HMW
LayerCount: 2
Fore
SplineSet
240 0 m 0
 240 49 281 87 327 87 c 0
 346 87 366 81 382 68 c 0
 479 -11 644 -185 644 -361 c 0
 644 -510 509 -588 319 -588 c 0
 249 -588 185 -579 136 -565 c 0
 98 -554 73 -518 73 -480 c 0
 73 -427 117 -394 161 -394 c 0
 169 -394 176 -395 184 -397 c 0
 213 -405 267 -414 319 -414 c 0
 461 -414 470 -381 470 -366 c 2
 470 -361 l 2
 470 -293 353 -133 272 -68 c 0
 251 -51 240 -26 240 0 c 0
EndSplineSet
Colour: ffff
EndChar

StartChar: Oslash
Encoding: 216 216 78
Width: 1494
VWidth: 1823
Flags: HMW
LayerCount: 2
Fore
SplineSet
169 -87 m 0
 118 -87 83 -44 83 1 c 0
 83 18 87 34 97 49 c 0
 452 581 832 979 1275 1381 c 0
 1292 1396 1313 1403 1334 1403 c 0
 1381 1403 1421 1364 1421 1316 c 0
 1421 1292 1412 1268 1393 1251 c 0
 956 855 588 469 243 -49 c 0
 226 -74 197 -87 169 -87 c 0
EndSplineSet
Refer: 27 79 N 1 0 0 1 0 0 2
Colour: ffff
EndChar

StartChar: uni0627
Encoding: 1575 1575 80
Width: 445
VWidth: 1839
Flags: HMW
AnchorPoint: "Anchor-3" 200 1169 basechar 0
AnchorPoint: "Anchor-1" 218 0 basechar 0
LayerCount: 2
Fore
SplineSet
113 1166 m 0
 113 1211 149 1253 200 1253 c 0
 243 1253 281 1221 287 1178 c 0
 319 937 332 797 332 531 c 0
 332 364 325 162 311 -6 c 0
 307 -51 269 -86 224 -86 c 0
 174 -86 137 -45 137 1 c 2
 137 8 l 1
 151 170 158 368 158 531 c 0
 158 791 145 915 113 1154 c 0
 112 1158 113 1162 113 1166 c 0
EndSplineSet
PairPos2: "'kern' Horizontal Kerning in Arabic lookup 2 per glyph data 0" uni063A dx=-267 dy=0 dh=-267 dv=0 dx=0 dy=0 dh=0 dv=0
PairPos2: "'kern' Horizontal Kerning in Arabic lookup 2 per glyph data 0" uni0639 dx=-267 dy=0 dh=-267 dv=0 dx=0 dy=0 dh=0 dv=0
Substitution2: "'fina' Terminal Forms in Arabic lookup 4 subtable" uniFE8E
PairPos2: "'kern' Horizontal Kerning in Arabic lookup 2 per glyph data 1" uni0639 dx=-200 dy=0 dh=-200 dv=0 dx=0 dy=0 dh=0 dv=0
PairPos2: "'kern' Horizontal Kerning in Arabic lookup 2 per glyph data 1" uni063A dx=-200 dy=0 dh=-200 dv=0 dx=0 dy=0 dh=0 dv=0
Colour: ffff
EndChar

StartChar: uni066E
Encoding: 1646 1646 81
Width: 1726
VWidth: 2370
Flags: HMW
AnchorPoint: "Anchor-3" 838 489 basechar 0
AnchorPoint: "Anchor-1" 803 -30 basechar 0
LayerCount: 2
Fore
SplineSet
1421 626 m 0
 1421 670 1455 714 1507 714 c 0
 1538 714 1568 698 1584 670 c 0
 1627 595 1654 487 1654 383 c 0
 1654 -37 1109 -72 843 -72 c 0
 552 -72 72 -38 72 373 c 0
 72 457 87 556 122 625 c 0
 137 655 169 673 201 673 c 0
 253 673 287 629 287 585 c 0
 287 572 284 559 278 547 c 0
 266 524 248 431 248 373 c 0
 248 160 512 102 843 102 c 0
 1155 102 1478 171 1478 383 c 0
 1478 455 1453 547 1432 584 c 0
 1424 597 1421 611 1421 626 c 0
EndSplineSet
Substitution2: "'fina' Terminal Forms in Arabic lookup 4 subtable" uniFBE8
Colour: ffff
EndChar

StartChar: uni0631
Encoding: 1585 1585 82
Width: 797
VWidth: 2370
Flags: HMW
AnchorPoint: "Anchor-1" 425 -394 basechar 0
AnchorPoint: "Anchor-3" 512 566 basechar 0
LayerCount: 2
Fore
SplineSet
445 483 m 0
 445 527 478 571 531 571 c 0
 570 571 607 545 617 506 c 0
 660 344 684 200 684 71 c 0
 684 -253 532 -470 178 -543 c 0
 172 -544 167 -544 161 -544 c 0
 116 -544 73 -509 73 -457 c 0
 73 -417 101 -379 142 -371 c 0
 426 -312 510 -187 510 71 c 0
 510 178 488 308 447 462 c 0
 445 469 445 476 445 483 c 0
EndSplineSet
PairPos2: "'kern' Horizontal Kerning in Arabic lookup 2 per glyph data 2" uniE01B dx=-150 dy=0 dh=-150 dv=0 dx=0 dy=0 dh=0 dv=0
PairPos2: "'kern' Horizontal Kerning in Arabic lookup 2 per glyph data 2" uniE019 dx=-150 dy=0 dh=-150 dv=0 dx=0 dy=0 dh=0 dv=0
PairPos2: "'kern' Horizontal Kerning in Arabic lookup 2 per glyph data 2" uniE017 dx=-150 dy=0 dh=-150 dv=0 dx=0 dy=0 dh=0 dv=0
Substitution2: "Single Substitution 1 subtable" uniE017
PairPos2: "'kern' Horizontal Kerning in Arabic lookup 2 per glyph data 0" period dx=-250 dy=0 dh=-250 dv=0 dx=0 dy=0 dh=0 dv=0
PairPos2: "'kern' Horizontal Kerning in Arabic lookup 2 per glyph data 0" uni060C dx=-250 dy=0 dh=-250 dv=0 dx=0 dy=0 dh=0 dv=0
PairPos2: "'kern' Horizontal Kerning in Arabic lookup 2 per glyph data 0" uni061B dx=-250 dy=0 dh=-250 dv=0 dx=0 dy=0 dh=0 dv=0
PairPos2: "'kern' Horizontal Kerning in Arabic lookup 2 per glyph data 0" parenleft dx=-250 dy=0 dh=-250 dv=0 dx=0 dy=0 dh=0 dv=0
PairPos2: "'kern' Horizontal Kerning in Arabic lookup 2 per glyph data 0" braceleft dx=-250 dy=0 dh=-250 dv=0 dx=0 dy=0 dh=0 dv=0
PairPos2: "'kern' Horizontal Kerning in Arabic lookup 2 per glyph data 0" bracketleft dx=-250 dy=0 dh=-250 dv=0 dx=0 dy=0 dh=0 dv=0
PairPos2: "'kern' Horizontal Kerning in Arabic lookup 2 per glyph data 5" space dx=-372 dy=0 dh=-372 dv=0 dx=0 dy=0 dh=0 dv=0
PairPos2: "'kern' Horizontal Kerning in Arabic lookup 2 per glyph data 2" uni0626 dx=-50 dy=0 dh=-50 dv=0 dx=0 dy=0 dh=0 dv=0
PairPos2: "'kern' Horizontal Kerning in Arabic lookup 2 per glyph data 2" uni064A dx=-50 dy=0 dh=-50 dv=0 dx=0 dy=0 dh=0 dv=0
PairPos2: "'kern' Horizontal Kerning in Arabic lookup 2 per glyph data 2" uni0649 dx=-50 dy=0 dh=-50 dv=0 dx=0 dy=0 dh=0 dv=0
PairPos2: "'kern' Horizontal Kerning in Arabic lookup 2 per glyph data 2" uni06CC dx=-50 dy=0 dh=-50 dv=0 dx=0 dy=0 dh=0 dv=0
PairPos2: "'kern' Horizontal Kerning in Arabic lookup 2 per glyph data 2" uniFBFE dx=-40 dy=0 dh=-40 dv=0 dx=0 dy=0 dh=0 dv=0
PairPos2: "'kern' Horizontal Kerning in Arabic lookup 2 per glyph data 2" uniFEF3 dx=-40 dy=0 dh=-40 dv=0 dx=0 dy=0 dh=0 dv=0
PairPos2: "'kern' Horizontal Kerning in Arabic lookup 2 per glyph data 2" uniFB58 dx=-40 dy=0 dh=-40 dv=0 dx=0 dy=0 dh=0 dv=0
Substitution2: "'fina' Terminal Forms in Arabic lookup 4 subtable" uniFEAE
PairPos2: "'kern' Horizontal Kerning in Arabic lookup 2 per glyph data 3" uni06A9 dx=-267 dy=0 dh=-267 dv=0 dx=0 dy=0 dh=0 dv=0
PairPos2: "'kern' Horizontal Kerning in Arabic lookup 2 per glyph data 3" uni06AF dx=-267 dy=0 dh=-267 dv=0 dx=0 dy=0 dh=0 dv=0
PairPos2: "'kern' Horizontal Kerning in Arabic lookup 2 per glyph data 3" uniFB90 dx=-267 dy=0 dh=-267 dv=0 dx=0 dy=0 dh=0 dv=0
PairPos2: "'kern' Horizontal Kerning in Arabic lookup 2 per glyph data 3" uniFB94 dx=-267 dy=0 dh=-267 dv=0 dx=0 dy=0 dh=0 dv=0
PairPos2: "'kern' Horizontal Kerning in Arabic lookup 2 per glyph data 3" uniFEDB dx=-267 dy=0 dh=-267 dv=0 dx=0 dy=0 dh=0 dv=0
PairPos2: "'kern' Horizontal Kerning in Arabic lookup 2 per glyph data 2" uni0622 dx=-167 dy=0 dh=-167 dv=0 dx=0 dy=0 dh=0 dv=0
PairPos2: "'kern' Horizontal Kerning in Arabic lookup 2 per glyph data 2" uni0623 dx=-167 dy=0 dh=-167 dv=0 dx=0 dy=0 dh=0 dv=0
PairPos2: "'kern' Horizontal Kerning in Arabic lookup 2 per glyph data 2" uni0624 dx=-133 dy=0 dh=-133 dv=0 dx=0 dy=0 dh=0 dv=0
PairPos2: "'kern' Horizontal Kerning in Arabic lookup 2 per glyph data 2" uni0627 dx=-167 dy=0 dh=-167 dv=0 dx=0 dy=0 dh=0 dv=0
PairPos2: "'kern' Horizontal Kerning in Arabic lookup 2 per glyph data 2" uni0628 dx=-234 dy=0 dh=-234 dv=0 dx=0 dy=0 dh=0 dv=0
PairPos2: "'kern' Horizontal Kerning in Arabic lookup 2 per glyph data 2" uni0629 dx=-234 dy=0 dh=-234 dv=0 dx=0 dy=0 dh=0 dv=0
PairPos2: "'kern' Horizontal Kerning in Arabic lookup 2 per glyph data 2" uni062A dx=-234 dy=0 dh=-234 dv=0 dx=0 dy=0 dh=0 dv=0
PairPos2: "'kern' Horizontal Kerning in Arabic lookup 2 per glyph data 2" uni062B dx=-234 dy=0 dh=-234 dv=0 dx=0 dy=0 dh=0 dv=0
PairPos2: "'kern' Horizontal Kerning in Arabic lookup 2 per glyph data 2" uni062F dx=-250 dy=0 dh=-250 dv=0 dx=0 dy=0 dh=0 dv=0
PairPos2: "'kern' Horizontal Kerning in Arabic lookup 2 per glyph data 2" uni0630 dx=-250 dy=0 dh=-250 dv=0 dx=0 dy=0 dh=0 dv=0
PairPos2: "'kern' Horizontal Kerning in Arabic lookup 2 per glyph data 2" uni0631 dx=-150 dy=0 dh=-150 dv=0 dx=0 dy=0 dh=0 dv=0
PairPos2: "'kern' Horizontal Kerning in Arabic lookup 2 per glyph data 2" uni0632 dx=-150 dy=0 dh=-150 dv=0 dx=0 dy=0 dh=0 dv=0
PairPos2: "'kern' Horizontal Kerning in Arabic lookup 2 per glyph data 2" uni0633 dx=-234 dy=0 dh=-234 dv=0 dx=0 dy=0 dh=0 dv=0
PairPos2: "'kern' Horizontal Kerning in Arabic lookup 2 per glyph data 2" uni0634 dx=-234 dy=0 dh=-234 dv=0 dx=0 dy=0 dh=0 dv=0
PairPos2: "'kern' Horizontal Kerning in Arabic lookup 2 per glyph data 2" uni0635 dx=-234 dy=0 dh=-234 dv=0 dx=0 dy=0 dh=0 dv=0
PairPos2: "'kern' Horizontal Kerning in Arabic lookup 2 per glyph data 2" uni0636 dx=-234 dy=0 dh=-234 dv=0 dx=0 dy=0 dh=0 dv=0
PairPos2: "'kern' Horizontal Kerning in Arabic lookup 2 per glyph data 2" uni0637 dx=-234 dy=0 dh=-234 dv=0 dx=0 dy=0 dh=0 dv=0
PairPos2: "'kern' Horizontal Kerning in Arabic lookup 2 per glyph data 2" uni0638 dx=-234 dy=0 dh=-234 dv=0 dx=0 dy=0 dh=0 dv=0
PairPos2: "'kern' Horizontal Kerning in Arabic lookup 2 per glyph data 2" uni0641 dx=-234 dy=0 dh=-234 dv=0 dx=0 dy=0 dh=0 dv=0
PairPos2: "'kern' Horizontal Kerning in Arabic lookup 2 per glyph data 2" uni0642 dx=-40 dy=0 dh=-40 dv=0 dx=0 dy=0 dh=0 dv=0
PairPos2: "'kern' Horizontal Kerning in Arabic lookup 2 per glyph data 2" uni0643 dx=-234 dy=0 dh=-234 dv=0 dx=0 dy=0 dh=0 dv=0
PairPos2: "'kern' Horizontal Kerning in Arabic lookup 2 per glyph data 2" uni0644 dx=-100 dy=0 dh=-100 dv=0 dx=0 dy=0 dh=0 dv=0
PairPos2: "'kern' Horizontal Kerning in Arabic lookup 2 per glyph data 2" uni0645 dx=-234 dy=0 dh=-234 dv=0 dx=0 dy=0 dh=0 dv=0
PairPos2: "'kern' Horizontal Kerning in Arabic lookup 2 per glyph data 2" uni0646 dx=-40 dy=0 dh=-40 dv=0 dx=0 dy=0 dh=0 dv=0
PairPos2: "'kern' Horizontal Kerning in Arabic lookup 2 per glyph data 2" uni0647 dx=-234 dy=0 dh=-234 dv=0 dx=0 dy=0 dh=0 dv=0
PairPos2: "'kern' Horizontal Kerning in Arabic lookup 2 per glyph data 2" uni0648 dx=-133 dy=0 dh=-133 dv=0 dx=0 dy=0 dh=0 dv=0
PairPos2: "'kern' Horizontal Kerning in Arabic lookup 2 per glyph data 2" uni067E dx=-234 dy=0 dh=-234 dv=0 dx=0 dy=0 dh=0 dv=0
PairPos2: "'kern' Horizontal Kerning in Arabic lookup 2 per glyph data 2" uni0698 dx=-150 dy=0 dh=-150 dv=0 dx=0 dy=0 dh=0 dv=0
PairPos2: "'kern' Horizontal Kerning in Arabic lookup 2 per glyph data 2" uni06A9 dx=-400 dy=0 dh=-400 dv=0 dx=0 dy=0 dh=0 dv=0
PairPos2: "'kern' Horizontal Kerning in Arabic lookup 2 per glyph data 2" uni06AF dx=-400 dy=0 dh=-400 dv=0 dx=0 dy=0 dh=0 dv=0
PairPos2: "'kern' Horizontal Kerning in Arabic lookup 2 per glyph data 2" uni06C0 dx=-234 dy=0 dh=-234 dv=0 dx=0 dy=0 dh=0 dv=0
PairPos2: "'kern' Horizontal Kerning in Arabic lookup 2 per glyph data 2" uni06CA dx=-133 dy=0 dh=-133 dv=0 dx=0 dy=0 dh=0 dv=0
PairPos2: "'kern' Horizontal Kerning in Arabic lookup 2 per glyph data 2" uniFB7C dx=-234 dy=0 dh=-234 dv=0 dx=0 dy=0 dh=0 dv=0
PairPos2: "'kern' Horizontal Kerning in Arabic lookup 2 per glyph data 2" uniFB90 dx=-400 dy=0 dh=-400 dv=0 dx=0 dy=0 dh=0 dv=0
PairPos2: "'kern' Horizontal Kerning in Arabic lookup 2 per glyph data 2" uniFB94 dx=-400 dy=0 dh=-400 dv=0 dx=0 dy=0 dh=0 dv=0
PairPos2: "'kern' Horizontal Kerning in Arabic lookup 2 per glyph data 2" uniFE8B dx=-200 dy=0 dh=-200 dv=0 dx=0 dy=0 dh=0 dv=0
PairPos2: "'kern' Horizontal Kerning in Arabic lookup 2 per glyph data 2" uniFE91 dx=-200 dy=0 dh=-200 dv=0 dx=0 dy=0 dh=0 dv=0
PairPos2: "'kern' Horizontal Kerning in Arabic lookup 2 per glyph data 2" uniFE97 dx=-200 dy=0 dh=-200 dv=0 dx=0 dy=0 dh=0 dv=0
PairPos2: "'kern' Horizontal Kerning in Arabic lookup 2 per glyph data 2" uniFE9B dx=-200 dy=0 dh=-200 dv=0 dx=0 dy=0 dh=0 dv=0
PairPos2: "'kern' Horizontal Kerning in Arabic lookup 2 per glyph data 2" uniFE9F dx=-134 dy=0 dh=-134 dv=0 dx=0 dy=0 dh=0 dv=0
PairPos2: "'kern' Horizontal Kerning in Arabic lookup 2 per glyph data 2" uniFEA3 dx=-134 dy=0 dh=-134 dv=0 dx=0 dy=0 dh=0 dv=0
PairPos2: "'kern' Horizontal Kerning in Arabic lookup 2 per glyph data 2" uniFEA7 dx=-134 dy=0 dh=-134 dv=0 dx=0 dy=0 dh=0 dv=0
PairPos2: "'kern' Horizontal Kerning in Arabic lookup 2 per glyph data 2" uniFEB3 dx=-234 dy=0 dh=-234 dv=0 dx=0 dy=0 dh=0 dv=0
PairPos2: "'kern' Horizontal Kerning in Arabic lookup 2 per glyph data 2" uniFEB7 dx=-234 dy=0 dh=-234 dv=0 dx=0 dy=0 dh=0 dv=0
PairPos2: "'kern' Horizontal Kerning in Arabic lookup 2 per glyph data 2" uniFEBB dx=-234 dy=0 dh=-234 dv=0 dx=0 dy=0 dh=0 dv=0
PairPos2: "'kern' Horizontal Kerning in Arabic lookup 2 per glyph data 2" uniFEBF dx=-234 dy=0 dh=-234 dv=0 dx=0 dy=0 dh=0 dv=0
PairPos2: "'kern' Horizontal Kerning in Arabic lookup 2 per glyph data 2" uniFEC3 dx=-234 dy=0 dh=-234 dv=0 dx=0 dy=0 dh=0 dv=0
PairPos2: "'kern' Horizontal Kerning in Arabic lookup 2 per glyph data 2" uniFEC7 dx=-234 dy=0 dh=-234 dv=0 dx=0 dy=0 dh=0 dv=0
PairPos2: "'kern' Horizontal Kerning in Arabic lookup 2 per glyph data 2" uniFECB dx=-234 dy=0 dh=-234 dv=0 dx=0 dy=0 dh=0 dv=0
PairPos2: "'kern' Horizontal Kerning in Arabic lookup 2 per glyph data 2" uniFECF dx=-234 dy=0 dh=-234 dv=0 dx=0 dy=0 dh=0 dv=0
PairPos2: "'kern' Horizontal Kerning in Arabic lookup 2 per glyph data 2" uniFED3 dx=-234 dy=0 dh=-234 dv=0 dx=0 dy=0 dh=0 dv=0
PairPos2: "'kern' Horizontal Kerning in Arabic lookup 2 per glyph data 2" uniFED7 dx=-234 dy=0 dh=-234 dv=0 dx=0 dy=0 dh=0 dv=0
PairPos2: "'kern' Horizontal Kerning in Arabic lookup 2 per glyph data 2" uniFEDB dx=-400 dy=0 dh=-400 dv=0 dx=0 dy=0 dh=0 dv=0
PairPos2: "'kern' Horizontal Kerning in Arabic lookup 2 per glyph data 2" uniFEDF dx=-234 dy=0 dh=-234 dv=0 dx=0 dy=0 dh=0 dv=0
PairPos2: "'kern' Horizontal Kerning in Arabic lookup 2 per glyph data 2" uniFEE3 dx=-234 dy=0 dh=-234 dv=0 dx=0 dy=0 dh=0 dv=0
PairPos2: "'kern' Horizontal Kerning in Arabic lookup 2 per glyph data 2" uniFEE7 dx=-234 dy=0 dh=-234 dv=0 dx=0 dy=0 dh=0 dv=0
PairPos2: "'kern' Horizontal Kerning in Arabic lookup 2 per glyph data 2" uniFEEB dx=-234 dy=0 dh=-234 dv=0 dx=0 dy=0 dh=0 dv=0
PairPos2: "'kern' Horizontal Kerning in Arabic lookup 2 per glyph data 2" uniFEF5 dx=-234 dy=0 dh=-234 dv=0 dx=0 dy=0 dh=0 dv=0
PairPos2: "'kern' Horizontal Kerning in Arabic lookup 2 per glyph data 2" uniFEF7 dx=-234 dy=0 dh=-234 dv=0 dx=0 dy=0 dh=0 dv=0
PairPos2: "'kern' Horizontal Kerning in Arabic lookup 2 per glyph data 2" uniFEF9 dx=-234 dy=0 dh=-234 dv=0 dx=0 dy=0 dh=0 dv=0
PairPos2: "'kern' Horizontal Kerning in Arabic lookup 2 per glyph data 2" uniFEFB dx=-234 dy=0 dh=-234 dv=0 dx=0 dy=0 dh=0 dv=0
PairPos2: "'kern' Horizontal Kerning in Arabic lookup 2 per glyph data 1" uni0639 dx=-90 dy=0 dh=-90 dv=0 dx=0 dy=0 dh=0 dv=0
PairPos2: "'kern' Horizontal Kerning in Arabic lookup 2 per glyph data 1" uni063A dx=-90 dy=0 dh=-90 dv=0 dx=0 dy=0 dh=0 dv=0
Colour: ffff
EndChar

StartChar: uni0633
Encoding: 1587 1587 83
Width: 2260
VWidth: 2279
Flags: HMW
AnchorPoint: "Anchor-1" 644 -563 basechar 0
AnchorPoint: "Anchor-3" 1542 533 basechar 0
LayerCount: 2
Fore
SplineSet
1730 420 m 0
 1730 369 1718 330 1718 275 c 0
 1718 215 1737 166 1760 141 c 0
 1781 119 1813 104 1867 104 c 0
 1916 104 1945 119 1968 145 c 0
 1993 173 2012 222 2012 298 c 0
 2012 389 1996 469 1976 544 c 0
 1974 551 1973 559 1973 566 c 0
 1973 610 2007 654 2060 654 c 0
 2099 654 2135 629 2145 590 c 0
 2167 509 2188 411 2188 298 c 0
 2188 194 2161 99 2100 29 c 0
 2043 -37 1958 -72 1867 -72 c 0
 1764 -72 1670 -31 1613 43 c 1
 1549 -37 1457 -68 1364 -68 c 0
 1306 -68 1254 -56 1207 -31 c 1
 1204 -324 1009 -560 644 -560 c 0
 270 -560 72 -338 72 -58 c 0
 72 91 115 247 175 392 c 0
 189 425 223 446 257 446 c 0
 310 446 343 402 343 358 c 0
 343 347 341 337 337 326 c 0
 283 195 248 57 248 -58 c 0
 248 -242 348 -386 644 -386 c 0
 922 -386 1032 -236 1032 -23 c 0
 1032 89 1005 220 956 351 c 0
 952 361 951 371 951 381 c 0
 951 425 984 469 1037 469 c 0
 1073 469 1107 447 1120 413 c 0
 1199 203 1247 108 1364 108 c 0
 1444 108 1480 122 1517 232 c 0
 1533 279 1546 361 1556 432 c 0
 1562 472 1599 507 1643 507 c 0
 1692 507 1730 467 1730 420 c 0
EndSplineSet
Substitution2: "'init' Initial Forms in Arabic lookup 6 subtable" uniFEB3
Substitution2: "'medi' Medial Forms in Arabic lookup 5 subtable" uniFEB4
Substitution2: "'fina' Terminal Forms in Arabic lookup 4 subtable" uniFEB2
Colour: ffff
EndChar

StartChar: uni066F
Encoding: 1647 1647 84
Width: 1439
VWidth: 2370
Flags: HMW
AnchorPoint: "Anchor-1" 710 -526 basechar 0
AnchorPoint: "Anchor-3" 987 823 basechar 0
LayerCount: 2
Fore
SplineSet
1191 141 m 1
 1183 375 1114 556 998 556 c 0
 910 556 810 436 810 260 c 0
 810 137 851 102 996 102 c 0
 1080 102 1139 116 1191 141 c 1
305 542 m 0
 357 542 391 498 391 454 c 0
 391 441 388 427 382 415 c 0
 293 242 248 84 248 -40 c 0
 248 -239 362 -378 717 -378 c 0
 1009 -378 1138 -259 1179 -50 c 1
 1123 -66 1062 -74 996 -74 c 0
 791 -74 636 35 636 260 c 0
 636 476 758 730 998 730 c 0
 1333 730 1366 294 1366 91 c 0
 1366 -304 1142 -554 717 -554 c 0
 304 -554 72 -351 72 -40 c 0
 72 124 129 306 226 495 c 0
 241 525 273 542 305 542 c 0
EndSplineSet
Substitution2: "'fina' Terminal Forms in Arabic lookup 4 subtable" uniE005
Colour: ffff
EndChar

StartChar: uni06BA
Encoding: 1722 1722 85
Width: 1384
VWidth: 2370
Flags: HMW
AnchorPoint: "Anchor-3" 692 493 basechar 0
AnchorPoint: "Anchor-1" 709 -476 basechar 0
LayerCount: 2
Back
SplineSet
251 404 m 17
 203 285 160 148 160 -2 c 0
 160 -298 390 -425 702 -425 c 0
 1019 -425 1224 -277 1224 27 c 0
 1224 188 1179 332 1127 459 c 1033
EndSplineSet
Fore
SplineSet
235 491 m 0
 288 491 321 447 321 403 c 0
 321 393 320 383 316 373 c 0
 272 260 248 116 248 16 c 0
 248 -206 361 -338 697 -338 c 0
 1036 -338 1136 -193 1136 23 c 0
 1136 143 1103 295 1048 425 c 0
 1043 436 1041 447 1041 458 c 0
 1041 502 1074 546 1127 546 c 0
 1161 546 1195 526 1209 493 c 0
 1273 343 1312 173 1312 23 c 0
 1312 -287 1110 -512 697 -512 c 0
 297 -512 72 -310 72 16 c 0
 72 142 100 298 152 435 c 0
 165 469 200 491 235 491 c 0
EndSplineSet
Colour: ffff
EndChar

StartChar: uni06A1
Encoding: 1697 1697 86
Width: 1719
VWidth: 2370
Flags: HMW
AnchorPoint: "Anchor-1" 811 -30 basechar 0
AnchorPoint: "Anchor-3" 1302 1200 basechar 0
LayerCount: 2
Fore
SplineSet
1469 516 m 1
 1453 819 1368 944 1280 944 c 0
 1170 944 1082 820 1082 658 c 0
 1082 530 1106 480 1259 480 c 0
 1329 480 1407 495 1469 516 c 1
194 657 m 0
 247 657 281 613 281 569 c 0
 281 561 279 554 277 546 c 0
 260 487 248 427 248 367 c 0
 248 164 489 98 829 98 c 0
 1160 98 1416 162 1462 332 c 1
 1398 316 1329 306 1259 306 c 0
 1010 306 906 466 906 658 c 0
 906 860 1022 1120 1280 1120 c 0
 1583 1120 1646 737 1646 406 c 0
 1646 -21 1172 -76 829 -76 c 0
 523 -76 72 -28 72 367 c 0
 72 451 90 527 109 594 c 0
 120 632 156 657 194 657 c 0
EndSplineSet
Substitution2: "'medi' Medial Forms in Arabic lookup 5 subtable" uniE006
Substitution2: "'fina' Terminal Forms in Arabic lookup 4 subtable" uniE005
Colour: ffff
EndChar

StartChar: uni0644
Encoding: 1604 1604 87
Width: 1296
VWidth: 2370
Flags: HMW
AnchorPoint: "Anchor-3" 510 596 basechar 0
AnchorPoint: "Anchor-1" 623 -526 basechar 0
LayerCount: 2
Fore
SplineSet
980 1211 m 0
 980 1257 1017 1298 1067 1298 c 0
 1112 1298 1151 1262 1154 1217 c 0
 1182 827 1204 498 1204 148 c 0
 1204 -215 1028 -512 622 -512 c 0
 238 -512 72 -298 72 -15 c 0
 72 133 122 286 177 397 c 0
 192 427 224 445 256 445 c 0
 308 445 342 401 342 357 c 0
 342 344 339 331 333 319 c 0
 288 230 248 93 248 -15 c 0
 248 -216 318 -336 622 -336 c 0
 912 -336 1028 -163 1028 148 c 0
 1028 490 1008 815 980 1205 c 0
 980 1207 980 1209 980 1211 c 0
EndSplineSet
Substitution2: "'init' Initial Forms in Arabic lookup 6 subtable" uniFEDF
Substitution2: "'medi' Medial Forms in Arabic lookup 5 subtable" uniFEE0
Substitution2: "'fina' Terminal Forms in Arabic lookup 4 subtable" uniFEDE
Colour: ffff
EndChar

StartChar: uni0645
Encoding: 1605 1605 88
Width: 1171
VWidth: 2370
Flags: HMW
AnchorPoint: "Anchor-3" 738 649 basechar 0
AnchorPoint: "Anchor-1" 614 -170 basechar 0
LayerCount: 2
Fore
SplineSet
489 157 m 1
 570 138 674 102 755 102 c 0
 867 102 924 143 924 278 c 0
 924 405 865 486 738 486 c 0
 608 486 524 303 501 187 c 0
 499 177 495 166 489 157 c 1
332 175 m 1
 327 190 326 206 329 221 c 0
 351 333 446 660 738 660 c 0
 977 660 1098 471 1098 278 c 0
 1098 53 947 -72 755 -72 c 0
 616 -72 506 -17 389 -2 c 0
 375 0 362 0 349 0 c 0
 294 0 248 -7 248 -184 c 2
 248 -207 l 1
 277 -749 l 1
 277 -754 l 2
 277 -801 239 -841 190 -841 c 0
 144 -841 106 -805 103 -759 c 2
 73 -214 l 2
 73 -212 72 -210 72 -209 c 2
 72 -184 l 2
 72 29 166 167 332 175 c 1
EndSplineSet
Substitution2: "'init' Initial Forms in Arabic lookup 6 subtable" uniFEE3
Substitution2: "'medi' Medial Forms in Arabic lookup 5 subtable" uniFEE4
Substitution2: "'fina' Terminal Forms in Arabic lookup 4 subtable" uniFEE2
Colour: ffff
EndChar

StartChar: uni0635
Encoding: 1589 1589 89
Width: 2305
VWidth: 2279
Flags: HMW
AnchorPoint: "Anchor-1" 589 -563 basechar 0
AnchorPoint: "Anchor-3" 1879 791 basechar 0
LayerCount: 2
Fore
SplineSet
1415 131 m 1
 1477 113 1554 102 1650 102 c 0
 1862 102 2058 215 2058 378 c 0
 2058 461 1990 522 1873 522 c 0
 1684 522 1538 383 1415 131 c 1
964 365 m 0
 964 409 998 453 1050 453 c 0
 1084 453 1118 434 1132 400 c 0
 1164 322 1205 258 1260 211 c 1
 1391 479 1583 698 1873 698 c 0
 2052 698 2232 583 2232 378 c 0
 2232 57 1892 -72 1650 -72 c 0
 1461 -72 1318 -37 1206 34 c 1
 1207 19 1206 7 1206 -7 c 0
 1206 -345 989 -560 589 -560 c 0
 345 -560 72 -430 72 -117 c 0
 72 70 157 267 260 428 c 0
 277 454 306 468 335 468 c 0
 386 468 421 425 421 380 c 0
 421 364 417 348 408 334 c 0
 316 191 248 16 248 -117 c 0
 248 -298 391 -386 589 -386 c 0
 917 -386 1032 -251 1032 -7 c 0
 1032 90 1011 208 968 339 c 0
 965 348 964 356 964 365 c 0
EndSplineSet
Substitution2: "'init' Initial Forms in Arabic lookup 6 subtable" uniFEBB
Substitution2: "'medi' Medial Forms in Arabic lookup 5 subtable" uniFEBC
Substitution2: "'fina' Terminal Forms in Arabic lookup 4 subtable" uniFEBA
Colour: ffff
EndChar

StartChar: uni0648
Encoding: 1608 1608 90
Width: 898
VWidth: 2370
Flags: HMW
AnchorPoint: "Anchor-1" 504 -437 basechar 0
AnchorPoint: "Anchor-3" 464 721 basechar 0
LayerCount: 2
Fore
SplineSet
650 120 m 1
 647 353 572 558 464 558 c 0
 405 558 312 462 312 260 c 0
 312 144 351 102 472 102 c 0
 508 102 552 108 604 121 c 0
 619 125 635 125 650 120 c 1
201 -548 m 0
 156 -548 113 -513 113 -461 c 0
 113 -420 142 -383 184 -375 c 0
 441 -327 582 -233 631 -52 c 1
 574 -65 522 -72 472 -72 c 0
 267 -72 136 60 136 260 c 0
 136 484 241 734 464 734 c 0
 783 734 826 306 826 108 c 0
 826 -304 567 -481 216 -547 c 0
 211 -548 206 -548 201 -548 c 0
EndSplineSet
PairPos2: "'kern' Horizontal Kerning in Arabic lookup 2 per glyph data 4" uni0625 dx=223 dy=0 dh=223 dv=0 dx=0 dy=0 dh=0 dv=0
Substitution2: "'fina' Terminal Forms in Arabic lookup 4 subtable" uniFEEE
PairPos2: "'kern' Horizontal Kerning in Arabic lookup 2 per glyph data 3" uni06A9 dx=-233 dy=0 dh=-233 dv=0 dx=0 dy=0 dh=0 dv=0
PairPos2: "'kern' Horizontal Kerning in Arabic lookup 2 per glyph data 3" uni06AF dx=-233 dy=0 dh=-233 dv=0 dx=0 dy=0 dh=0 dv=0
PairPos2: "'kern' Horizontal Kerning in Arabic lookup 2 per glyph data 3" uniFB90 dx=-233 dy=0 dh=-233 dv=0 dx=0 dy=0 dh=0 dv=0
PairPos2: "'kern' Horizontal Kerning in Arabic lookup 2 per glyph data 3" uniFB94 dx=-233 dy=0 dh=-233 dv=0 dx=0 dy=0 dh=0 dv=0
PairPos2: "'kern' Horizontal Kerning in Arabic lookup 2 per glyph data 3" uniFEDB dx=-233 dy=0 dh=-233 dv=0 dx=0 dy=0 dh=0 dv=0
Colour: ffff
EndChar

StartChar: uni0637
Encoding: 1591 1591 91
Width: 1511
VWidth: 2370
Flags: HMW
AnchorPoint: "Anchor-3" 1135 781 basechar 0
AnchorPoint: "Anchor-1" 397 -30 basechar 0
LayerCount: 2
Fore
SplineSet
540 114 m 1
 600 108 661 106 723 106 c 0
 971 106 1264 264 1264 439 c 0
 1264 533 1188 606 1077 606 c 0
 869 606 653 368 540 114 c 1
301 -74 m 0
 301 -58 305 -44 308 -29 c 1
 251 -18 194 -4 137 11 c 0
 98 21 73 58 73 96 c 0
 73 149 117 182 161 182 c 0
 168 182 176 181 183 179 c 0
 233 165 284 154 334 144 c 1
 352 298 360 471 360 628 c 0
 360 872 349 1047 332 1202 c 0
 332 1205 332 1208 332 1211 c 0
 332 1257 369 1298 419 1298 c 0
 463 1298 501 1264 506 1220 c 0
 523 1059 534 878 534 628 c 0
 534 568 533 507 531 445 c 1
 662 622 849 780 1077 780 c 0
 1268 780 1438 643 1438 439 c 0
 1438 88 991 -70 723 -70 c 0
 641 -70 560 -65 481 -56 c 1
 478 -68 476 -80 474 -92 c 0
 466 -134 428 -162 387 -162 c 0
 334 -162 301 -117 301 -74 c 0
EndSplineSet
Substitution2: "'init' Initial Forms in Arabic lookup 6 subtable" uniFEC3
Substitution2: "'medi' Medial Forms in Arabic lookup 5 subtable" uniFEC4
Substitution2: "'fina' Terminal Forms in Arabic lookup 4 subtable" uniFEC2
Colour: ffff
EndChar

StartChar: uni06A9
Encoding: 1705 1705 92
Width: 1870
VWidth: 2370
Flags: HMW
AnchorPoint: "Anchor-3" 1305 1197 basechar 0
AnchorPoint: "Anchor-1" 768 -65 basechar 0
LayerCount: 2
Fore
SplineSet
1709 1398 m 0
 1753 1398 1797 1364 1797 1312 c 0
 1797 1279 1780 1247 1749 1232 c 2
 1122 925 l 1
 1287 751 1476 538 1476 303 c 0
 1476 8 1179 -72 768 -72 c 0
 411 -72 72 -11 72 340 c 0
 72 403 83 473 106 551 c 0
 117 589 153 613 191 613 c 0
 244 613 278 569 278 525 c 0
 278 517 276 509 274 501 c 0
 255 437 248 383 248 340 c 0
 248 163 389 102 768 102 c 0
 1201 102 1300 186 1300 303 c 0
 1300 468 1104 695 913 890 c 0
 901 902 889 928 889 950 c 0
 889 982 906 1015 937 1030 c 2
 1671 1390 l 2
 1683 1396 1696 1398 1709 1398 c 0
EndSplineSet
Substitution2: "'init' Initial Forms in Arabic lookup 6 subtable" uniFB90
Substitution2: "'medi' Medial Forms in Arabic lookup 5 subtable" uniFB91
Substitution2: "'fina' Terminal Forms in Arabic lookup 4 subtable" uniFB8F
Colour: ffff
EndChar

StartChar: uni062F
Encoding: 1583 1583 93
Width: 900
VWidth: 2370
Flags: HMW
AnchorPoint: "Anchor-3" 493 976 basechar 0
AnchorPoint: "Anchor-1" 377 -30 basechar 0
LayerCount: 2
Fore
SplineSet
329 771 m 0
 329 819 369 858 416 858 c 0
 437 858 458 851 474 836 c 0
 610 715 828 507 828 245 c 0
 828 31 610 -72 397 -72 c 0
 314 -72 224 -59 132 -28 c 0
 96 -16 73 19 73 56 c 0
 73 109 117 142 161 142 c 0
 170 142 179 141 188 138 c 0
 262 113 334 102 397 102 c 0
 578 102 652 183 652 245 c 0
 652 407 494 585 358 706 c 0
 339 723 329 747 329 771 c 0
EndSplineSet
Substitution2: "'fina' Terminal Forms in Arabic lookup 4 subtable" uniFEAA
PairPos2: "'kern' Horizontal Kerning in Arabic lookup 2 per glyph data 3" uni06A9 dx=-267 dy=0 dh=-267 dv=0 dx=0 dy=0 dh=0 dv=0
PairPos2: "'kern' Horizontal Kerning in Arabic lookup 2 per glyph data 3" uni06AF dx=-267 dy=0 dh=-267 dv=0 dx=0 dy=0 dh=0 dv=0
PairPos2: "'kern' Horizontal Kerning in Arabic lookup 2 per glyph data 3" uniFB90 dx=-267 dy=0 dh=-267 dv=0 dx=0 dy=0 dh=0 dv=0
PairPos2: "'kern' Horizontal Kerning in Arabic lookup 2 per glyph data 3" uniFB94 dx=-267 dy=0 dh=-267 dv=0 dx=0 dy=0 dh=0 dv=0
PairPos2: "'kern' Horizontal Kerning in Arabic lookup 2 per glyph data 3" uniFEDB dx=-267 dy=0 dh=-267 dv=0 dx=0 dy=0 dh=0 dv=0
PairPos2: "'kern' Horizontal Kerning in Arabic lookup 2 per glyph data 1" uni0639 dx=-334 dy=0 dh=-334 dv=0 dx=0 dy=0 dh=0 dv=0
PairPos2: "'kern' Horizontal Kerning in Arabic lookup 2 per glyph data 1" uni063A dx=-334 dy=0 dh=-334 dv=0 dx=0 dy=0 dh=0 dv=0
Colour: ffff
EndChar

StartChar: uni062D
Encoding: 1581 1581 94
Width: 1252
VWidth: 2370
Flags: HMW
AnchorPoint: "Anchor-3" 444 811 basechar 0
AnchorPoint: "Anchor-1" 709 -714 basechar 0
LayerCount: 2
Fore
SplineSet
1087 -409 m 0
 1131 -409 1175 -443 1175 -495 c 0
 1175 -527 1158 -557 1129 -573 c 0
 995 -644 844 -680 693 -680 c 0
 414 -680 72 -546 72 -201 c 0
 72 225 539 436 815 527 c 1
 686 595 525 678 433 678 c 0
 369 678 314 657 264 514 c 0
 251 478 216 456 180 456 c 0
 127 456 94 500 94 544 c 0
 94 553 96 563 99 572 c 0
 165 759 287 852 433 852 c 0
 585 852 731 769 861 700 c 0
 958 648 1049 604 1109 592 c 0
 1147 584 1179 551 1179 506 c 0
 1179 463 1146 424 1102 419 c 0
 970 404 248 203 248 -201 c 0
 248 -394 442 -506 693 -506 c 0
 816 -506 939 -476 1047 -419 c 0
 1060 -412 1073 -409 1087 -409 c 0
EndSplineSet
Substitution2: "'init' Initial Forms in Arabic lookup 6 subtable" uniFEA3
Substitution2: "'medi' Medial Forms in Arabic lookup 5 subtable" uniFEA4
Substitution2: "'fina' Terminal Forms in Arabic lookup 4 subtable" uniFEA2
Colour: ffff
EndChar

StartChar: uni0639
Encoding: 1593 1593 95
Width: 1275
VWidth: 2370
Flags: HMW
AnchorPoint: "Anchor-3" 640 1199 basechar 0
AnchorPoint: "Anchor-1" 717 -699 basechar 0
LayerCount: 2
Fore
SplineSet
886 554 m 0
 926 554 973 520 973 467 c 0
 973 421 937 382 890 380 c 0
 804 376 745 365 672 339 c 0
 442 256 248 59 248 -172 c 0
 248 -398 441 -512 717 -512 c 0
 847 -512 979 -480 1075 -431 c 0
 1087 -425 1101 -422 1114 -422 c 0
 1158 -422 1202 -456 1202 -508 c 0
 1202 -540 1185 -572 1155 -587 c 0
 1029 -652 873 -686 717 -686 c 0
 407 -686 72 -540 72 -172 c 0
 72 84 234 289 428 413 c 1
 296 465 196 579 196 745 c 0
 196 997 412 1182 632 1182 c 0
 744 1182 845 1138 917 1061 c 0
 932 1044 940 1022 940 1001 c 0
 940 954 901 914 853 914 c 0
 829 914 806 923 789 941 c 0
 751 982 698 1006 632 1006 c 0
 504 1006 370 891 370 745 c 0
 370 622 454 559 634 546 c 0
 651 545 669 544 687 544 c 0
 751 544 822 554 886 554 c 0
EndSplineSet
PairPos2: "'kern' Horizontal Kerning in Arabic lookup 2 per glyph data 2" uniFEEE dx=-100 dy=0 dh=-100 dv=0 dx=0 dy=0 dh=0 dv=0
PairPos2: "'kern' Horizontal Kerning in Arabic lookup 2 per glyph data 2" uniFE86 dx=-100 dy=0 dh=-100 dv=0 dx=0 dy=0 dh=0 dv=0
PairPos2: "'kern' Horizontal Kerning in Arabic lookup 2 per glyph data 2" uni06CA dx=-100 dy=0 dh=-100 dv=0 dx=0 dy=0 dh=0 dv=0
PairPos2: "'kern' Horizontal Kerning in Arabic lookup 2 per glyph data 2" uni0648 dx=-100 dy=0 dh=-100 dv=0 dx=0 dy=0 dh=0 dv=0
PairPos2: "'kern' Horizontal Kerning in Arabic lookup 2 per glyph data 2" uni0624 dx=-100 dy=0 dh=-100 dv=0 dx=0 dy=0 dh=0 dv=0
Substitution2: "'init' Initial Forms in Arabic lookup 6 subtable" uniFECB
Substitution2: "'medi' Medial Forms in Arabic lookup 5 subtable" uniFECC
Substitution2: "'fina' Terminal Forms in Arabic lookup 4 subtable" uniFECA
Colour: ffff
EndChar

StartChar: uni0622
Encoding: 1570 1570 97
Width: 522
VWidth: 1839
Flags: HMW
AnchorPoint: "Anchor-3" 342 1626 basechar 0
AnchorPoint: "Anchor-1" 220 0 basechar 0
LayerCount: 2
Fore
SplineSet
193 1146 m 0
 193 1191 229 1233 280 1233 c 0
 323 1233 361 1201 367 1158 c 0
 397 938 412 706 412 468 c 0
 412 311 404 153 391 -6 c 0
 387 -51 349 -86 304 -86 c 0
 254 -86 217 -45 217 1 c 2
 217 8 l 1
 230 163 236 317 236 468 c 0
 236 698 221 922 193 1134 c 0
 192 1138 193 1142 193 1146 c 0
-91 1350 m 0
 -144 1350 -177 1394 -177 1438 c 0
 -177 1448 -176 1458 -172 1468 c 0
 -107 1637 7 1768 179 1768 c 0
 260 1768 343 1740 429 1686 c 0
 485 1651 536 1626 602 1626 c 0
 639 1626 678 1635 678 1736 c 0
 678 1784 717 1823 765 1823 c 0
 813 1823 853 1784 853 1736 c 0
 853 1555 735 1450 602 1450 c 0
 488 1450 399 1497 335 1538 c 0
 269 1580 218 1594 179 1594 c 0
 111 1594 47 1549 -8 1406 c 0
 -21 1372 -56 1350 -91 1350 c 0
EndSplineSet
PairPos2: "'kern' Horizontal Kerning in Arabic lookup 2 per glyph data 0" uni0622 dx=300 dy=0 dh=300 dv=0 dx=0 dy=0 dh=0 dv=0
PairPos2: "'kern' Horizontal Kerning in Arabic lookup 2 per glyph data 0" uniE00A dx=300 dy=0 dh=300 dv=0 dx=0 dy=0 dh=0 dv=0
PairPos2: "'kern' Horizontal Kerning in Arabic lookup 2 per glyph data 0" bracketleft dx=250 dy=0 dh=250 dv=0 dx=0 dy=0 dh=0 dv=0
PairPos2: "'kern' Horizontal Kerning in Arabic lookup 2 per glyph data 0" braceleft dx=250 dy=0 dh=250 dv=0 dx=0 dy=0 dh=0 dv=0
PairPos2: "'kern' Horizontal Kerning in Arabic lookup 2 per glyph data 0" parenleft dx=250 dy=0 dh=250 dv=0 dx=0 dy=0 dh=0 dv=0
Substitution2: "Single Substitution 1 subtable" uniE00A
PairPos2: "'kern' Horizontal Kerning in Arabic lookup 2 per glyph data 0" uni063A dx=-267 dy=0 dh=-267 dv=0 dx=0 dy=0 dh=0 dv=0
PairPos2: "'kern' Horizontal Kerning in Arabic lookup 2 per glyph data 0" uni0639 dx=-267 dy=0 dh=-267 dv=0 dx=0 dy=0 dh=0 dv=0
Ligature2: "'liga' Standard Ligatures in Arabic lookup 10 subtable" uni0627 uni0653
Substitution2: "'fina' Terminal Forms in Arabic lookup 4 subtable" uniFE82
PairPos2: "'kern' Horizontal Kerning in Arabic lookup 2 per glyph data 1" uni0639 dx=-200 dy=0 dh=-200 dv=0 dx=0 dy=0 dh=0 dv=0
PairPos2: "'kern' Horizontal Kerning in Arabic lookup 2 per glyph data 1" uni063A dx=-200 dy=0 dh=-200 dv=0 dx=0 dy=0 dh=0 dv=0
LCarets2: 1 0
Colour: ffff
EndChar

StartChar: uni0647
Encoding: 1607 1607 113
Width: 865
VWidth: 2370
Flags: HMW
AnchorPoint: "Anchor-1" 233 59 basechar 0
AnchorPoint: "Anchor-3" 376 976 basechar 0
LayerCount: 2
Fore
SplineSet
432 613 m 1
 315 491 248 333 248 242 c 0
 248 172 300 102 429 102 c 0
 560 102 618 170 618 257 c 0
 618 333 554 472 432 613 c 1
248 833 m 0
 248 882 289 920 335 920 c 0
 355 920 376 913 392 899 c 0
 430 866 466 833 499 799 c 0
 671 623 792 428 792 257 c 0
 792 62 634 -72 429 -72 c 0
 226 -72 72 60 72 242 c 0
 72 401 167 590 310 738 c 1
 283 762 248 788 248 833 c 0
EndSplineSet
Substitution2: "'init' Initial Forms in Arabic lookup 6 subtable" uniFEEB
Substitution2: "'medi' Medial Forms in Arabic lookup 5 subtable" uniFEEC
Substitution2: "'fina' Terminal Forms in Arabic lookup 4 subtable" uniFEEA
Colour: ffff
EndChar

StartChar: uniFEB3
Encoding: 65203 65203 114
Width: 1545
VWidth: 2370
Flags: HMW
AnchorPoint: "Anchor-1" 844 0 basechar 0
AnchorPoint: "Anchor-3" 908 535 basechar 0
LayerCount: 2
Fore
SplineSet
583 -62 m 0
 471 -62 380 0 332 85 c 1
 253 2 139 -42 0 -42 c 0
 -48 -42 -87 -3 -87 45 c 0
 -87 93 -48 132 0 132 c 0
 196 132 261 240 292 402 c 0
 295 430 299 459 304 495 c 0
 310 538 350 569 392 569 c 0
 447 569 478 519 478 480 c 0
 478 445 472 411 466 378 c 0
 463 347 462 319 462 275 c 0
 462 184 498 112 583 112 c 0
 687 112 750 182 791 308 c 0
 812 371 817 428 829 502 c 0
 836 545 874 575 916 575 c 0
 971 575 1002 525 1002 486 c 0
 1002 451 994 428 994 387 c 0
 994 294 1015 200 1048 158 c 0
 1071 129 1099 114 1148 114 c 0
 1219 114 1247 133 1265 154 c 0
 1284 177 1298 221 1298 286 c 0
 1298 388 1272 486 1240 594 c 0
 1238 602 1237 610 1237 618 c 0
 1237 662 1270 706 1323 706 c 0
 1361 706 1397 682 1408 644 c 0
 1440 534 1472 418 1472 286 c 0
 1472 202 1458 113 1399 42 c 0
 1342 -26 1254 -60 1148 -60 c 0
 1031 -60 932 2 880 96 c 1
 817 6 716 -62 583 -62 c 0
EndSplineSet
Colour: ffff
EndChar

StartChar: uniFEB4
Encoding: 65204 65204 115
Width: 1767
VWidth: 2370
Flags: HMW
AnchorPoint: "Anchor-3" 900 535 basechar 0
AnchorPoint: "Anchor-1" 858 0 basechar 0
LayerCount: 2
Fore
SplineSet
1030 490 m 0
 1030 460 1028 430 1028 399 c 0
 1028 297 1049 213 1082 168 c 0
 1106 135 1134 118 1189 118 c 0
 1239 118 1267 134 1294 171 c 0
 1329 220 1354 310 1354 419 c 0
 1354 437 1353 456 1352 478 c 2
 1347 564 l 2
 1345 604 1378 656 1434 656 c 0
 1477 656 1516 624 1521 579 c 0
 1569 138 1600 132 1767 132 c 0
 1815 132 1854 93 1854 45 c 0
 1854 -3 1815 -42 1767 -42 c 0
 1642 -42 1527 -13 1457 100 c 1
 1404 9 1310 -58 1189 -58 c 0
 1062 -58 967 11 915 106 c 1
 853 10 751 -62 612 -62 c 0
 496 -62 403 -5 357 88 c 1
 272 -5 150 -42 0 -42 c 0
 -48 -42 -87 -3 -87 45 c 0
 -87 93 -48 132 0 132 c 0
 234 132 293 214 318 501 c 0
 322 544 359 580 405 580 c 0
 453 580 492 540 492 493 c 0
 492 454 486 382 486 344 c 0
 486 239 504 173 526 145 c 0
 540 127 559 114 612 114 c 0
 765 114 823 271 856 502 c 0
 861 535 895 577 943 577 c 0
 991 577 1030 537 1030 490 c 0
EndSplineSet
Colour: ffff
EndChar

StartChar: uniFEB2
Encoding: 65202 65202 116
Width: 2402
VWidth: 2370
Flags: HMW
AnchorPoint: "Anchor-3" 1607 559 basechar 0
AnchorPoint: "Anchor-1" 644 -564 basechar 0
LayerCount: 2
Fore
SplineSet
1966 512 m 0
 1966 555 1999 600 2052 600 c 0
 2093 600 2131 571 2139 529 c 0
 2155 447 2171 353 2190 295 c 0
 2229 172 2265 132 2402 132 c 0
 2450 132 2490 93 2490 45 c 0
 2490 -3 2450 -42 2402 -42 c 0
 2281 -42 2180 -6 2112 72 c 1
 2066 -14 1979 -72 1866 -72 c 0
 1768 -72 1679 -37 1625 36 c 1
 1559 -41 1466 -68 1371 -68 c 0
 1313 -68 1258 -54 1207 -25 c 1
 1206 -320 1012 -560 644 -560 c 0
 270 -560 72 -338 72 -58 c 0
 72 91 115 247 175 392 c 0
 189 425 223 446 257 446 c 0
 310 446 343 402 343 358 c 0
 343 347 341 337 337 326 c 0
 283 195 248 57 248 -58 c 0
 248 -242 348 -386 644 -386 c 0
 922 -386 1032 -236 1032 -23 c 0
 1032 89 1005 220 956 351 c 0
 952 361 951 371 951 381 c 0
 951 425 984 469 1037 469 c 0
 1073 469 1107 448 1120 413 c 0
 1210 172 1279 108 1371 108 c 0
 1462 108 1498 124 1535 232 c 0
 1551 279 1565 360 1575 432 c 0
 1581 472 1618 507 1662 507 c 0
 1711 507 1749 467 1749 420 c 0
 1749 401 1745 382 1743 364 c 0
 1739 330 1738 300 1738 265 c 0
 1738 206 1754 154 1771 134 c 0
 1785 118 1808 104 1866 104 c 0
 1918 104 1937 119 1954 147 c 0
 1973 179 1986 240 1986 309 c 0
 1986 369 1977 440 1967 498 c 0
 1966 502 1966 507 1966 512 c 0
EndSplineSet
Colour: ffff
EndChar

StartChar: uniFE8E
Encoding: 65166 65166 134
Width: 551
VWidth: 2370
Flags: HMW
AnchorPoint: "Anchor-3" 213 1211 basechar 0
AnchorPoint: "Anchor-1" 337 0 basechar 0
LayerCount: 2
Fore
SplineSet
213 1298 m 0
 262 1298 300 1258 300 1211 c 0
 300 996 288 748 288 555 c 2
 288 400 l 2
 291 283 304 218 330 188 c 0
 352 162 406 132 551 132 c 0
 599 132 639 93 639 45 c 0
 639 -3 599 -42 551 -42 c 0
 390 -42 272 -12 198 74 c 0
 120 164 117 281 114 396 c 0
 113 444 112 497 112 555 c 0
 112 749 118 998 126 1214 c 0
 128 1261 167 1298 213 1298 c 0
EndSplineSet
PairPos2: "'kern' Horizontal Kerning in Arabic lookup 2 per glyph data 1" uni0639 dx=-200 dy=0 dh=-200 dv=0 dx=0 dy=0 dh=0 dv=0
PairPos2: "'kern' Horizontal Kerning in Arabic lookup 2 per glyph data 1" uni063A dx=-200 dy=0 dh=-200 dv=0 dx=0 dy=0 dh=0 dv=0
Colour: ffff
EndChar

StartChar: uniFEA2
Encoding: 65186 65186 142
Width: 1332
VWidth: 1255
Flags: HMW
AnchorPoint: "Anchor-3" 449 811 basechar 0
AnchorPoint: "Anchor-1" 714 -744 basechar 0
LayerCount: 2
Fore
SplineSet
1420 45 m 0
 1420 -3 1380 -42 1332 -42 c 0
 1041 -42 805 134 805 458 c 0
 805 506 844 545 892 545 c 0
 940 545 980 506 980 458 c 0
 980 238 1113 132 1332 132 c 0
 1380 132 1420 93 1420 45 c 0
EndSplineSet
Refer: 94 1581 N 1 0 0 1 0 0 2
Colour: ffff
EndChar

StartChar: uniFEA3
Encoding: 65187 65187 143
Width: 1302
VWidth: 2370
Flags: HMW
AnchorPoint: "Anchor-1" 609 0 basechar 0
AnchorPoint: "Anchor-3" 424 811 basechar 0
LayerCount: 2
Fore
SplineSet
149 445 m 0
 96 445 63 489 63 533 c 0
 63 540 63 547 65 554 c 0
 115 746 264 854 415 854 c 0
 560 854 710 761 858 677 c 0
 968 615 1078 554 1169 524 c 0
 1206 512 1229 477 1229 440 c 0
 1229 393 1192 361 1157 355 c 0
 1052 336 944 277 817 205 c 0
 616 90 353 -42 0 -42 c 0
 -48 -42 -87 -3 -87 45 c 0
 -87 93 -48 132 0 132 c 0
 308 132 536 246 731 357 c 0
 789 390 846 422 905 451 c 1
 861 474 815 500 772 525 c 0
 620 611 482 680 415 680 c 0
 350 680 267 634 235 510 c 0
 225 471 188 445 149 445 c 0
EndSplineSet
Colour: ffff
EndChar

StartChar: uniFEA4
Encoding: 65188 65188 144
Width: 1351
VWidth: 1373
Flags: HMW
AnchorPoint: "Anchor-3" 396 811 basechar 0
AnchorPoint: "Anchor-1" 510 0 basechar 0
LayerCount: 2
Fore
SplineSet
953 464 m 0
 1001 464 1040 425 1040 377 c 0
 1040 229 1150 132 1351 132 c 0
 1399 132 1439 93 1439 45 c 0
 1439 -3 1399 -42 1351 -42 c 0
 1090 -42 866 109 866 377 c 0
 866 425 905 464 953 464 c 0
EndSplineSet
Refer: 143 65187 N 1 0 0 1 0 0 2
Colour: ffff
EndChar

StartChar: uniFEAA
Encoding: 65194 65194 148
Width: 1120
VWidth: 1437
Flags: HMW
AnchorPoint: "Anchor-1" 391 -106 basechar 0
AnchorPoint: "Anchor-3" 587 877 basechar 0
LayerCount: 2
Fore
SplineSet
498 780 m 0
 498 824 532 868 584 868 c 0
 616 868 648 850 663 820 c 0
 734 679 775 584 832 430 c 0
 893 258 947 132 1120 132 c 0
 1168 132 1208 93 1208 45 c 0
 1208 -3 1168 -42 1120 -42 c 0
 970 -42 871 19 802 103 c 1
 717 -25 546 -72 389 -72 c 0
 302 -72 214 -59 129 -27 c 0
 94 -14 73 21 73 56 c 0
 73 109 117 142 161 142 c 0
 171 142 181 141 191 137 c 0
 254 113 320 102 389 102 c 0
 580 102 680 165 680 297 c 0
 680 337 668 363 658 391 c 0
 610 532 575 606 507 742 c 0
 501 754 498 767 498 780 c 0
EndSplineSet
PairPos2: "'kern' Horizontal Kerning in Arabic lookup 2 per glyph data 3" uni06A9 dx=-267 dy=0 dh=-267 dv=0 dx=0 dy=0 dh=0 dv=0
PairPos2: "'kern' Horizontal Kerning in Arabic lookup 2 per glyph data 3" uni06AF dx=-267 dy=0 dh=-267 dv=0 dx=0 dy=0 dh=0 dv=0
PairPos2: "'kern' Horizontal Kerning in Arabic lookup 2 per glyph data 3" uniFB90 dx=-267 dy=0 dh=-267 dv=0 dx=0 dy=0 dh=0 dv=0
PairPos2: "'kern' Horizontal Kerning in Arabic lookup 2 per glyph data 3" uniFB94 dx=-267 dy=0 dh=-267 dv=0 dx=0 dy=0 dh=0 dv=0
PairPos2: "'kern' Horizontal Kerning in Arabic lookup 2 per glyph data 3" uniFEDB dx=-267 dy=0 dh=-267 dv=0 dx=0 dy=0 dh=0 dv=0
PairPos2: "'kern' Horizontal Kerning in Arabic lookup 2 per glyph data 1" uni0639 dx=-334 dy=0 dh=-334 dv=0 dx=0 dy=0 dh=0 dv=0
PairPos2: "'kern' Horizontal Kerning in Arabic lookup 2 per glyph data 1" uni063A dx=-334 dy=0 dh=-334 dv=0 dx=0 dy=0 dh=0 dv=0
Colour: ffff
EndChar

StartChar: uniFEAE
Encoding: 65198 65198 150
Width: 907
VWidth: 2234
Flags: HMW
AnchorPoint: "Anchor-1" 493 -394 basechar 0
AnchorPoint: "Anchor-3" 462 566 basechar 0
LayerCount: 2
Fore
SplineSet
415 483 m 0
 415 528 449 571 501 571 c 0
 585 571 595 479 611 410 c 0
 636 316 655 247 705 195 c 0
 740 158 791 132 907 132 c 0
 955 132 994 93 994 45 c 0
 994 -3 955 -42 907 -42 c 0
 806 -42 721 -25 652 15 c 1
 632 -238 471 -431 192 -539 c 0
 182 -543 171 -544 161 -544 c 0
 117 -544 73 -511 73 -458 c 0
 73 -423 95 -388 129 -375 c 0
 381 -278 480 -130 480 71 c 0
 480 214 447 340 417 464 c 0
 415 471 415 476 415 483 c 0
EndSplineSet
PairPos2: "'kern' Horizontal Kerning in Arabic lookup 2 per glyph data 2" uniE01B dx=-150 dy=0 dh=-150 dv=0 dx=0 dy=0 dh=0 dv=0
PairPos2: "'kern' Horizontal Kerning in Arabic lookup 2 per glyph data 2" uniE019 dx=-150 dy=0 dh=-150 dv=0 dx=0 dy=0 dh=0 dv=0
PairPos2: "'kern' Horizontal Kerning in Arabic lookup 2 per glyph data 2" uniE017 dx=-150 dy=0 dh=-150 dv=0 dx=0 dy=0 dh=0 dv=0
Substitution2: "Single Substitution 1 subtable" uniE018
PairPos2: "'kern' Horizontal Kerning in Arabic lookup 2 per glyph data 0" period dx=-250 dy=0 dh=-250 dv=0 dx=0 dy=0 dh=0 dv=0
PairPos2: "'kern' Horizontal Kerning in Arabic lookup 2 per glyph data 0" uni060C dx=-250 dy=0 dh=-250 dv=0 dx=0 dy=0 dh=0 dv=0
PairPos2: "'kern' Horizontal Kerning in Arabic lookup 2 per glyph data 0" uni061B dx=-250 dy=0 dh=-250 dv=0 dx=0 dy=0 dh=0 dv=0
PairPos2: "'kern' Horizontal Kerning in Arabic lookup 2 per glyph data 0" parenleft dx=-250 dy=0 dh=-250 dv=0 dx=0 dy=0 dh=0 dv=0
PairPos2: "'kern' Horizontal Kerning in Arabic lookup 2 per glyph data 0" braceleft dx=-250 dy=0 dh=-250 dv=0 dx=0 dy=0 dh=0 dv=0
PairPos2: "'kern' Horizontal Kerning in Arabic lookup 2 per glyph data 0" bracketleft dx=-250 dy=0 dh=-250 dv=0 dx=0 dy=0 dh=0 dv=0
PairPos2: "'kern' Horizontal Kerning in Arabic lookup 2 per glyph data 5" space dx=-342 dy=0 dh=-342 dv=0 dx=0 dy=0 dh=0 dv=0
PairPos2: "'kern' Horizontal Kerning in Arabic lookup 2 per glyph data 2" uni0626 dx=-50 dy=0 dh=-50 dv=0 dx=0 dy=0 dh=0 dv=0
PairPos2: "'kern' Horizontal Kerning in Arabic lookup 2 per glyph data 2" uni064A dx=-50 dy=0 dh=-50 dv=0 dx=0 dy=0 dh=0 dv=0
PairPos2: "'kern' Horizontal Kerning in Arabic lookup 2 per glyph data 2" uni0649 dx=-50 dy=0 dh=-50 dv=0 dx=0 dy=0 dh=0 dv=0
PairPos2: "'kern' Horizontal Kerning in Arabic lookup 2 per glyph data 2" uni06CC dx=-50 dy=0 dh=-50 dv=0 dx=0 dy=0 dh=0 dv=0
PairPos2: "'kern' Horizontal Kerning in Arabic lookup 2 per glyph data 2" uniFBFE dx=-40 dy=0 dh=-40 dv=0 dx=0 dy=0 dh=0 dv=0
PairPos2: "'kern' Horizontal Kerning in Arabic lookup 2 per glyph data 2" uniFEF3 dx=-40 dy=0 dh=-40 dv=0 dx=0 dy=0 dh=0 dv=0
PairPos2: "'kern' Horizontal Kerning in Arabic lookup 2 per glyph data 2" uniFB58 dx=-40 dy=0 dh=-40 dv=0 dx=0 dy=0 dh=0 dv=0
PairPos2: "'kern' Horizontal Kerning in Arabic lookup 2 per glyph data 3" uni06A9 dx=-267 dy=0 dh=-267 dv=0 dx=0 dy=0 dh=0 dv=0
PairPos2: "'kern' Horizontal Kerning in Arabic lookup 2 per glyph data 3" uni06AF dx=-267 dy=0 dh=-267 dv=0 dx=0 dy=0 dh=0 dv=0
PairPos2: "'kern' Horizontal Kerning in Arabic lookup 2 per glyph data 3" uniFB90 dx=-267 dy=0 dh=-267 dv=0 dx=0 dy=0 dh=0 dv=0
PairPos2: "'kern' Horizontal Kerning in Arabic lookup 2 per glyph data 3" uniFB94 dx=-267 dy=0 dh=-267 dv=0 dx=0 dy=0 dh=0 dv=0
PairPos2: "'kern' Horizontal Kerning in Arabic lookup 2 per glyph data 3" uniFEDB dx=-267 dy=0 dh=-267 dv=0 dx=0 dy=0 dh=0 dv=0
PairPos2: "'kern' Horizontal Kerning in Arabic lookup 2 per glyph data 2" uni0622 dx=-167 dy=0 dh=-167 dv=0 dx=0 dy=0 dh=0 dv=0
PairPos2: "'kern' Horizontal Kerning in Arabic lookup 2 per glyph data 2" uni0623 dx=-167 dy=0 dh=-167 dv=0 dx=0 dy=0 dh=0 dv=0
PairPos2: "'kern' Horizontal Kerning in Arabic lookup 2 per glyph data 2" uni0624 dx=-133 dy=0 dh=-133 dv=0 dx=0 dy=0 dh=0 dv=0
PairPos2: "'kern' Horizontal Kerning in Arabic lookup 2 per glyph data 2" uni0627 dx=-167 dy=0 dh=-167 dv=0 dx=0 dy=0 dh=0 dv=0
PairPos2: "'kern' Horizontal Kerning in Arabic lookup 2 per glyph data 2" uni0628 dx=-234 dy=0 dh=-234 dv=0 dx=0 dy=0 dh=0 dv=0
PairPos2: "'kern' Horizontal Kerning in Arabic lookup 2 per glyph data 2" uni0629 dx=-234 dy=0 dh=-234 dv=0 dx=0 dy=0 dh=0 dv=0
PairPos2: "'kern' Horizontal Kerning in Arabic lookup 2 per glyph data 2" uni062A dx=-234 dy=0 dh=-234 dv=0 dx=0 dy=0 dh=0 dv=0
PairPos2: "'kern' Horizontal Kerning in Arabic lookup 2 per glyph data 2" uni062B dx=-234 dy=0 dh=-234 dv=0 dx=0 dy=0 dh=0 dv=0
PairPos2: "'kern' Horizontal Kerning in Arabic lookup 2 per glyph data 2" uni062F dx=-250 dy=0 dh=-250 dv=0 dx=0 dy=0 dh=0 dv=0
PairPos2: "'kern' Horizontal Kerning in Arabic lookup 2 per glyph data 2" uni0630 dx=-250 dy=0 dh=-250 dv=0 dx=0 dy=0 dh=0 dv=0
PairPos2: "'kern' Horizontal Kerning in Arabic lookup 2 per glyph data 2" uni0631 dx=-150 dy=0 dh=-150 dv=0 dx=0 dy=0 dh=0 dv=0
PairPos2: "'kern' Horizontal Kerning in Arabic lookup 2 per glyph data 2" uni0632 dx=-150 dy=0 dh=-150 dv=0 dx=0 dy=0 dh=0 dv=0
PairPos2: "'kern' Horizontal Kerning in Arabic lookup 2 per glyph data 2" uni0633 dx=-234 dy=0 dh=-234 dv=0 dx=0 dy=0 dh=0 dv=0
PairPos2: "'kern' Horizontal Kerning in Arabic lookup 2 per glyph data 2" uni0634 dx=-234 dy=0 dh=-234 dv=0 dx=0 dy=0 dh=0 dv=0
PairPos2: "'kern' Horizontal Kerning in Arabic lookup 2 per glyph data 2" uni0635 dx=-234 dy=0 dh=-234 dv=0 dx=0 dy=0 dh=0 dv=0
PairPos2: "'kern' Horizontal Kerning in Arabic lookup 2 per glyph data 2" uni0636 dx=-234 dy=0 dh=-234 dv=0 dx=0 dy=0 dh=0 dv=0
PairPos2: "'kern' Horizontal Kerning in Arabic lookup 2 per glyph data 2" uni0637 dx=-234 dy=0 dh=-234 dv=0 dx=0 dy=0 dh=0 dv=0
PairPos2: "'kern' Horizontal Kerning in Arabic lookup 2 per glyph data 2" uni0638 dx=-234 dy=0 dh=-234 dv=0 dx=0 dy=0 dh=0 dv=0
PairPos2: "'kern' Horizontal Kerning in Arabic lookup 2 per glyph data 2" uni0641 dx=-234 dy=0 dh=-234 dv=0 dx=0 dy=0 dh=0 dv=0
PairPos2: "'kern' Horizontal Kerning in Arabic lookup 2 per glyph data 2" uni0642 dx=-40 dy=0 dh=-40 dv=0 dx=0 dy=0 dh=0 dv=0
PairPos2: "'kern' Horizontal Kerning in Arabic lookup 2 per glyph data 2" uni0643 dx=-234 dy=0 dh=-234 dv=0 dx=0 dy=0 dh=0 dv=0
PairPos2: "'kern' Horizontal Kerning in Arabic lookup 2 per glyph data 2" uni0644 dx=-100 dy=0 dh=-100 dv=0 dx=0 dy=0 dh=0 dv=0
PairPos2: "'kern' Horizontal Kerning in Arabic lookup 2 per glyph data 2" uni0645 dx=-234 dy=0 dh=-234 dv=0 dx=0 dy=0 dh=0 dv=0
PairPos2: "'kern' Horizontal Kerning in Arabic lookup 2 per glyph data 2" uni0646 dx=-40 dy=0 dh=-40 dv=0 dx=0 dy=0 dh=0 dv=0
PairPos2: "'kern' Horizontal Kerning in Arabic lookup 2 per glyph data 2" uni0647 dx=-234 dy=0 dh=-234 dv=0 dx=0 dy=0 dh=0 dv=0
PairPos2: "'kern' Horizontal Kerning in Arabic lookup 2 per glyph data 2" uni0648 dx=-133 dy=0 dh=-133 dv=0 dx=0 dy=0 dh=0 dv=0
PairPos2: "'kern' Horizontal Kerning in Arabic lookup 2 per glyph data 2" uni067E dx=-234 dy=0 dh=-234 dv=0 dx=0 dy=0 dh=0 dv=0
PairPos2: "'kern' Horizontal Kerning in Arabic lookup 2 per glyph data 2" uni0698 dx=-150 dy=0 dh=-150 dv=0 dx=0 dy=0 dh=0 dv=0
PairPos2: "'kern' Horizontal Kerning in Arabic lookup 2 per glyph data 2" uni06A9 dx=-400 dy=0 dh=-400 dv=0 dx=0 dy=0 dh=0 dv=0
PairPos2: "'kern' Horizontal Kerning in Arabic lookup 2 per glyph data 2" uni06AF dx=-400 dy=0 dh=-400 dv=0 dx=0 dy=0 dh=0 dv=0
PairPos2: "'kern' Horizontal Kerning in Arabic lookup 2 per glyph data 2" uni06C0 dx=-234 dy=0 dh=-234 dv=0 dx=0 dy=0 dh=0 dv=0
PairPos2: "'kern' Horizontal Kerning in Arabic lookup 2 per glyph data 2" uni06CA dx=-133 dy=0 dh=-133 dv=0 dx=0 dy=0 dh=0 dv=0
PairPos2: "'kern' Horizontal Kerning in Arabic lookup 2 per glyph data 2" uniFB7C dx=-234 dy=0 dh=-234 dv=0 dx=0 dy=0 dh=0 dv=0
PairPos2: "'kern' Horizontal Kerning in Arabic lookup 2 per glyph data 2" uniFB90 dx=-400 dy=0 dh=-400 dv=0 dx=0 dy=0 dh=0 dv=0
PairPos2: "'kern' Horizontal Kerning in Arabic lookup 2 per glyph data 2" uniFB94 dx=-400 dy=0 dh=-400 dv=0 dx=0 dy=0 dh=0 dv=0
PairPos2: "'kern' Horizontal Kerning in Arabic lookup 2 per glyph data 2" uniFE8B dx=-200 dy=0 dh=-200 dv=0 dx=0 dy=0 dh=0 dv=0
PairPos2: "'kern' Horizontal Kerning in Arabic lookup 2 per glyph data 2" uniFE91 dx=-200 dy=0 dh=-200 dv=0 dx=0 dy=0 dh=0 dv=0
PairPos2: "'kern' Horizontal Kerning in Arabic lookup 2 per glyph data 2" uniFE97 dx=-200 dy=0 dh=-200 dv=0 dx=0 dy=0 dh=0 dv=0
PairPos2: "'kern' Horizontal Kerning in Arabic lookup 2 per glyph data 2" uniFE9B dx=-200 dy=0 dh=-200 dv=0 dx=0 dy=0 dh=0 dv=0
PairPos2: "'kern' Horizontal Kerning in Arabic lookup 2 per glyph data 2" uniFE9F dx=-234 dy=0 dh=-234 dv=0 dx=0 dy=0 dh=0 dv=0
PairPos2: "'kern' Horizontal Kerning in Arabic lookup 2 per glyph data 2" uniFEA3 dx=-234 dy=0 dh=-234 dv=0 dx=0 dy=0 dh=0 dv=0
PairPos2: "'kern' Horizontal Kerning in Arabic lookup 2 per glyph data 2" uniFEA7 dx=-234 dy=0 dh=-234 dv=0 dx=0 dy=0 dh=0 dv=0
PairPos2: "'kern' Horizontal Kerning in Arabic lookup 2 per glyph data 2" uniFEB3 dx=-234 dy=0 dh=-234 dv=0 dx=0 dy=0 dh=0 dv=0
PairPos2: "'kern' Horizontal Kerning in Arabic lookup 2 per glyph data 2" uniFEB7 dx=-234 dy=0 dh=-234 dv=0 dx=0 dy=0 dh=0 dv=0
PairPos2: "'kern' Horizontal Kerning in Arabic lookup 2 per glyph data 2" uniFEBB dx=-234 dy=0 dh=-234 dv=0 dx=0 dy=0 dh=0 dv=0
PairPos2: "'kern' Horizontal Kerning in Arabic lookup 2 per glyph data 2" uniFEBF dx=-234 dy=0 dh=-234 dv=0 dx=0 dy=0 dh=0 dv=0
PairPos2: "'kern' Horizontal Kerning in Arabic lookup 2 per glyph data 2" uniFEC3 dx=-234 dy=0 dh=-234 dv=0 dx=0 dy=0 dh=0 dv=0
PairPos2: "'kern' Horizontal Kerning in Arabic lookup 2 per glyph data 2" uniFEC7 dx=-234 dy=0 dh=-234 dv=0 dx=0 dy=0 dh=0 dv=0
PairPos2: "'kern' Horizontal Kerning in Arabic lookup 2 per glyph data 2" uniFECB dx=-234 dy=0 dh=-234 dv=0 dx=0 dy=0 dh=0 dv=0
PairPos2: "'kern' Horizontal Kerning in Arabic lookup 2 per glyph data 2" uniFECF dx=-234 dy=0 dh=-234 dv=0 dx=0 dy=0 dh=0 dv=0
PairPos2: "'kern' Horizontal Kerning in Arabic lookup 2 per glyph data 2" uniFED3 dx=-234 dy=0 dh=-234 dv=0 dx=0 dy=0 dh=0 dv=0
PairPos2: "'kern' Horizontal Kerning in Arabic lookup 2 per glyph data 2" uniFED7 dx=-234 dy=0 dh=-234 dv=0 dx=0 dy=0 dh=0 dv=0
PairPos2: "'kern' Horizontal Kerning in Arabic lookup 2 per glyph data 2" uniFEDB dx=-400 dy=0 dh=-400 dv=0 dx=0 dy=0 dh=0 dv=0
PairPos2: "'kern' Horizontal Kerning in Arabic lookup 2 per glyph data 2" uniFEDF dx=-234 dy=0 dh=-234 dv=0 dx=0 dy=0 dh=0 dv=0
PairPos2: "'kern' Horizontal Kerning in Arabic lookup 2 per glyph data 2" uniFEE3 dx=-234 dy=0 dh=-234 dv=0 dx=0 dy=0 dh=0 dv=0
PairPos2: "'kern' Horizontal Kerning in Arabic lookup 2 per glyph data 2" uniFEE7 dx=-234 dy=0 dh=-234 dv=0 dx=0 dy=0 dh=0 dv=0
PairPos2: "'kern' Horizontal Kerning in Arabic lookup 2 per glyph data 2" uniFEEB dx=-134 dy=0 dh=-134 dv=0 dx=0 dy=0 dh=0 dv=0
PairPos2: "'kern' Horizontal Kerning in Arabic lookup 2 per glyph data 2" uniFEF5 dx=-234 dy=0 dh=-234 dv=0 dx=0 dy=0 dh=0 dv=0
PairPos2: "'kern' Horizontal Kerning in Arabic lookup 2 per glyph data 2" uniFEF7 dx=-234 dy=0 dh=-234 dv=0 dx=0 dy=0 dh=0 dv=0
PairPos2: "'kern' Horizontal Kerning in Arabic lookup 2 per glyph data 2" uniFEF9 dx=-234 dy=0 dh=-234 dv=0 dx=0 dy=0 dh=0 dv=0
PairPos2: "'kern' Horizontal Kerning in Arabic lookup 2 per glyph data 2" uniFEFB dx=-234 dy=0 dh=-234 dv=0 dx=0 dy=0 dh=0 dv=0
PairPos2: "'kern' Horizontal Kerning in Arabic lookup 2 per glyph data 1" uni0639 dx=-90 dy=0 dh=-90 dv=0 dx=0 dy=0 dh=0 dv=0
PairPos2: "'kern' Horizontal Kerning in Arabic lookup 2 per glyph data 1" uni063A dx=-90 dy=0 dh=-90 dv=0 dx=0 dy=0 dh=0 dv=0
Colour: ffff
EndChar

StartChar: uniFEBA
Encoding: 65210 65210 155
Width: 2424
VWidth: 2279
Flags: HMW
AnchorPoint: "Anchor-3" 1879 811 basechar 0
AnchorPoint: "Anchor-1" 589 -563 basechar 0
LayerCount: 2
Fore
SplineSet
1413 156 m 1
 1475 141 1553 132 1650 132 c 0
 1862 132 2058 245 2058 408 c 0
 2058 491 1990 552 1873 552 c 0
 1683 552 1536 412 1413 156 c 1
964 365 m 0
 964 409 998 453 1050 453 c 0
 1084 453 1118 434 1132 400 c 0
 1163 326 1201 268 1253 228 c 1
 1385 503 1578 728 1873 728 c 0
 2052 728 2232 613 2232 408 c 0
 2232 338 2216 277 2188 224 c 1
 2231 165 2293 132 2424 132 c 0
 2472 132 2512 93 2512 45 c 0
 2512 -3 2472 -42 2424 -42 c 0
 2266 -42 2152 8 2073 92 c 1
 1964 8 1675 -44 1649 -44 c 0
 1648 -44 1647 -43 1647 -43 c 1
 1647 -43 1648 -43 1650 -42 c 1
 1460 -42 1319 -15 1205 50 c 1
 1206 29 1206 12 1206 -7 c 0
 1206 -345 989 -560 589 -560 c 0
 345 -560 72 -430 72 -117 c 0
 72 70 157 267 260 428 c 0
 277 454 306 468 335 468 c 0
 386 468 421 425 421 380 c 0
 421 364 417 348 408 334 c 0
 316 191 248 16 248 -117 c 0
 248 -298 391 -386 589 -386 c 0
 917 -386 1032 -251 1032 -7 c 0
 1032 90 1011 208 968 339 c 0
 965 348 964 356 964 365 c 0
EndSplineSet
Colour: ffff
EndChar

StartChar: uniFEBB
Encoding: 65211 65211 156
Width: 1546
VWidth: 2370
Flags: HMW
AnchorPoint: "Anchor-3" 1101 811 basechar 0
AnchorPoint: "Anchor-1" 818 -2 basechar 0
LayerCount: 2
Fore
SplineSet
613 146 m 1
 663 137 728 132 809 132 c 0
 1064 132 1298 256 1298 434 c 0
 1298 548 1223 622 1106 622 c 0
 940 622 748 408 613 146 c 1
433 -130 m 0
 380 -130 347 -86 347 -42 c 0
 347 -32 348 -23 352 -13 c 0
 360 10 369 34 379 58 c 1
 368 67 358 77 349 87 c 1
 268 -17 142 -42 0 -42 c 0
 -48 -42 -87 -3 -87 45 c 0
 -87 93 -48 132 0 132 c 0
 170 132 214 162 243 266 c 0
 252 298 260 338 263 389 c 0
 263 420 264 454 266 489 c 0
 268 536 307 572 353 572 c 0
 406 572 440 524 440 485 c 0
 440 445 438 410 438 374 c 0
 438 312 442 269 460 232 c 1
 595 494 812 798 1106 798 c 0
 1313 798 1474 644 1474 434 c 0
 1474 88 1080 -42 809 -42 c 0
 701 -42 613 -35 538 -17 c 1
 530 -36 523 -55 516 -73 c 0
 503 -108 469 -130 433 -130 c 0
EndSplineSet
Colour: ffff
EndChar

StartChar: uniFEBC
Encoding: 65212 65212 157
Width: 1671
VWidth: 1839
Flags: HMW
AnchorPoint: "Anchor-1" 818 0 basechar 0
AnchorPoint: "Anchor-3" 1101 811 basechar 0
LayerCount: 2
Fore
SplineSet
610 142 m 1
 657 135 714 132 780 132 c 0
 1038 132 1292 260 1292 434 c 0
 1292 544 1200 622 1103 622 c 0
 952 622 768 442 610 142 c 1
439 484 m 0
 439 440 430 403 430 359 c 0
 430 301 437 258 455 224 c 1
 615 527 827 798 1103 798 c 0
 1290 798 1466 648 1466 434 c 0
 1466 363 1449 301 1419 248 c 1
 1458 166 1513 132 1671 132 c 0
 1719 132 1759 93 1759 45 c 0
 1759 -3 1719 -42 1671 -42 c 0
 1497 -42 1377 12 1300 114 c 1
 1168 14 812 -44 779 -44 c 0
 777 -44 777 -43 777 -43 c 1
 777 -43 778 -43 780 -42 c 1
 588 -42 423 -18 332 94 c 1
 258 -4 141 -42 0 -42 c 0
 -48 -42 -87 -3 -87 45 c 0
 -87 93 -48 132 0 132 c 0
 155 132 197 170 231 279 c 0
 248 335 255 421 265 496 c 0
 271 540 309 572 352 572 c 0
 406 572 439 524 439 484 c 0
EndSplineSet
Colour: ffff
EndChar

StartChar: uniFEC2
Encoding: 65218 65218 161
Width: 1656
VWidth: 2370
Flags: HMW
AnchorPoint: "Anchor-1" 450 0 basechar 0
AnchorPoint: "Anchor-3" 1128 811 basechar 0
LayerCount: 2
Fore
SplineSet
580 140 m 1
 1012 163 1316 257 1316 469 c 0
 1316 563 1241 636 1130 636 c 0
 932 636 705 395 580 140 c 1
405 1211 m 0
 405 1257 443 1298 492 1298 c 0
 537 1298 576 1263 579 1217 c 0
 586 1106 592 1010 592 855 c 0
 592 732 589 600 582 473 c 1
 719 651 907 810 1130 810 c 0
 1321 810 1492 673 1492 469 c 0
 1492 370 1462 292 1412 228 c 1
 1462 164 1541 132 1656 132 c 0
 1704 132 1744 93 1744 45 c 0
 1744 -3 1704 -42 1656 -42 c 0
 1506 -42 1369 6 1279 115 c 1
 1068 -8 740 -31 483 -39 c 0
 370 -43 260 -43 162 -43 c 1
 160 -42 l 1
 112 -42 73 -3 73 45 c 0
 73 93 112 132 160 132 c 0
 228 132 300 133 375 134 c 1
 404 343 416 613 416 855 c 0
 416 1006 412 1094 405 1205 c 0
 405 1207 405 1209 405 1211 c 0
EndSplineSet
Colour: ffff
EndChar

StartChar: uniFEC3
Encoding: 65219 65219 162
Width: 1250
VWidth: 2370
Flags: HMW
AnchorPoint: "Anchor-3" 815 811 basechar 0
AnchorPoint: "Anchor-1" 596 0 basechar 0
LayerCount: 2
Fore
SplineSet
292 141 m 1
 700 166 1002 265 1002 466 c 0
 1002 560 927 632 816 632 c 0
 620 632 426 391 292 141 c 1
100 -143 m 0
 49 -143 14 -100 14 -53 c 0
 14 -49 14 -46 14 -42 c 1
 9 -42 5 -42 0 -42 c 0
 -48 -42 -87 -3 -87 45 c 0
 -87 93 -48 132 0 132 c 0
 29 132 60 133 91 133 c 1
 152 302 184 536 184 747 c 0
 184 943 176 1073 161 1201 c 0
 161 1204 161 1208 161 1211 c 0
 161 1257 197 1298 248 1298 c 0
 292 1298 330 1265 335 1221 c 0
 350 1087 358 947 358 747 c 0
 358 681 355 613 350 545 c 1
 469 685 624 806 816 806 c 0
 1007 806 1178 670 1178 466 c 0
 1178 37 595 -24 208 -39 c 1
 186 -85 162 -143 100 -143 c 0
EndSplineSet
Colour: ffff
EndChar

StartChar: uniFEC4
Encoding: 65220 65220 163
Width: 1338
VWidth: 2370
Flags: HMW
AnchorPoint: "Anchor-1" 596 0 basechar 0
AnchorPoint: "Anchor-3" 885 841 basechar 0
LayerCount: 2
Fore
SplineSet
389 140 m 1
 827 163 1070 253 1070 444 c 0
 1070 530 1020 624 872 624 c 0
 692 624 503 380 389 140 c 1
155 1211 m 0
 155 1257 192 1298 242 1298 c 0
 286 1298 324 1264 329 1220 c 0
 352 998 368 784 368 530 c 0
 368 505 367 479 367 455 c 1
 484 627 651 798 872 798 c 0
 1124 798 1244 608 1244 444 c 0
 1244 337 1210 254 1151 189 c 1
 1187 146 1237 132 1338 132 c 0
 1386 132 1426 93 1426 45 c 0
 1426 -3 1386 -42 1338 -42 c 0
 1204 -42 1089 -7 1011 87 c 1
 821 -9 544 -31 291 -39 c 0
 195 -42 97 -42 0 -42 c 0
 -48 -42 -87 -3 -87 45 c 0
 -87 93 -48 132 0 132 c 0
 59 132 118 133 177 134 c 1
 187 256 192 391 192 530 c 0
 192 776 178 984 155 1202 c 0
 155 1205 155 1208 155 1211 c 0
EndSplineSet
Colour: ffff
EndChar

StartChar: uniFECA
Encoding: 65226 65226 167
Width: 1092
VWidth: 2370
Flags: HMW
AnchorPoint: "Anchor-3" 552 821 basechar 0
AnchorPoint: "Anchor-1" 676 -740 basechar 0
LayerCount: 2
Fore
SplineSet
547 374 m 1
 719 471 764 521 764 586 c 0
 764 632 701 688 575 688 c 0
 489 688 383 657 312 616 c 1
 375 536 457 449 547 374 c 1
905 -536 m 0
 950 -536 993 -571 993 -623 c 0
 993 -664 963 -701 921 -709 c 0
 839 -724 756 -732 674 -732 c 0
 390 -732 72 -620 72 -285 c 0
 72 -29 233 155 394 276 c 1
 283 374 188 482 118 585 c 0
 108 600 103 616 103 633 c 0
 103 657 113 681 128 696 c 0
 222 790 404 864 575 864 c 0
 725 864 938 792 938 586 c 0
 938 435 832 341 702 262 c 1
 832 182 968 132 1092 132 c 0
 1140 132 1180 93 1180 45 c 0
 1180 -3 1140 -42 1092 -42 c 0
 894 -42 702 45 536 162 c 1
 378 54 248 -93 248 -285 c 0
 248 -468 410 -558 674 -558 c 0
 744 -558 816 -550 889 -537 c 0
 894 -536 900 -536 905 -536 c 0
EndSplineSet
Colour: ffff
EndChar

StartChar: uniFECB
Encoding: 65227 65227 168
Width: 1020
VWidth: 2370
Flags: HMW
AnchorPoint: "Anchor-3" 565 973 basechar 0
AnchorPoint: "Anchor-1" 438 0 basechar 0
LayerCount: 2
Fore
SplineSet
860 270 m 0
 901 270 947 235 947 183 c 0
 947 137 910 98 863 96 c 0
 812 94 757 87 703 78 c 0
 637 63 565 39 497 20 c 0
 378 -13 227 -42 0 -42 c 0
 -48 -42 -87 -3 -87 45 c 0
 -87 93 -48 132 0 132 c 0
 91 132 167 138 233 146 c 1
 145 211 90 314 90 437 c 0
 90 680 293 880 525 880 c 0
 621 880 718 846 792 779 c 0
 811 762 820 738 820 714 c 0
 820 666 780 627 733 627 c 0
 712 627 691 634 674 649 c 0
 636 684 581 704 525 704 c 0
 393 704 264 582 264 437 c 0
 264 313 359 236 510 236 c 0
 634 236 732 270 860 270 c 0
EndSplineSet
Colour: ffff
EndChar

StartChar: uniFECC
Encoding: 65228 65228 169
Width: 1040
VWidth: 2370
Flags: HMW
AnchorPoint: "Anchor-3" 506 821 basechar 0
AnchorPoint: "Anchor-1" 515 0 basechar 0
LayerCount: 2
Fore
SplineSet
257 543 m 1
 332 454 439 353 565 275 c 1
 689 341 754 421 754 483 c 0
 754 557 651 634 521 634 c 0
 453 634 339 595 257 543 c 1
1040 -42 m 0
 861 -42 697 7 559 78 c 1
 382 2 163 -42 0 -42 c 0
 -48 -42 -87 -3 -87 45 c 0
 -87 93 -48 132 0 132 c 0
 101 132 242 155 372 196 c 1
 237 297 132 411 63 508 c 0
 52 523 47 541 47 559 c 0
 47 583 57 605 74 622 c 0
 181 724 367 810 521 810 c 0
 689 810 930 711 930 483 c 0
 930 355 848 256 751 185 c 1
 841 152 938 132 1040 132 c 0
 1088 132 1128 93 1128 45 c 0
 1128 -3 1088 -42 1040 -42 c 0
EndSplineSet
Colour: ffff
EndChar

StartChar: uniFED2
Encoding: 65234 65234 173
Width: 1829
VWidth: 2189
Flags: HMW
AnchorPoint: "Anchor-3" 1484 1323 basechar 0
AnchorPoint: "Anchor-1" 780 -30 basechar 0
LayerCount: 2
Fore
SplineSet
1407 207 m 1
 1512 265 1576 347 1576 484 c 0
 1576 630 1519 694 1399 694 c 0
 1305 694 1222 621 1222 472 c 0
 1222 341 1292 261 1407 207 c 1
212 664 m 0
 265 664 298 620 298 576 c 0
 298 566 297 557 293 547 c 0
 260 459 248 388 248 336 c 0
 248 148 445 102 840 102 c 0
 966 102 1090 112 1198 135 c 1
 1105 216 1048 332 1048 472 c 0
 1048 693 1191 870 1399 870 c 0
 1629 870 1752 694 1752 484 c 0
 1752 346 1702 231 1618 147 c 1
 1684 137 1755 132 1829 132 c 0
 1877 132 1916 93 1916 45 c 0
 1916 -3 1877 -42 1829 -42 c 0
 1681 -42 1534 -24 1413 17 c 1
 1251 -49 1042 -72 840 -72 c 0
 493 -72 72 -48 72 336 c 0
 72 416 91 505 129 607 c 0
 142 642 176 664 212 664 c 0
EndSplineSet
Refer: 223 57344 N 1 0 0 1 1253 1190 2
Colour: ffff
EndChar

StartChar: uniFED6
Encoding: 65238 65238 176
Width: 1461
VWidth: 2270
Flags: HMW
AnchorPoint: "Anchor-3" 979 1152 basechar 0
AnchorPoint: "Anchor-1" 712 -526 basechar 0
LayerCount: 2
Fore
SplineSet
1173 132 m 1
 1171 398 1106 582 977 582 c 0
 886 582 796 460 796 316 c 0
 796 163 839 132 1018 132 c 2
 1173 132 l 1
262 481 m 0
 315 481 348 437 348 393 c 0
 348 381 346 370 341 359 c 0
 279 220 248 89 248 -17 c 0
 248 -228 361 -374 704 -374 c 0
 952 -374 1105 -263 1156 -43 c 1
 1018 -44 l 2
 789 -44 620 59 620 316 c 0
 620 502 736 758 977 758 c 0
 1303 758 1346 365 1348 132 c 1
 1461 132 l 2
 1509 132 1548 93 1548 45 c 0
 1548 -3 1509 -42 1461 -42 c 2
 1335 -43 l 1
 1277 -370 1031 -550 704 -550 c 0
 293 -550 72 -330 72 -17 c 0
 72 123 113 274 181 429 c 0
 195 461 228 481 262 481 c 0
EndSplineSet
Refer: 224 57345 N 1 0 0 1 639 1022 2
Colour: ffff
EndChar

StartChar: uniFEDA
Encoding: 65242 65242 179
Width: 1772
VWidth: 1424
Flags: HMW
AnchorPoint: "Anchor-3" 795 901 basechar 0
AnchorPoint: "Anchor-1" 716 -30 basechar 0
LayerCount: 2
Fore
SplineSet
1259 1211 m 0
 1259 1256 1295 1298 1346 1298 c 0
 1389 1298 1427 1266 1433 1222 c 0
 1462 1001 1478 672 1478 431 c 0
 1478 212 1595 132 1772 132 c 0
 1820 132 1860 93 1860 45 c 0
 1860 -3 1820 -42 1772 -42 c 0
 1612 -42 1465 21 1380 149 c 1
 1245 -12 995 -72 786 -72 c 0
 498 -72 72 -36 72 363 c 0
 72 447 96 532 131 610 c 0
 145 642 178 661 212 661 c 0
 265 661 298 617 298 573 c 0
 298 561 296 549 291 538 c 0
 264 478 248 413 248 363 c 0
 248 152 464 104 786 104 c 0
 1075 104 1302 214 1302 431 c 0
 1302 664 1286 991 1259 1200 c 0
 1259 1204 1259 1207 1259 1211 c 0
EndSplineSet
Refer: 240 1620 N 1 0 0 1 580 -618 2
Colour: ffff
EndChar

StartChar: uniFEDB
Encoding: 65243 65243 180
Width: 1054
VWidth: 2234
Flags: HMW
AnchorPoint: "Anchor-3" 489 1197 basechar 0
AnchorPoint: "Anchor-1" 268 0 basechar 0
LayerCount: 2
Fore
SplineSet
893 1398 m 0
 937 1398 981 1364 981 1312 c 0
 981 1279 964 1247 933 1232 c 2
 306 925 l 1
 470 752 660 541 660 312 c 0
 660 35 386 -42 0 -42 c 0
 -48 -42 -88 -3 -88 45 c 0
 -88 93 -48 132 0 132 c 0
 406 132 484 211 484 312 c 0
 484 467 288 695 97 890 c 0
 81 907 73 929 73 951 c 0
 73 976 83 1001 104 1018 c 0
 111 1024 121 1030 121 1030 c 1
 855 1390 l 2
 867 1396 880 1398 893 1398 c 0
EndSplineSet
Colour: ffff
EndChar

StartChar: uniFEDC
Encoding: 65244 65244 181
Width: 1133
VWidth: 2370
Flags: HMW
AnchorPoint: "Anchor-3" 489 1197 basechar 0
AnchorPoint: "Anchor-1" 268 0 basechar 0
LayerCount: 2
Fore
SplineSet
73 951 m 0
 73 998 112 1038 160 1038 c 0
 183 1038 205 1029 222 1012 c 0
 392 839 559 663 636 458 c 0
 757 136 792 132 1112 132 c 0
 1119 132 1126 132 1133 132 c 0
 1181 132 1221 93 1221 45 c 0
 1221 -3 1181 -42 1133 -42 c 0
 768 -42 615 17 472 396 c 0
 413 553 266 719 98 890 c 0
 81 907 73 929 73 951 c 0
EndSplineSet
Refer: 180 65243 N 1 0 0 1 0 0 2
Colour: ffff
EndChar

StartChar: uniFEDE
Encoding: 65246 65246 182
Width: 1490
VWidth: 2370
Flags: HMW
AnchorPoint: "Anchor-1" 623 -526 basechar 0
AnchorPoint: "Anchor-3" 510 596 basechar 0
LayerCount: 2
Fore
SplineSet
1025 367 m 2
 1025 376 l 1
 1019 639 1002 902 980 1205 c 0
 980 1207 980 1209 980 1211 c 0
 980 1257 1017 1298 1067 1298 c 0
 1112 1298 1151 1262 1154 1217 c 0
 1177 900 1196 623 1202 342 c 1
 1221 152 1292 132 1490 132 c 0
 1538 132 1578 93 1578 45 c 0
 1578 -3 1538 -42 1490 -42 c 0
 1378 -42 1276 -24 1197 25 c 1
 1160 -280 981 -512 622 -512 c 0
 238 -512 72 -298 72 -15 c 0
 72 133 122 286 177 397 c 0
 192 427 224 445 256 445 c 0
 308 445 342 401 342 357 c 0
 342 344 339 331 333 319 c 0
 288 230 248 93 248 -15 c 0
 248 -216 318 -336 622 -336 c 0
 912 -336 1028 -163 1028 148 c 0
 1028 172 1028 197 1028 221 c 0
 1028 270 1028 319 1025 367 c 2
EndSplineSet
Colour: ffff
EndChar

StartChar: uniFEDF
Encoding: 65247 65247 183
Width: 494
VWidth: 2370
Flags: HMW
AnchorPoint: "Anchor-1" 223 0 basechar 0
AnchorPoint: "Anchor-3" 245 1212 basechar 0
LayerCount: 2
Fore
SplineSet
158 1211 m 0
 158 1256 194 1298 245 1298 c 0
 288 1298 326 1266 332 1222 c 0
 370 931 382 762 382 444 c 0
 382 314 367 202 310 110 c 0
 247 9 137 -42 0 -42 c 0
 -48 -42 -87 -3 -87 45 c 0
 -87 93 -48 132 0 132 c 0
 96 132 135 159 162 202 c 0
 189 247 206 327 206 444 c 0
 206 758 196 913 158 1200 c 0
 158 1204 158 1207 158 1211 c 0
EndSplineSet
Colour: ffff
EndChar

StartChar: uniFEE0
Encoding: 65248 65248 184
Width: 674
VWidth: 2370
Flags: HMW
AnchorPoint: "Anchor-3" 293 1211 basechar 0
AnchorPoint: "Anchor-1" 247 0 basechar 0
LayerCount: 2
Fore
SplineSet
206 1211 m 0
 206 1257 243 1298 293 1298 c 0
 337 1298 376 1264 380 1219 c 0
 407 931 425 679 425 369 c 0
 425 193 510 132 674 132 c 0
 722 132 762 93 762 45 c 0
 762 -3 722 -42 674 -42 c 0
 539 -42 418 4 340 96 c 1
 266 4 147 -42 0 -42 c 0
 -48 -42 -87 -3 -87 45 c 0
 -87 93 -48 132 0 132 c 0
 184 132 250 188 250 369 c 0
 250 676 233 916 206 1203 c 0
 206 1206 206 1208 206 1211 c 0
EndSplineSet
Colour: ffff
EndChar

StartChar: uniFEE2
Encoding: 65250 65250 185
Width: 1371
VWidth: 1263
Flags: HMW
AnchorPoint: "Anchor-3" 728 649 basechar 0
AnchorPoint: "Anchor-1" 690 -169 basechar 0
LayerCount: 2
Fore
SplineSet
910 381 m 0
 910 425 944 469 996 469 c 0
 1036 469 1073 442 1082 402 c 0
 1129 197 1190 132 1371 132 c 0
 1419 132 1459 93 1459 45 c 0
 1459 -3 1419 -42 1371 -42 c 0
 1102 -42 969 115 912 362 c 0
 911 368 910 375 910 381 c 0
EndSplineSet
Refer: 88 1605 N 1 0 0 1 0 0 2
Colour: ffff
EndChar

StartChar: uniFEE4
Encoding: 65252 65252 186
Width: 1239
VWidth: 1350
Flags: HMW
AnchorPoint: "Anchor-1" 581 0 basechar 0
AnchorPoint: "Anchor-3" 609 675 basechar 0
LayerCount: 2
Back
SplineSet
881 366 m 1
 927 173 1089 45 1219 45 c 1025
EndSplineSet
Fore
SplineSet
605 543 m 1
 541 458 426 279 426 195 c 0
 426 153 429 102 589 102 c 0
 778 102 802 172 802 205 c 0
 802 286 702 446 605 543 c 1
540 686 m 0
 567 686 592 671 606 654 c 1
 624 674 649 685 674 685 c 0
 697 685 719 676 736 659 c 0
 861 531 932 423 976 319 c 0
 1028 195 1047 132 1239 132 c 0
 1287 132 1326 93 1326 45 c 0
 1326 -3 1287 -42 1239 -42 c 0
 1101 -42 1000 -5 931 61 c 1
 864 -30 744 -72 589 -72 c 0
 437 -72 325 -21 276 79 c 1
 206 11 114 -42 0 -42 c 0
 -48 -42 -87 -3 -87 45 c 0
 -87 93 -48 132 0 132 c 0
 121 132 224 273 313 434 c 0
 357 514 424 599 471 655 c 0
 486 673 512 686 540 686 c 0
EndSplineSet
Colour: ffff
EndChar

StartChar: uniFEE6
Encoding: 65254 65254 187
Width: 1504
VWidth: 2286
Flags: HMW
AnchorPoint: "Anchor-3" 666 600 basechar 0
AnchorPoint: "Anchor-1" 651 -526 basechar 0
LayerCount: 2
Fore
SplineSet
1082 348 m 0
 1082 392 1115 436 1168 436 c 0
 1206 436 1242 411 1253 374 c 0
 1284 269 1308 208 1338 178 c 0
 1362 153 1400 132 1504 132 c 0
 1552 132 1592 93 1592 45 c 0
 1592 -3 1552 -42 1504 -42 c 0
 1380 -42 1282 -16 1212 56 c 0
 1142 128 1116 222 1085 324 c 0
 1083 332 1082 340 1082 348 c 0
EndSplineSet
Refer: 223 57344 N 1 0 0 1 462 225 2
Refer: 85 1722 N 1 0 0 1 0 0 2
Colour: ffff
EndChar

StartChar: uniFEEA
Encoding: 65258 65258 188
Width: 1081
VWidth: 2370
Flags: HMW
AnchorPoint: "Anchor-3" 443 936 basechar 0
AnchorPoint: "Anchor-1" 425 2 basechar 0
LayerCount: 2
Fore
SplineSet
609 699 m 1
 564 670 515 647 469 625 c 0
 320 555 268 485 268 414 c 0
 268 394 339 304 518 304 c 0
 549 304 576 307 612 314 c 0
 624 316 636 316 648 313 c 1
 643 340 640 368 637 398 c 2
 609 699 l 1
587 953 m 0
 587 997 621 1040 673 1040 c 0
 728 1040 760 998 763 939 c 0
 779 764 795 589 811 414 c 0
 816 361 824 318 834 284 c 0
 870 157 920 132 1081 132 c 0
 1129 132 1169 93 1169 45 c 0
 1169 -3 1129 -42 1081 -42 c 0
 915 -42 764 2 690 167 c 1
 656 133 579 130 518 130 c 0
 319 130 92 222 92 414 c 0
 92 591 230 705 395 783 c 0
 480 823 551 866 576 898 c 0
 586 911 588 918 588 927 c 0
 587 935 587 944 587 953 c 0
EndSplineSet
Colour: ffff
EndChar

StartChar: uniFEEB
Encoding: 65259 65259 189
Width: 1283
VWidth: 2370
Flags: HMW
AnchorPoint: "Anchor-3" 625 872 basechar 0
AnchorPoint: "Anchor-1" 585 0 basechar 0
LayerCount: 2
Fore
SplineSet
439 206 m 1
 536 253 596 323 596 450 c 0
 596 548 546 632 487 658 c 0
 472 665 455 668 436 668 c 0
 334 668 230 563 230 430 c 0
 230 357 284 286 397 227 c 0
 410 220 424 212 439 206 c 1
755 571 m 1
 765 532 770 491 770 450 c 0
 770 326 727 221 652 145 c 1
 703 137 753 132 800 132 c 0
 951 132 1016 204 1016 286 c 0
 1016 401 926 491 755 571 c 1
112 899 m 0
 112 951 156 985 200 985 c 0
 214 985 227 982 240 975 c 0
 374 903 538 842 691 786 c 0
 928 699 1190 562 1190 286 c 0
 1190 80 1009 -42 800 -42 c 0
 684 -42 547 -18 441 18 c 1
 316 -26 157 -42 0 -42 c 0
 -48 -42 -87 -3 -87 45 c 0
 -87 93 -48 132 0 132 c 0
 71 132 140 136 204 144 c 1
 120 213 54 310 54 430 c 0
 54 574 127 706 237 781 c 1
 186 805 112 829 112 899 c 0
EndSplineSet
Colour: ffff
EndChar

StartChar: uniFEEC
Encoding: 65260 65260 190
Width: 930
VWidth: 2370
Flags: HMW
AnchorPoint: "Anchor-3" 465 782 basechar 0
AnchorPoint: "Anchor-1" 418 -557 basechar 0
LayerCount: 2
Fore
SplineSet
268 171 m 1
 512 248 616 423 616 546 c 0
 616 620 592 650 534 650 c 0
 390 650 277 457 268 171 c 1
110 -37 m 1
 74 -40 38 -42 0 -42 c 0
 -48 -42 -87 -3 -87 45 c 0
 -87 93 -48 132 0 132 c 0
 32 132 64 134 93 137 c 1
 93 438 205 824 534 824 c 0
 712 824 792 676 792 546 c 0
 792 320 608 81 283 -7 c 1
 329 -231 464 -384 554 -384 c 0
 603 -384 636 -351 636 -232 c 0
 636 -148 611 -50 584 7 c 0
 581 13 576 32 576 45 c 0
 576 92 615 132 663 132 c 2
 930 132 l 2
 978 132 1018 93 1018 45 c 0
 1018 -3 978 -42 930 -42 c 2
 786 -42 l 1
 801 -102 810 -167 810 -232 c 0
 810 -367 757 -560 554 -560 c 0
 310 -560 159 -277 110 -37 c 1
EndSplineSet
Colour: ffff
EndChar

StartChar: uniFEEE
Encoding: 65262 65262 191
Width: 931
VWidth: 2370
Flags: HMW
AnchorPoint: "Anchor-3" 464 721 basechar 0
AnchorPoint: "Anchor-1" 499 -408 basechar 0
LayerCount: 2
Fore
SplineSet
643 115 m 1
 643 121 644 128 644 134 c 0
 644 448 537 568 460 568 c 0
 396 568 298 461 298 257 c 0
 298 187 312 154 329 137 c 0
 347 120 385 102 470 102 c 0
 523 102 581 106 643 115 c 1
201 -553 m 0
 156 -553 113 -518 113 -466 c 0
 113 -425 143 -388 184 -380 c 0
 435 -332 562 -228 615 -65 c 1
 564 -70 516 -72 470 -72 c 0
 365 -72 274 -52 207 13 c 0
 143 77 122 164 122 257 c 0
 122 483 230 744 460 744 c 0
 717 744 818 444 818 134 c 0
 818 133 818 131 818 130 c 1
 859 132 899 132 931 132 c 0
 979 132 1018 93 1018 45 c 0
 1018 -3 979 -42 931 -42 c 0
 896 -42 848 -44 801 -46 c 1
 743 -324 535 -491 217 -552 c 0
 212 -553 206 -553 201 -553 c 0
EndSplineSet
PairPos2: "'kern' Horizontal Kerning in Arabic lookup 2 per glyph data 4" uni0625 dx=178 dy=0 dh=178 dv=0 dx=0 dy=0 dh=0 dv=0
PairPos2: "'kern' Horizontal Kerning in Arabic lookup 2 per glyph data 3" uni06A9 dx=-233 dy=0 dh=-233 dv=0 dx=0 dy=0 dh=0 dv=0
PairPos2: "'kern' Horizontal Kerning in Arabic lookup 2 per glyph data 3" uni06AF dx=-233 dy=0 dh=-233 dv=0 dx=0 dy=0 dh=0 dv=0
PairPos2: "'kern' Horizontal Kerning in Arabic lookup 2 per glyph data 3" uniFB90 dx=-233 dy=0 dh=-233 dv=0 dx=0 dy=0 dh=0 dv=0
PairPos2: "'kern' Horizontal Kerning in Arabic lookup 2 per glyph data 3" uniFB94 dx=-233 dy=0 dh=-233 dv=0 dx=0 dy=0 dh=0 dv=0
PairPos2: "'kern' Horizontal Kerning in Arabic lookup 2 per glyph data 3" uniFEDB dx=-233 dy=0 dh=-233 dv=0 dx=0 dy=0 dh=0 dv=0
Colour: ffff
EndChar

StartChar: uniFEFB
Encoding: 65275 65275 199
Width: 1231
VWidth: 1839
Flags: HMW
AnchorPoint: "Anchor-2" 1025 1187 baselig 0
AnchorPoint: "Anchor-2" 390 1128 baselig 1
AnchorPoint: "Anchor-0" 286 0 baselig 1
AnchorPoint: "Anchor-0" 897 -3 baselig 0
LayerCount: 2
Fore
SplineSet
297 1147 m 0
 297 1191 330 1235 383 1235 c 0
 419 1235 453 1212 466 1177 c 0
 548 948 584 712 584 363 c 0
 584 315 544 276 496 276 c 0
 448 276 409 315 409 363 c 0
 409 702 376 912 302 1119 c 0
 299 1128 297 1137 297 1147 c 0
936 1203 m 0
 936 1249 973 1290 1023 1290 c 0
 1067 1290 1106 1256 1110 1211 c 0
 1129 999 1138 839 1138 520 c 0
 1138 130 996 -42 593 -42 c 0
 439 -42 307 -34 167 -13 c 0
 124 -7 93 32 93 74 c 0
 93 125 135 161 180 161 c 0
 184 161 189 162 193 161 c 0
 325 142 445 132 593 132 c 0
 920 132 964 190 964 520 c 0
 964 837 955 985 936 1195 c 0
 936 1198 936 1200 936 1203 c 0
EndSplineSet
Ligature2: "'rlig' Required Ligatures in Arabic lookup 7 subtable" uniFEDF uniFE8E
PairPos2: "'kern' Horizontal Kerning in Arabic lookup 2 per glyph data 0" uni062C dx=-134 dy=0 dh=-134 dv=0 dx=0 dy=0 dh=0 dv=0
PairPos2: "'kern' Horizontal Kerning in Arabic lookup 2 per glyph data 0" uni062D dx=-134 dy=0 dh=-134 dv=0 dx=0 dy=0 dh=0 dv=0
PairPos2: "'kern' Horizontal Kerning in Arabic lookup 2 per glyph data 0" uni062E dx=-134 dy=0 dh=-134 dv=0 dx=0 dy=0 dh=0 dv=0
PairPos2: "'kern' Horizontal Kerning in Arabic lookup 2 per glyph data 0" uni0639 dx=-350 dy=0 dh=-350 dv=0 dx=0 dy=0 dh=0 dv=0
PairPos2: "'kern' Horizontal Kerning in Arabic lookup 2 per glyph data 0" uni063A dx=-350 dy=0 dh=-350 dv=0 dx=0 dy=0 dh=0 dv=0
PairPos2: "'kern' Horizontal Kerning in Arabic lookup 2 per glyph data 0" uni0686 dx=-134 dy=0 dh=-134 dv=0 dx=0 dy=0 dh=0 dv=0
LCarets2: 1 0
Colour: ffff
EndChar

StartChar: uniFEFC
Encoding: 65276 65276 200
Width: 1282
VWidth: 1839
Flags: HMW
AnchorPoint: "Anchor-0" 369 0 baselig 1
AnchorPoint: "Anchor-2" 350 1118 baselig 1
AnchorPoint: "Anchor-2" 919 1157 baselig 0
AnchorPoint: "Anchor-0" 901 -1 baselig 0
LayerCount: 2
Fore
SplineSet
441 350 m 0
 389 350 354 392 354 437 c 0
 354 442 354 449 355 454 c 0
 366 508 370 566 370 627 c 0
 370 819 322 967 267 1088 c 0
 262 1099 260 1111 260 1123 c 0
 260 1167 293 1211 346 1211 c 0
 379 1211 413 1192 427 1160 c 0
 488 1025 546 849 546 627 c 0
 546 558 540 488 527 420 c 0
 519 379 482 350 441 350 c 0
838 1166 m 0
 838 1212 874 1253 925 1253 c 0
 968 1253 1007 1220 1012 1176 c 0
 1042 925 1056 756 1056 514 c 0
 1056 204 1126 132 1282 132 c 0
 1330 132 1370 93 1370 45 c 0
 1370 -3 1330 -42 1282 -42 c 0
 1121 -42 1015 27 952 145 c 1
 841 2 654 -42 446 -42 c 0
 359 -42 267 -35 172 -26 c 0
 127 -22 93 17 93 61 c 0
 93 111 134 148 180 148 c 0
 183 148 185 148 188 148 c 0
 281 139 369 132 446 132 c 0
 741 132 880 180 880 514 c 0
 880 750 868 907 838 1156 c 0
 838 1159 838 1163 838 1166 c 0
EndSplineSet
Ligature2: "'rlig' Required Ligatures in Arabic lookup 7 subtable" uniFEE0 uniFE8E
PairPos2: "'kern' Horizontal Kerning in Arabic lookup 2 per glyph data 0" uni062C dx=-134 dy=0 dh=-134 dv=0 dx=0 dy=0 dh=0 dv=0
PairPos2: "'kern' Horizontal Kerning in Arabic lookup 2 per glyph data 0" uni062D dx=-134 dy=0 dh=-134 dv=0 dx=0 dy=0 dh=0 dv=0
PairPos2: "'kern' Horizontal Kerning in Arabic lookup 2 per glyph data 0" uni062E dx=-134 dy=0 dh=-134 dv=0 dx=0 dy=0 dh=0 dv=0
PairPos2: "'kern' Horizontal Kerning in Arabic lookup 2 per glyph data 0" uni0639 dx=-350 dy=0 dh=-350 dv=0 dx=0 dy=0 dh=0 dv=0
PairPos2: "'kern' Horizontal Kerning in Arabic lookup 2 per glyph data 0" uni063A dx=-350 dy=0 dh=-350 dv=0 dx=0 dy=0 dh=0 dv=0
PairPos2: "'kern' Horizontal Kerning in Arabic lookup 2 per glyph data 0" uni0686 dx=-134 dy=0 dh=-134 dv=0 dx=0 dy=0 dh=0 dv=0
LCarets2: 1 0
Colour: ffff
EndChar

StartChar: uni06CC
Encoding: 1740 1740 201
Width: 1347
VWidth: 2370
Flags: HMW
AnchorPoint: "Anchor-3" 382 628 basechar 0
AnchorPoint: "Anchor-1" 719 -559 basechar 0
LayerCount: 2
Back
SplineSet
159 300 m 0
 138 174 127 68 127 -20 c 0
 127 -334 369 -450 691 -450 c 0
 936 -450 1179 -333 1179 -134 c 0
 1179 57 1024 70 876 78 c 0
 687 88 555 136 555 325 c 0
 555 553 718 706 927 706 c 0
 983 706 1041 697 1100 673 c 1024
EndSplineSet
Fore
SplineSet
1222 637 m 0
 1222 586 1179 551 1134 551 c 0
 1117 551 1100 556 1085 566 c 0
 1039 598 992 610 944 610 c 0
 800 610 660 479 660 324 c 0
 660 194 739 170 929 167 c 0
 1151 164 1284 83 1284 -116 c 0
 1284 -375 1005 -512 671 -512 c 0
 300 -512 82 -359 82 -13 c 0
 82 78 94 180 117 295 c 0
 125 336 163 365 204 365 c 0
 256 365 291 323 291 278 c 0
 291 272 290 267 289 261 c 0
 268 154 258 62 258 -13 c 0
 258 -253 350 -338 671 -338 c 0
 985 -338 1110 -213 1110 -116 c 2
 1110 -97 l 2
 1110 -24 1103 -10 927 -7 c 0
 747 -4 486 34 486 324 c 0
 486 579 702 786 944 786 c 0
 1024 786 1109 762 1185 710 c 0
 1209 693 1222 665 1222 637 c 0
EndSplineSet
Substitution2: "'init' Initial Forms in Arabic lookup 6 subtable" uniFBFE
Substitution2: "'medi' Medial Forms in Arabic lookup 5 subtable" uniFBFF
Substitution2: "'fina' Terminal Forms in Arabic lookup 4 subtable" uniFBFD
Colour: ffff
EndChar

StartChar: uniFBFD
Encoding: 64509 64509 202
Width: 1382
VWidth: 1839
Flags: HMW
AnchorPoint: "Anchor-3" 724 206 basechar 0
AnchorPoint: "Anchor-1" 690 -549 basechar 0
LayerCount: 2
Fore
SplineSet
284 506 m 0
 337 506 370 462 370 418 c 0
 370 408 369 399 365 389 c 0
 305 225 268 66 268 -62 c 0
 268 -279 354 -422 703 -422 c 0
 1014 -422 1114 -296 1114 -234 c 0
 1114 -178 1049 -76 765 -42 c 0
 723 -37 688 -1 688 45 c 0
 688 92 727 132 775 132 c 2
 1382 132 l 2
 1430 132 1470 93 1470 45 c 0
 1470 -3 1430 -42 1382 -42 c 2
 1211 -42 l 1
 1261 -97 1288 -164 1288 -234 c 0
 1288 -460 1034 -598 703 -598 c 0
 276 -598 92 -367 92 -62 c 0
 92 98 137 273 201 449 c 0
 214 484 248 506 284 506 c 0
EndSplineSet
Colour: ffff
EndChar

StartChar: uniFB8F
Encoding: 64399 64399 205
Width: 1941
VWidth: 1478
Flags: HMW
AnchorPoint: "Anchor-1" 768 -65 basechar 0
AnchorPoint: "Anchor-3" 1305 1197 basechar 0
LayerCount: 2
Fore
SplineSet
889 951 m 0
 889 998 928 1038 976 1038 c 0
 999 1038 1021 1030 1038 1013 c 0
 1216 833 1373 651 1451 460 c 0
 1584 135 1604 132 1924 132 c 0
 1930 132 1935 132 1941 132 c 0
 1989 132 2029 93 2029 45 c 0
 2029 -3 1989 -42 1941 -42 c 0
 1573 -42 1440 24 1289 394 c 0
 1227 545 1086 715 914 889 c 0
 897 906 889 929 889 951 c 0
EndSplineSet
Refer: 92 1705 N 1 0 0 1 0 0 2
Colour: ffff
EndChar

StartChar: uniFBE8
Encoding: 64488 64488 218
Width: 512
VWidth: 1437
Flags: HMW
AnchorPoint: "Anchor-3" 276 732 basechar 0
AnchorPoint: "Anchor-1" 274 45 basechar 0
LayerCount: 2
Fore
SplineSet
205 665 m 0
 205 709 238 753 291 753 c 0
 328 753 363 729 375 692 c 0
 414 566 440 452 440 349 c 0
 440 246 418 145 346 70 c 0
 268 -11 150 -42 0 -42 c 0
 -48 -42 -87 -3 -87 45 c 0
 -87 93 -48 132 0 132 c 0
 129 132 190 161 220 192 c 0
 248 221 264 267 264 349 c 0
 264 424 246 524 209 640 c 0
 206 648 205 656 205 665 c 0
EndSplineSet
Colour: ffff
EndChar

StartChar: uniFBE9
Encoding: 64489 64489 219
Width: 811
VWidth: 1437
Flags: HMW
AnchorPoint: "Anchor-3" 233 565 basechar 0
AnchorPoint: "Anchor-1" 211 0 basechar 0
LayerCount: 2
Fore
SplineSet
308 532 m 0
 308 576 343 619 395 619 c 0
 439 619 477 586 482 541 c 0
 497 402 511 247 577 186 c 0
 611 155 674 132 811 132 c 0
 859 132 899 93 899 45 c 0
 899 -3 859 -42 811 -42 c 0
 628 -42 493 -3 414 110 c 1
 330 -5 189 -42 0 -42 c 0
 -48 -42 -88 -3 -88 45 c 0
 -88 93 -48 132 0 132 c 0
 167 132 235 165 268 207 c 0
 300 247 314 336 314 425 c 0
 314 456 308 498 308 532 c 0
EndSplineSet
Colour: ffff
EndChar

StartChar: uniFEE3
Encoding: 65251 65251 222
Width: 1016
VWidth: 2370
Flags: HMW
AnchorPoint: "Anchor-3" 593 677 basechar 0
AnchorPoint: "Anchor-1" 583 -28 basechar 0
LayerCount: 2
Fore
SplineSet
346 188 m 1
 363 187 380 181 394 170 c 0
 447 129 526 102 596 102 c 0
 698 102 768 140 768 278 c 0
 768 445 664 530 593 530 c 0
 507 530 450 453 395 306 c 0
 380 266 364 226 346 188 c 1
263 62 m 1
 201 -3 111 -42 0 -42 c 0
 -48 -42 -87 -3 -87 45 c 0
 -87 93 -48 132 0 132 c 0
 91 132 127 162 163 218 c 0
 187 255 208 307 231 368 c 0
 284 511 377 706 593 706 c 0
 792 706 944 511 944 278 c 0
 944 36 768 -72 596 -72 c 0
 486 -72 375 -35 288 32 c 0
 278 40 269 50 263 62 c 1
EndSplineSet
Colour: ffff
EndChar

StartChar: uniE000
Encoding: 57344 57344 223
Width: 499
VWidth: 2413
Flags: HMW
LayerCount: 2
Fore
SplineSet
95 147 m 0
 95 205 154 251 220 251 c 0
 286 251 324 207 324 141 c 0
 324 75 279 18 213 18 c 0
 147 18 95 82 95 147 c 0
EndSplineSet
Colour: ff0000
EndChar

StartChar: uniE001
Encoding: 57345 57345 224
Width: 660
VWidth: 1823
Flags: HMW
LayerCount: 2
Fore
SplineSet
118 12 m 0
 73 12 31 49 31 99 c 0
 31 126 43 152 66 169 c 0
 148 229 256 270 380 270 c 0
 452 270 548 264 602 184 c 0
 619 159 628 129 628 99 c 0
 628 38 591 -3 538 -3 c 0
 485 -3 450 40 451 87 c 1
 438 92 411 96 380 96 c 0
 294 96 224 69 170 29 c 0
 155 18 136 12 118 12 c 0
EndSplineSet
Colour: ffff
EndChar

StartChar: uniE002
Encoding: 57346 57346 225
Width: 696
VWidth: 1823
Flags: HMW
LayerCount: 2
Fore
SplineSet
85 294 m 0
 40 294 -2 331 -2 381 c 0
 -2 408 10 435 33 452 c 0
 105 505 262 552 402 552 c 0
 471 552 567 540 615 455 c 0
 630 429 636 399 636 370 c 0
 636 214 469 70 345 34 c 0
 337 32 330 31 322 31 c 0
 278 31 234 64 234 117 c 0
 234 155 259 191 297 202 c 0
 354 218 456 328 461 368 c 1
 453 372 431 376 402 376 c 0
 306 376 155 323 137 310 c 0
 122 299 103 294 85 294 c 0
EndSplineSet
Colour: ffff
EndChar

StartChar: uniE003
Encoding: 57347 57347 226
Width: 696
VWidth: 1823
Flags: HMW
LayerCount: 2
Fore
SplineSet
474 39 m 0
 423 39 388 82 388 127 c 0
 388 170 416 176 416 230 c 0
 416 281 380 318 308 318 c 0
 252 318 210 273 210 234 c 0
 210 178 234 154 292 101 c 0
 311 84 320 60 320 36 c 0
 320 -12 280 -51 233 -51 c 0
 212 -51 191 -44 174 -29 c 0
 118 22 34 100 34 234 c 0
 34 385 168 494 308 494 c 0
 454 494 590 393 590 230 c 0
 590 150 559 39 474 39 c 0
EndSplineSet
Colour: ffff
EndChar

StartChar: uniE004
Encoding: 57348 57348 227
Width: 1959
VWidth: 2370
Flags: HMW
AnchorPoint: "Anchor-3" 852 553 basechar 0
AnchorPoint: "Anchor-1" 796 -25 basechar 0
LayerCount: 2
Fore
SplineSet
1653 556 m 0
 1653 524 1650 493 1650 465 c 0
 1650 201 1729 132 1959 132 c 0
 2007 132 2046 93 2046 45 c 0
 2046 -3 2007 -42 1959 -42 c 0
 1745 -42 1577 35 1510 226 c 1
 1342 17 1062 -72 711 -72 c 0
 336 -72 72 96 72 414 c 0
 72 487 87 566 113 649 c 0
 125 686 160 710 197 710 c 0
 250 710 283 666 283 622 c 0
 283 614 283 605 280 597 c 0
 258 526 248 465 248 414 c 0
 248 226 378 102 711 102 c 0
 1172 102 1417 261 1480 573 c 0
 1488 613 1524 643 1566 643 c 0
 1614 643 1653 603 1653 556 c 0
EndSplineSet
Colour: ffff
EndChar

StartChar: uniE005
Encoding: 57349 57349 228
Width: 852
VWidth: 2370
Flags: HMW
AnchorPoint: "Anchor-3" 438 1141 basechar 0
AnchorPoint: "Anchor-1" 380 0 basechar 0
LayerCount: 2
Fore
SplineSet
435 502 m 0
 497 502 549 520 600 537 c 1
 581 816 500 958 418 958 c 0
 314 958 238 821 238 665 c 0
 238 543 286 502 435 502 c 0
418 1134 m 0
 736 1134 780 693 780 399 c 0
 780 41 433 -42 0 -42 c 0
 -48 -42 -87 -3 -87 45 c 0
 -87 93 -48 132 0 132 c 0
 417 132 578 209 601 352 c 1
 551 337 495 328 435 328 c 0
 230 328 62 433 62 665 c 0
 62 839 148 1134 418 1134 c 0
EndSplineSet
Colour: ffff
EndChar

StartChar: uniE006
Encoding: 57350 57350 229
Width: 945
VWidth: 2370
Flags: HMW
AnchorPoint: "Anchor-3" 552 921 basechar 0
AnchorPoint: "Anchor-1" 367 0 basechar 0
LayerCount: 2
Fore
SplineSet
470 236 m 1
 590 299 664 388 664 499 c 0
 664 637 591 720 483 720 c 0
 368 720 280 629 280 504 c 0
 280 388 352 300 470 236 c 1
469 43 m 1
 330 -13 157 -42 0 -42 c 0
 -48 -42 -87 -3 -87 45 c 0
 -87 93 -48 132 0 132 c 0
 88 132 181 143 268 163 c 1
 171 247 106 363 106 504 c 0
 106 715 264 896 483 896 c 0
 709 896 840 703 840 499 c 0
 840 359 771 244 674 162 c 1
 760 142 853 132 945 132 c 0
 993 132 1032 93 1032 45 c 0
 1032 -3 993 -42 945 -42 c 0
 781 -42 607 -13 469 43 c 1
EndSplineSet
Colour: ffff
EndChar

StartChar: uni064E
Encoding: 1614 1614 230
Width: 0
VWidth: -1171
Flags: HMW
AnchorPoint: "Anchor-5" 206 944 mark 0
AnchorPoint: "Anchor-2" 206 944 mark 0
AnchorPoint: "Anchor-3" 206 944 mark 0
AnchorPoint: "Anchor-5" 206 1404 basemark 0
LayerCount: 2
Fore
SplineSet
15 1296 m 0
 -7 1296 -30 1314 -30 1341 c 0
 -30 1360 -18 1377 -0 1383 c 2
 405 1527 l 2
 410 1529 415 1530 420 1530 c 0
 442 1530 465 1512 465 1485 c 0
 465 1466 453 1449 435 1443 c 2
 30 1299 l 2
 25 1297 20 1296 15 1296 c 0
EndSplineSet
Colour: ffff00
EndChar

StartChar: uni064F
Encoding: 1615 1615 234
Width: 0
VWidth: 2274
Flags: HMW
AnchorPoint: "Anchor-5" 162 858 mark 0
AnchorPoint: "Anchor-5" 171 1537 basemark 0
AnchorPoint: "Anchor-3" 162 858 mark 0
AnchorPoint: "Anchor-2" 162 858 mark 0
LayerCount: 2
Fore
SplineSet
231 1436 m 1
 233 1451 235 1469 235 1488 c 0
 235 1587 220 1633 191 1633 c 0
 145 1633 102 1571 102 1508 c 0
 102 1480 141 1450 231 1436 c 1
400 1383 m 0
 400 1358 380 1338 355 1338 c 0
 337 1338 317 1339 295 1340 c 1
 239 1228 117 1191 -32 1183 c 0
 -33 1183 -34 1183 -35 1183 c 0
 -59 1183 -80 1203 -80 1228 c 0
 -80 1251 -61 1272 -37 1273 c 0
 83 1280 158 1305 196 1351 c 1
 119 1366 12 1403 12 1508 c 0
 12 1593 67 1723 191 1723 c 0
 322 1723 325 1570 325 1498 c 2
 325 1488 l 2
 325 1467 324 1448 321 1429 c 1
 333 1429 345 1428 355 1428 c 0
 380 1428 400 1408 400 1383 c 0
EndSplineSet
Colour: ffff00
EndChar

StartChar: uni0651
Encoding: 1617 1617 235
Width: 0
VWidth: 2279
Flags: HMW
AnchorPoint: "Anchor-5" 239 858 mark 0
AnchorPoint: "Anchor-5" 239 1330 basemark 0
AnchorPoint: "Anchor-3" 239 858 mark 0
AnchorPoint: "Anchor-2" 239 858 mark 0
LayerCount: 2
Fore
SplineSet
373 1560 m 0
 373 1582 391 1605 418 1605 c 0
 435 1605 452 1595 459 1578 c 0
 481 1529 508 1450 508 1374 c 0
 508 1276 445 1218 364 1218 c 0
 311 1218 267 1247 238 1290 c 1
 208 1247 162 1219 110 1219 c 0
 37 1219 -29 1269 -29 1360 c 0
 -29 1427 2 1496 40 1545 c 0
 49 1556 62 1563 76 1563 c 0
 102 1563 121 1541 121 1518 c 0
 121 1508 118 1499 112 1491 c 0
 84 1454 61 1399 61 1360 c 0
 61 1319 77 1309 110 1309 c 0
 144 1309 189 1344 194 1444 c 0
 195 1465 213 1487 239 1487 c 0
 262 1487 283 1468 284 1444 c 0
 290 1342 332 1308 364 1308 c 0
 399 1308 418 1318 418 1374 c 0
 418 1428 395 1501 377 1542 c 0
 374 1548 373 1554 373 1560 c 0
EndSplineSet
Colour: ffff00
EndChar

StartChar: uni0670
Encoding: 1648 1648 236
Width: 0
VWidth: 1823
Flags: HMW
AnchorPoint: "Anchor-5" 33 861 mark 0
AnchorPoint: "Anchor-5" 33 1413 basemark 0
AnchorPoint: "Anchor-3" 33 861 mark 0
AnchorPoint: "Anchor-2" 33 861 mark 0
LayerCount: 2
Fore
SplineSet
-31 1623 m 0
 -31 1647 -12 1668 14 1668 c 0
 37 1668 57 1651 59 1628 c 0
 67 1550 71 1479 71 1409 c 0
 71 1335 64 1260 39 1185 c 0
 33 1166 15 1154 -4 1154 c 0
 -31 1154 -49 1176 -49 1199 c 0
 -49 1204 -49 1208 -47 1213 c 0
 -26 1276 -19 1341 -19 1409 c 0
 -19 1476 -31 1546 -31 1623 c 0
EndSplineSet
Colour: ffff00
EndChar

StartChar: uni064C
Encoding: 1612 1612 237
Width: 0
VWidth: 2274
Flags: HMW
AnchorPoint: "Anchor-5" 180 858 mark 0
AnchorPoint: "Anchor-5" 187 1497 basemark 0
AnchorPoint: "Anchor-3" 180 858 mark 0
AnchorPoint: "Anchor-2" 180 858 mark 0
LayerCount: 2
Fore
SplineSet
-136 1417 m 0
 -191 1417 -200 1514 -200 1561 c 0
 -200 1753 -31 1921 129 1933 c 0
 130 1933 131 1933 132 1933 c 0
 156 1933 177 1914 177 1888 c 0
 177 1865 158 1845 135 1843 c 0
 27 1835 -110 1703 -110 1561 c 0
 -110 1533 -105 1507 -94 1479 c 0
 -92 1474 -91 1467 -91 1462 c 0
 -91 1440 -109 1417 -136 1417 c 0
EndSplineSet
Refer: 234 1615 N 1 0 0 1 0 0 2
Colour: ffff00
EndChar

StartChar: uni0652
Encoding: 1618 1618 238
Width: 0
VWidth: 2274
Flags: HMW
AnchorPoint: "Anchor-5" 183 944 mark 0
AnchorPoint: "Anchor-5" 167 1441 basemark 0
AnchorPoint: "Anchor-3" 183 944 mark 0
AnchorPoint: "Anchor-2" 183 944 mark 0
LayerCount: 2
Fore
SplineSet
176 1634 m 0
 286 1634 358 1543 358 1452 c 0
 358 1339 276 1252 175 1252 c 0
 68 1252 -8 1341 -8 1434 c 0
 -8 1545 76 1634 176 1634 c 0
176 1544 m 0
 132 1544 82 1501 82 1434 c 0
 82 1389 122 1342 175 1342 c 0
 222 1342 268 1381 268 1452 c 0
 268 1499 232 1544 176 1544 c 0
EndSplineSet
Colour: ffff00
EndChar

StartChar: uni0653
Encoding: 1619 1619 239
Width: 0
VWidth: 1823
Flags: HMW
AnchorPoint: "Anchor-5" 308 858 mark 0
AnchorPoint: "Anchor-5" 316 1325 basemark 0
AnchorPoint: "Anchor-3" 308 858 mark 0
AnchorPoint: "Anchor-2" 308 858 mark 0
LayerCount: 2
Fore
SplineSet
571 1461 m 0
 598 1461 616 1439 616 1416 c 0
 616 1410 615 1403 612 1397 c 0
 578 1325 519 1243 419 1243 c 0
 375 1243 330 1259 281 1292 c 0
 247 1316 219 1324 194 1324 c 0
 147 1324 101 1293 68 1236 c 0
 60 1222 45 1213 29 1213 c 0
 2 1213 -16 1235 -16 1258 c 0
 -16 1266 -14 1273 -10 1280 c 0
 33 1355 105 1414 194 1414 c 0
 241 1414 287 1396 331 1366 c 0
 368 1341 399 1333 419 1333 c 0
 461 1333 498 1369 530 1435 c 0
 538 1451 554 1461 571 1461 c 0
EndSplineSet
Colour: ffff00
EndChar

StartChar: uni0654
Encoding: 1620 1620 240
Width: 0
VWidth: 2280
Flags: HMW
AnchorPoint: "Anchor-5" 236 858 mark 0
AnchorPoint: "Anchor-5" 236 1503 basemark 0
AnchorPoint: "Anchor-3" 236 858 mark 0
AnchorPoint: "Anchor-2" 236 858 mark 0
LayerCount: 2
Fore
SplineSet
397 1587 m 0
 397 1564 378 1542 352 1542 c 0
 338 1542 325 1548 316 1560 c 0
 289 1597 259 1609 228 1609 c 0
 165 1609 95 1547 95 1463 c 0
 95 1394 134 1368 221 1368 c 0
 275 1368 338 1381 404 1404 c 0
 409 1406 414 1406 419 1406 c 0
 442 1406 464 1388 464 1361 c 0
 464 1342 452 1325 434 1319 c 2
 29 1178 l 2
 24 1176 19 1175 14 1175 c 0
 -8 1175 -31 1193 -31 1220 c 0
 -31 1239 -19 1256 -1 1262 c 2
 105 1299 l 1
 45 1326 5 1384 5 1463 c 0
 5 1595 111 1699 228 1699 c 0
 287 1699 345 1671 388 1614 c 0
 394 1606 397 1596 397 1587 c 0
EndSplineSet
Colour: ffff00
EndChar

StartChar: uni0615
Encoding: 1557 1557 244
Width: 0
VWidth: 1839
Flags: HMW
AnchorPoint: "Anchor-5" 256 768 mark 0
AnchorPoint: "Anchor-5" 247 1347 basemark 0
AnchorPoint: "Anchor-3" 256 768 mark 0
AnchorPoint: "Anchor-2" 256 768 mark 0
LayerCount: 2
Fore
SplineSet
212 1203 m 1
 227 1202 243 1202 258 1202 c 0
 377 1202 470 1239 470 1309 c 0
 470 1347 439 1377 393 1377 c 0
 314 1377 251 1302 212 1203 c 1
106 1719 m 0
 106 1742 125 1764 151 1764 c 0
 172 1764 191 1748 195 1726 c 0
 210 1634 219 1539 219 1441 c 0
 219 1423 219 1404 218 1386 c 1
 263 1434 321 1467 393 1467 c 0
 481 1467 560 1403 560 1309 c 0
 560 1143 369 1112 258 1112 c 0
 159 1112 78 1126 -4 1148 c 0
 -24 1153 -37 1171 -37 1191 c 0
 -37 1218 -15 1236 8 1236 c 0
 12 1236 16 1235 20 1234 c 0
 51 1226 83 1219 114 1214 c 1
 124 1292 129 1368 129 1441 c 0
 129 1533 122 1624 107 1712 c 0
 107 1714 106 1717 106 1719 c 0
EndSplineSet
Colour: ffff00
EndChar

StartChar: uniE007
Encoding: 57351 57351 251
Width: 1067
VWidth: 1839
Flags: HMW
LayerCount: 2
Fore
SplineSet
168 1326 m 0
 124 1326 80 1360 80 1412 c 0
 80 1443 97 1474 126 1490 c 2
 720 1807 l 2
 733 1814 746 1817 760 1817 c 0
 804 1817 848 1783 848 1731 c 0
 848 1700 831 1669 802 1653 c 2
 208 1336 l 2
 195 1329 182 1326 168 1326 c 0
EndSplineSet
Colour: ffff
EndChar

StartChar: uni0643
Encoding: 1603 1603 261
Width: 1610
VWidth: 1478
Flags: HMW
AnchorPoint: "Anchor-3" 801 883 basechar 0
AnchorPoint: "Anchor-1" 713 -30 basechar 0
LayerCount: 2
Fore
SplineSet
1276 1136 m 2
 1276 1182 1312 1223 1363 1223 c 0
 1407 1223 1445 1190 1450 1146 c 0
 1477 905 1498 709 1498 441 c 0
 1498 42 1194 -72 823 -72 c 0
 491 -72 72 -26 72 382 c 0
 72 454 85 533 110 622 c 0
 121 660 157 686 195 686 c 0
 248 686 282 642 282 598 c 0
 282 590 280 584 278 576 c 0
 256 499 248 434 248 382 c 0
 248 156 461 102 823 102 c 0
 1174 102 1322 178 1322 441 c 0
 1322 699 1303 885 1276 1126 c 1
 1276 1136 l 2
EndSplineSet
Refer: 240 1620 N 1 0 0 1 575 -647 2
Substitution2: "'init' Initial Forms in Arabic lookup 6 subtable" uniFEDB
Substitution2: "'medi' Medial Forms in Arabic lookup 5 subtable" uniFEDC
Substitution2: "'fina' Terminal Forms in Arabic lookup 4 subtable" uniFEDA
Colour: ffff
EndChar

StartChar: uni065A
Encoding: 1626 1626 265
Width: 0
VWidth: -365
Flags: HMW
AnchorPoint: "Anchor-5" 240 826 mark 0
AnchorPoint: "Anchor-5" 240 1381 basemark 0
AnchorPoint: "Anchor-3" 240 826 mark 0
AnchorPoint: "Anchor-2" 240 826 mark 0
LayerCount: 2
Fore
SplineSet
460 1569 m 0
 484 1569 505 1549 505 1524 c 0
 505 1512 500 1501 491 1492 c 0
 373 1378 288 1120 288 1004 c 1
 258 1004 228 1004 198 1004 c 1
 198 1120 113 1378 -5 1492 c 0
 -14 1501 -19 1512 -19 1524 c 0
 -19 1549 2 1569 26 1569 c 0
 37 1569 48 1564 57 1556 c 0
 141 1475 203 1351 243 1233 c 1
 282 1349 345 1475 429 1556 c 0
 438 1564 449 1569 460 1569 c 0
EndSplineSet
Colour: ffff00
EndChar

StartChar: uni0621
Encoding: 1569 1569 266
Width: 883
VWidth: 2280
Flags: HMW
AnchorPoint: "Anchor-3" 447 703 basechar 0
AnchorPoint: "Anchor-1" 437 117 basechar 0
LayerCount: 2
Fore
SplineSet
717 625 m 0
 717 585 683 550 642 550 c 0
 622 550 603 558 588 573 c 0
 549 614 509 629 457 629 c 0
 369 629 261 531 261 414 c 0
 261 339 289 276 445 276 c 0
 509 276 629 284 714 295 c 0
 717 295 720 296 723 296 c 0
 763 296 798 263 798 221 c 0
 798 182 766 152 737 147 c 0
 552 112 374 43 199 -64 c 0
 187 -71 174 -75 161 -75 c 0
 123 -75 85 -44 85 -0 c 0
 85 25 98 50 121 64 c 0
 175 97 229 126 284 153 c 1
 163 201 111 308 111 414 c 0
 111 613 277 779 457 779 c 0
 543 779 629 748 696 677 c 0
 710 663 717 644 717 625 c 0
EndSplineSet
Colour: ff00
EndChar

StartChar: uni0640
Encoding: 1600 1600 267
Width: 668
VWidth: 1437
Flags: HMW
AnchorPoint: "Anchor-1" 334 -169 basechar 0
AnchorPoint: "Anchor-3" 334 520 basechar 0
LayerCount: 2
Fore
SplineSet
-88 45 m 0
 -88 93 -48 132 0 132 c 2
 668 132 l 2
 716 132 756 93 756 45 c 0
 756 -3 716 -42 668 -42 c 2
 0 -42 l 2
 -48 -42 -88 -3 -88 45 c 0
EndSplineSet
Colour: ffff
EndChar

StartChar: uni0660
Encoding: 1632 1632 275
Width: 737
VWidth: 2694
Flags: HMW
LayerCount: 2
Fore
SplineSet
85 475 m 0
 85 639 233 754 392 754 c 0
 544 754 652 630 652 484 c 0
 652 333 541 185 380 185 c 0
 219 185 85 318 85 475 c 0
235 475 m 0
 235 404 301 335 380 335 c 0
 439 335 502 397 502 484 c 0
 502 558 456 604 392 604 c 0
 299 604 235 539 235 475 c 0
EndSplineSet
PairPos2: "'kern' Horizontal Kerning in Arabic lookup 3 per glyph data 0" uni0667 dx=-89 dy=0 dh=-89 dv=0 dx=0 dy=0 dh=0 dv=0
PairPos2: "'kern' Horizontal Kerning in Arabic lookup 3 per glyph data 0" uni0666 dx=-89 dy=0 dh=-89 dv=0 dx=0 dy=0 dh=0 dv=0
PairPos2: "'kern' Horizontal Kerning in Arabic lookup 3 per glyph data 0" uni0662 dx=-111 dy=0 dh=-111 dv=0 dx=0 dy=0 dh=0 dv=0
Colour: ff00
EndChar

StartChar: uni0661
Encoding: 1633 1633 276
Width: 580
VWidth: 1823
Flags: HMW
LayerCount: 2
Fore
SplineSet
93 1170 m 0
 93 1214 126 1258 179 1258 c 0
 215 1258 251 1235 263 1199 c 0
 408 775 488 494 488 0 c 0
 488 -48 448 -87 400 -87 c 0
 352 -87 313 -48 313 -0 c 0
 313 474 242 721 97 1143 c 0
 94 1152 93 1161 93 1170 c 0
EndSplineSet
Colour: ffff
EndChar

StartChar: uni0662
Encoding: 1634 1634 277
Width: 1014
VWidth: 1823
Flags: HMW
LayerCount: 2
Fore
SplineSet
93 1164 m 0
 93 1207 126 1252 179 1252 c 0
 215 1252 248 1229 261 1199 c 0
 310 1082 358 945 429 853 c 0
 481 786 530 756 578 756 c 0
 673 756 766 897 766 1196 c 0
 766 1244 806 1284 854 1284 c 0
 902 1284 942 1244 942 1196 c 0
 942 909 859 582 578 582 c 0
 541 582 506 589 473 601 c 1
 514 442 540 274 540 98 c 1
 541 93 l 1
 541 62 540 29 538 -5 c 0
 535 -51 496 -87 451 -87 c 0
 402 -87 364 -47 364 0 c 0
 364 30 366 64 366 98 c 0
 366 401 270 703 174 947 c 0
 143 1015 118 1080 98 1134 c 0
 94 1144 93 1154 93 1164 c 0
EndSplineSet
Colour: ffff
EndChar

StartChar: uni0663
Encoding: 1635 1635 278
Width: 1285
VWidth: 2315
Flags: HMW
LayerCount: 2
Fore
SplineSet
1026 1186 m 0
 1026 1231 1062 1273 1113 1273 c 0
 1155 1273 1192 1242 1199 1200 c 0
 1209 1139 1212 1082 1212 1035 c 0
 1212 864 1173 589 942 580 c 1
 839 580 766 639 721 708 c 1
 670 632 584 580 478 580 c 0
 468 580 457 581 447 582 c 1
 479 433 498 278 498 110 c 0
 498 75 498 31 497 -2 c 0
 496 -49 456 -87 409 -87 c 0
 361 -87 322 -47 322 0 c 0
 322 33 324 78 324 110 c 0
 324 348 277 571 217 771 c 1
 187 841 162 941 136 1021 c 0
 124 1057 110 1094 97 1131 c 0
 94 1140 93 1150 93 1159 c 0
 93 1203 126 1247 179 1247 c 0
 215 1247 250 1225 263 1189 c 0
 307 1065 343 957 381 831 c 1
 396 797 410 779 419 771 c 0
 430 761 441 756 478 756 c 0
 554 756 594 798 615 914 c 0
 622 951 624 993 624 1038 c 0
 624 1083 618 1127 618 1166 c 0
 618 1214 657 1253 705 1253 c 0
 753 1253 788 1211 792 1177 c 0
 796 1144 798 1110 799 1077 c 0
 804 1025 812 971 823 923 c 0
 852 799 894 757 938 756 c 0
 976 758 1038 846 1038 1035 c 0
 1038 1074 1035 1123 1027 1172 c 0
 1026 1177 1026 1181 1026 1186 c 0
EndSplineSet
Colour: ffff
EndChar

StartChar: uni0664
Encoding: 1636 1636 279
Width: 1037
VWidth: 2315
Flags: HMW
LayerCount: 2
Fore
SplineSet
876 167 m 0
 920 167 964 134 964 81 c 0
 964 47 945 14 912 -0 c 0
 801 -48 682 -72 562 -72 c 0
 390 -72 72 -48 72 199 c 0
 72 364 228 458 303 511 c 0
 340 537 366 563 375 577 c 1
 366 588 342 609 312 628 c 0
 245 669 96 746 96 905 c 0
 96 1195 466 1270 650 1270 c 0
 698 1270 738 1230 738 1182 c 0
 738 1134 698 1094 650 1094 c 0
 460 1094 272 1003 272 905 c 0
 272 874 319 829 404 776 c 0
 466 737 552 681 552 579 c 0
 552 476 469 413 403 367 c 0
 312 304 248 240 248 199 c 0
 248 162 348 102 562 102 c 0
 658 102 754 122 843 160 c 0
 854 165 865 167 876 167 c 0
EndSplineSet
Colour: ffff
EndChar

StartChar: uni0665
Encoding: 1637 1637 280
Width: 1150
VWidth: 2370
Flags: HMW
LayerCount: 2
Fore
SplineSet
566 877 m 1
 409 731 248 526 248 348 c 0
 248 196 357 102 583 102 c 0
 796 102 902 182 902 332 c 0
 902 513 755 708 566 877 c 1
225 1186 m 0
 225 1236 267 1273 312 1273 c 0
 330 1273 348 1268 363 1257 c 0
 424 1214 493 1164 564 1107 c 1
 579 1117 597 1122 614 1122 c 0
 661 1122 701 1085 701 1035 c 0
 701 1022 698 1010 693 998 c 1
 886 824 1078 598 1078 332 c 0
 1078 50 838 -72 583 -72 c 0
 309 -72 72 68 72 348 c 0
 72 610 271 839 430 990 c 1
 371 1036 313 1078 261 1115 c 0
 237 1132 225 1158 225 1186 c 0
EndSplineSet
PairPos2: "'kern' Horizontal Kerning in Arabic lookup 3 per glyph data 0" uni0667 dx=-89 dy=0 dh=-89 dv=0 dx=0 dy=0 dh=0 dv=0
PairPos2: "'kern' Horizontal Kerning in Arabic lookup 3 per glyph data 0" uni0666 dx=-45 dy=0 dh=-45 dv=0 dx=0 dy=0 dh=0 dv=0
Colour: ffff
EndChar

StartChar: uni0666
Encoding: 1638 1638 281
Width: 1136
VWidth: 2315
Flags: HMW
LayerCount: 2
Fore
SplineSet
160 1069 m 0
 115 1069 73 1104 73 1156 c 0
 73 1198 104 1235 146 1242 c 0
 235 1257 324 1264 412 1264 c 0
 670 1264 890 1167 890 856 c 0
 890 416 907 313 1035 37 c 0
 1040 25 1043 13 1043 1 c 0
 1043 -43 1009 -87 957 -87 c 0
 924 -87 892 -69 877 -37 c 0
 741 255 714 416 714 856 c 0
 714 1047 636 1088 412 1088 c 0
 332 1088 253 1083 174 1070 c 0
 169 1069 165 1069 160 1069 c 0
EndSplineSet
PairPos2: "'kern' Horizontal Kerning in Arabic lookup 3 per glyph data 0" uni0660 dx=-89 dy=0 dh=-89 dv=0 dx=0 dy=0 dh=0 dv=0
PairPos2: "'kern' Horizontal Kerning in Arabic lookup 3 per glyph data 0" uni066B dx=-134 dy=0 dh=-134 dv=0 dx=0 dy=0 dh=0 dv=0
PairPos2: "'kern' Horizontal Kerning in Arabic lookup 3 per glyph data 0" uni0668 dx=-89 dy=0 dh=-89 dv=0 dx=0 dy=0 dh=0 dv=0
Colour: ffff
EndChar

StartChar: uni0667
Encoding: 1639 1639 282
Width: 1158
VWidth: 2370
Flags: HMW
LayerCount: 2
Fore
SplineSet
73 1165 m 0
 73 1210 108 1253 159 1253 c 0
 188 1253 218 1239 234 1213 c 0
 388 969 512 753 593 482 c 1
 667 760 778 986 922 1240 c 0
 938 1268 968 1284 999 1284 c 0
 1051 1284 1085 1240 1085 1196 c 0
 1085 1181 1082 1167 1074 1154 c 0
 861 778 736 495 684 -9 c 0
 680 -50 645 -87 597 -87 c 0
 553 -87 515 -54 510 -9 c 0
 459 492 317 754 86 1119 c 0
 77 1133 73 1149 73 1165 c 0
EndSplineSet
PairPos2: "'kern' Horizontal Kerning in Arabic lookup 3 per glyph data 0" uni0660 dx=-89 dy=0 dh=-89 dv=0 dx=0 dy=0 dh=0 dv=0
PairPos2: "'kern' Horizontal Kerning in Arabic lookup 3 per glyph data 0" uni0665 dx=-89 dy=0 dh=-89 dv=0 dx=0 dy=0 dh=0 dv=0
PairPos2: "'kern' Horizontal Kerning in Arabic lookup 3 per glyph data 0" uni0668 dx=-134 dy=0 dh=-134 dv=0 dx=0 dy=0 dh=0 dv=0
PairPos2: "'kern' Horizontal Kerning in Arabic lookup 3 per glyph data 0" uni066B dx=-1002 dy=0 dh=-111 dv=0 dx=0 dy=0 dh=0 dv=0
Colour: ffff
EndChar

StartChar: uni0668
Encoding: 1640 1640 283
Width: 1168
VWidth: 1823
Flags: HMW
LayerCount: 2
Fore
SplineSet
1095 -13 m 0
 1095 -57 1060 -101 1009 -101 c 0
 979 -101 950 -86 934 -60 c 0
 778 192 658 410 579 682 c 1
 504 416 390 205 234 -46 c 0
 218 -72 189 -87 160 -87 c 0
 109 -87 73 -43 73 1 c 0
 73 17 77 32 86 46 c 0
 320 422 439 671 491 1175 c 0
 495 1216 530 1253 578 1253 c 0
 622 1253 660 1220 665 1175 c 0
 717 673 849 409 1082 32 c 0
 1091 18 1095 3 1095 -13 c 0
EndSplineSet
PairPos2: "'kern' Horizontal Kerning in Arabic lookup 3 per glyph data 0" uni0663 dx=-89 dy=0 dh=-89 dv=0 dx=0 dy=0 dh=0 dv=0
PairPos2: "'kern' Horizontal Kerning in Arabic lookup 3 per glyph data 0" uni0662 dx=-89 dy=0 dh=-89 dv=0 dx=0 dy=0 dh=0 dv=0
PairPos2: "'kern' Horizontal Kerning in Arabic lookup 3 per glyph data 0" uni0667 dx=-134 dy=0 dh=-134 dv=0 dx=0 dy=0 dh=0 dv=0
Colour: ffff
EndChar

StartChar: uni0669
Encoding: 1641 1641 284
Width: 1022
VWidth: 2315
Flags: HMW
LayerCount: 2
Fore
SplineSet
641 651 m 1
 639 689 637 729 636 769 c 0
 627 1007 574 1112 451 1112 c 0
 332 1112 248 977 248 823 c 0
 248 699 323 652 484 652 c 0
 527 652 579 657 592 659 c 0
 608 661 626 658 641 651 c 1
929 1 m 0
 929 -43 895 -87 843 -87 c 0
 811 -87 780 -71 765 -41 c 0
 690 102 664 284 649 498 c 1
 638 491 626 487 614 485 c 0
 593 482 539 478 484 478 c 0
 289 478 72 565 72 823 c 0
 72 1015 182 1286 451 1286 c 0
 738 1286 803 1005 811 775 c 0
 813 707 816 643 819 582 c 0
 832 340 860 156 920 41 c 0
 927 28 929 15 929 1 c 0
EndSplineSet
PairPos2: "'kern' Horizontal Kerning in Arabic lookup 3 per glyph data 0" uni066B dx=-67 dy=0 dh=-67 dv=0 dx=0 dy=0 dh=0 dv=0
PairPos2: "'kern' Horizontal Kerning in Arabic lookup 3 per glyph data 0" uni0668 dx=-134 dy=0 dh=-134 dv=0 dx=0 dy=0 dh=0 dv=0
PairPos2: "'kern' Horizontal Kerning in Arabic lookup 3 per glyph data 0" uni0665 dx=-45 dy=0 dh=-45 dv=0 dx=0 dy=0 dh=0 dv=0
Colour: ffff
EndChar

StartChar: uni06F4
Encoding: 1780 1780 290
Width: 1118
VWidth: 2370
Flags: HMW
LayerCount: 2
Fore
SplineSet
938 690 m 0
 984 690 1025 653 1025 603 c 0
 1025 559 992 520 947 516 c 0
 903 512 862 510 824 510 c 0
 664 510 533 542 426 595 c 1
 479 407 496 211 496 0 c 0
 496 -48 456 -87 408 -87 c 0
 360 -87 321 -48 321 -0 c 0
 321 345 274 622 106 883 c 0
 98 896 94 912 94 929 c 0
 94 975 131 1017 180 1017 c 0
 207 1017 234 1005 251 981 c 0
 289 927 331 876 382 832 c 1
 417 1063 542 1257 799 1327 c 0
 806 1329 814 1330 821 1330 c 0
 865 1330 909 1297 909 1244 c 0
 909 1206 884 1169 845 1159 c 0
 645 1105 558 955 548 731 c 1
 623 702 712 686 824 686 c 0
 861 686 900 690 938 690 c 0
EndSplineSet
PairPos2: "'kern' Horizontal Kerning in Arabic lookup 3 per glyph data 1" uni06F0 dx=100 dy=0 dh=100 dv=0 dx=0 dy=0 dh=0 dv=0
PairPos2: "'kern' Horizontal Kerning in Arabic lookup 3 per glyph data 1" uni06F8 dx=-111 dy=0 dh=-111 dv=0 dx=0 dy=0 dh=0 dv=0
Colour: ffff
EndChar

StartChar: uni06F5
Encoding: 1781 1781 291
Width: 1155
VWidth: 2370
Flags: HMW
LayerCount: 2
Fore
SplineSet
594 876 m 1
 415 749 248 549 248 317 c 0
 248 139 326 100 378 100 c 0
 412 100 458 119 499 182 c 0
 514 205 542 222 572 222 c 0
 598 222 623 211 640 190 c 0
 692 126 750 98 772 98 c 0
 823 98 908 159 908 342 c 0
 908 518 762 718 594 876 c 1
279 1169 m 0
 279 1220 321 1256 366 1256 c 0
 383 1256 399 1252 414 1242 c 0
 466 1207 536 1157 612 1094 c 1
 624 1099 636 1102 649 1102 c 0
 694 1102 737 1067 737 1015 c 0
 737 1005 736 995 733 986 c 1
 904 821 1082 597 1082 342 c 0
 1082 117 965 -76 772 -76 c 0
 697 -76 631 -40 576 6 c 1
 518 -46 449 -74 378 -74 c 0
 204 -74 72 81 72 317 c 0
 72 617 269 850 458 994 c 1
 404 1037 354 1071 317 1096 c 0
 292 1113 279 1140 279 1169 c 0
EndSplineSet
PairPos2: "'kern' Horizontal Kerning in Arabic lookup 3 per glyph data 1" uni06F2 dx=-22 dy=0 dh=-22 dv=0 dx=0 dy=0 dh=0 dv=0
PairPos2: "'kern' Horizontal Kerning in Arabic lookup 3 per glyph data 1" uni06F3 dx=-22 dy=0 dh=-22 dv=0 dx=0 dy=0 dh=0 dv=0
PairPos2: "'kern' Horizontal Kerning in Arabic lookup 3 per glyph data 1" uni06F7 dx=-89 dy=0 dh=-89 dv=0 dx=0 dy=0 dh=0 dv=0
PairPos2: "'kern' Horizontal Kerning in Arabic lookup 3 per glyph data 1" uni06F9 dx=-67 dy=0 dh=-67 dv=0 dx=0 dy=0 dh=0 dv=0
Colour: ffff
EndChar

StartChar: uni06F6
Encoding: 1782 1782 292
Width: 976
VWidth: 2370
Flags: HMW
LayerCount: 2
Fore
SplineSet
770 1136 m 0
 770 1086 728 1049 683 1049 c 0
 665 1049 646 1054 631 1066 c 0
 586 1099 542 1112 501 1112 c 0
 376 1112 248 984 248 839 c 0
 248 714 357 642 528 642 c 0
 622 642 701 666 782 701 c 0
 793 706 804 707 815 707 c 0
 858 707 903 674 903 622 c 0
 903 587 880 555 855 542 c 0
 574 400 403 213 263 -42 c 0
 247 -71 216 -87 185 -87 c 0
 133 -87 99 -43 99 1 c 0
 99 15 102 29 109 42 c 0
 199 206 305 350 443 473 c 1
 263 496 72 609 72 839 c 0
 72 1076 268 1286 501 1286 c 0
 580 1286 662 1261 735 1206 c 0
 758 1189 770 1163 770 1136 c 0
EndSplineSet
Colour: ffff
EndChar

StartChar: uni066B
Encoding: 1643 1643 296
Width: 454
VWidth: 1823
Flags: HMW
LayerCount: 2
Fore
SplineSet
355 591 m 0
 408 591 441 547 441 503 c 0
 441 492 439 480 434 469 c 2
 52 -418 l 2
 38 -451 5 -470 -29 -470 c 0
 -82 -470 -115 -426 -115 -382 c 0
 -115 -371 -113 -359 -108 -348 c 2
 274 539 l 2
 288 572 321 591 355 591 c 0
EndSplineSet
PairPos2: "'kern' Horizontal Kerning in Arabic lookup 3 per glyph data 1" uni06F7 dx=-89 dy=0 dh=-89 dv=0 dx=0 dy=0 dh=0 dv=0
PairPos2: "'kern' Horizontal Kerning in Arabic lookup 3 per glyph data 1" uni06F0 dx=-45 dy=0 dh=-45 dv=0 dx=0 dy=0 dh=0 dv=0
PairPos2: "'kern' Horizontal Kerning in Arabic lookup 3 per glyph data 1" uni06F3 dx=-67 dy=0 dh=-67 dv=0 dx=0 dy=0 dh=0 dv=0
PairPos2: "'kern' Horizontal Kerning in Arabic lookup 3 per glyph data 1" uni06F2 dx=-89 dy=0 dh=-89 dv=0 dx=0 dy=0 dh=0 dv=0
PairPos2: "'kern' Horizontal Kerning in Arabic lookup 3 per glyph data 0" uni0663 dx=-134 dy=0 dh=-134 dv=0 dx=0 dy=0 dh=0 dv=0
PairPos2: "'kern' Horizontal Kerning in Arabic lookup 3 per glyph data 0" uni0662 dx=-89 dy=0 dh=-89 dv=0 dx=0 dy=0 dh=0 dv=0
PairPos2: "'kern' Horizontal Kerning in Arabic lookup 3 per glyph data 1" uni066B dx=-45 dy=0 dh=-45 dv=0 dx=0 dy=0 dh=0 dv=0
PairPos2: "'kern' Horizontal Kerning in Arabic lookup 3 per glyph data 0" uni0667 dx=-89 dy=0 dh=-89 dv=0 dx=0 dy=0 dh=0 dv=0
Colour: ffff
EndChar

StartChar: uni060C
Encoding: 1548 1548 298
Width: 644
VWidth: 1839
Flags: HMW
LayerCount: 2
Fore
SplineSet
227 244 m 1
 226 231 225 217 225 204 c 0
 225 101 272 60 335 60 c 0
 390 60 419 102 419 168 c 0
 419 232 379 282 335 282 c 0
 316 282 293 270 288 261 c 0
 280 246 265 238 249 238 c 0
 242 238 234 240 227 244 c 1
351 649 m 0
 375 649 396 629 396 604 c 0
 396 592 391 581 382 572 c 0
 321 513 272 433 246 345 c 1
 277 367 307 372 335 372 c 0
 451 372 509 260 509 168 c 0
 509 76 456 -30 335 -30 c 0
 214 -30 135 67 135 204 c 0
 135 241 138 277 145 312 c 0
 169 438 234 553 320 636 c 0
 329 644 340 649 351 649 c 0
EndSplineSet
Colour: ffff00
EndChar

StartChar: quoteleft
Encoding: 8216 8216 300
Width: 644
VWidth: 1424
Flags: HMW
LayerCount: 2
Fore
SplineSet
227 1185 m 1
 234 1189 242 1191 249 1191 c 0
 265 1191 280 1183 288 1168 c 0
 293 1159 316 1147 335 1147 c 0
 379 1147 419 1197 419 1261 c 0
 419 1327 390 1369 335 1369 c 0
 272 1369 225 1328 225 1225 c 0
 225 1212 226 1198 227 1185 c 1
396 825 m 0
 396 800 375 780 351 780 c 0
 340 780 329 785 320 793 c 0
 234 876 169 991 145 1117 c 0
 138 1152 135 1188 135 1225 c 0
 135 1362 214 1459 335 1459 c 0
 456 1459 509 1353 509 1261 c 0
 509 1169 451 1057 335 1057 c 0
 307 1057 277 1062 246 1084 c 1
 272 996 321 916 382 857 c 0
 391 848 396 837 396 825 c 0
EndSplineSet
Colour: ffff00
EndChar

StartChar: uni061F
Encoding: 1567 1567 311
Width: 925
VWidth: 0
Flags: HMW
LayerCount: 2
Fore
SplineSet
366 89 m 0
 366 159 422 222 497 222 c 0
 570 222 630 162 630 89 c 0
 630 14 568 -42 497 -42 c 0
 425 -42 366 16 366 89 c 0
727 821 m 0
 675 821 641 865 641 909 c 0
 641 924 645 939 653 953 c 0
 661 967 678 1023 678 1066 c 0
 678 1165 612 1228 527 1228 c 0
 347 1228 248 1077 248 983 c 0
 248 948 298 888 390 809 c 0
 489 724 597 621 597 466 c 0
 597 419 557 379 509 379 c 0
 462 379 423 417 422 464 c 0
 417 657 72 739 72 983 c 0
 72 1171 243 1404 527 1404 c 0
 714 1404 852 1253 852 1066 c 0
 852 991 835 918 803 864 c 0
 787 837 757 821 727 821 c 0
EndSplineSet
Colour: ffff
EndChar

StartChar: section
Encoding: 167 167 313
Width: 916
VWidth: 2426
Flags: HMW
LayerCount: 2
Fore
SplineSet
847 1159 m 0
 847 1115 812 1072 760 1072 c 0
 720 1072 684 1100 675 1140 c 0
 660 1210 584 1258 472 1258 c 0
 356 1258 255 1173 247 1100 c 1
 249 1000 316 976 478 959 c 0
 629 943 854 862 854 632 c 0
 854 535 808 474 745 437 c 1
 808 384 854 310 854 209 c 0
 854 -24 596 -72 457 -72 c 0
 305 -72 185 -16 96 54 c 0
 74 71 63 97 63 123 c 0
 63 172 104 210 150 210 c 0
 169 210 188 205 204 192 c 0
 269 140 349 102 457 102 c 0
 598 102 678 154 678 209 c 0
 678 292 563 365 434 378 c 0
 298 392 70 451 70 673 c 0
 70 761 116 827 180 873 c 1
 117 920 72 991 72 1104 c 2
 72 1111 l 1
 88 1309 290 1434 472 1434 c 0
 624 1434 804 1364 845 1178 c 0
 846 1172 847 1165 847 1159 c 0
448 553 m 1
 606 554 678 589 678 632 c 0
 678 713 597 769 465 784 c 1
 329 782 246 702 246 673 c 0
 246 613 313 568 448 553 c 1
EndSplineSet
Colour: ffff
EndChar

StartChar: uni00B2
Encoding: 178 178 314
Width: 718
VWidth: 2426
Flags: HMW
LayerCount: 2
Fore
SplineSet
180 1253 m 0
 155 1253 135 1273 135 1298 c 0
 135 1412 214 1522 343 1522 c 0
 456 1522 533 1433 533 1327 c 0
 533 1193 454 1117 369 1035 c 2
 305 972 l 1
 536 985 l 1
 538 985 l 2
 562 985 583 965 583 940 c 0
 583 917 564 896 540 895 c 2
 189 876 l 1
 187 876 l 2
 162 876 142 897 142 921 c 0
 142 933 147 944 156 953 c 2
 307 1099 l 2
 396 1185 443 1233 443 1327 c 0
 443 1389 404 1432 343 1432 c 0
 274 1432 225 1374 225 1298 c 0
 225 1273 205 1253 180 1253 c 0
EndSplineSet
Colour: ffff00
EndChar

StartChar: uni00B3
Encoding: 179 179 315
Width: 664
VWidth: 2426
Flags: HMW
LayerCount: 2
Fore
SplineSet
209 1303 m 0
 182 1303 164 1325 164 1348 c 0
 164 1351 164 1355 165 1358 c 0
 182 1434 248 1504 343 1504 c 0
 441 1504 513 1419 513 1326 c 0
 513 1274 486 1234 452 1207 c 1
 496 1181 527 1136 529 1077 c 0
 529 948 422 875 310 875 c 0
 255 875 197 893 152 929 c 0
 141 938 135 951 135 964 c 0
 135 989 156 1009 180 1009 c 0
 190 1009 200 1006 208 999 c 0
 235 977 273 965 310 965 c 0
 386 965 438 1008 439 1075 c 0
 437 1118 403 1144 343 1144 c 0
 315 1144 284 1132 258 1132 c 0
 235 1132 213 1151 213 1177 c 0
 213 1211 242 1220 272 1226 c 0
 296 1232 319 1239 341 1247 c 0
 398 1269 423 1295 423 1326 c 0
 423 1375 385 1414 343 1414 c 0
 296 1414 262 1380 253 1338 c 0
 248 1317 230 1303 209 1303 c 0
EndSplineSet
Colour: ffff00
EndChar

StartChar: eth
Encoding: 240 240 316
Width: 1089
VWidth: 2426
Flags: HMW
LayerCount: 2
Fore
SplineSet
170 1421 m 0
 170 1474 214 1507 258 1507 c 0
 268 1507 278 1506 288 1502 c 0
 391 1462 482 1414 560 1360 c 1
 657 1419 750 1468 815 1489 c 0
 824 1492 832 1493 841 1493 c 0
 885 1493 929 1460 929 1407 c 0
 929 1370 906 1335 869 1323 c 0
 834 1312 776 1280 708 1240 c 1
 947 1008 1026 720 1026 525 c 0
 1026 159 803 -72 523 -72 c 0
 259 -72 62 164 62 427 c 0
 62 705 274 942 565 942 c 0
 613 942 653 902 653 854 c 0
 653 806 613 766 565 766 c 0
 376 766 238 617 238 427 c 0
 238 244 373 102 523 102 c 0
 693 102 852 231 852 525 c 0
 852 686 783 942 555 1143 c 1
 441 1067 333 986 293 941 c 0
 276 922 252 913 228 913 c 0
 180 913 141 953 141 1000 c 0
 141 1021 148 1043 163 1059 c 0
 212 1113 301 1185 400 1255 c 1
 348 1286 290 1313 226 1338 c 0
 192 1351 170 1386 170 1421 c 0
EndSplineSet
Colour: ffff
EndChar

StartChar: uni06DD
Encoding: 1757 1757 327
Width: 2048
VWidth: 0
LayerCount: 2
Back
SplineSet
236 -240 m 0
 1971 -240 l 1032
933 -410 m 0
 933 -316 1009 -240 1103 -240 c 0
 1197 -240 1273 -316 1273 -410 c 0
 1273 -504 1197 -580 1103 -580 c 0
 1009 -580 933 -504 933 -410 c 0
1103 -580 m 1024
427 -580 m 0
 1779 -580 l 1024
933 -750 m 0
 933 -656 1009 -580 1103 -580 c 0
 1197 -580 1273 -656 1273 -750 c 0
 1273 -844 1197 -920 1103 -920 c 0
 1009 -920 933 -844 933 -750 c 0
156 213 m 0
 156 838 580 1346 1103 1346 c 0
 1626 1346 2050 838 2050 213 c 0
 2050 -412 1626 -920 1103 -920 c 0
 580 -920 156 -412 156 213 c 0
EndSplineSet
EndChar

StartChar: uni06DE
Encoding: 1758 1758 328
Width: 2048
VWidth: 0
LayerCount: 2
Back
SplineSet
888 716 m 4
 888 860 1004 976 1148 976 c 4
 1292 976 1408 860 1408 716 c 4
 1408 572 1292 456 1148 456 c 4
 1004 456 888 572 888 716 c 4
1136 1694 m 5
 2134 696 l 5
 1144 -294 l 5
 146 704 l 5
 1136 1694 l 5
434 1400 m 5
 1846 1400 l 5
 1846 0 l 5
 434 0 l 5
 434 1400 l 5
EndSplineSet
EndChar

StartChar: uniE008
Encoding: 57352 57352 329
Width: 250
VWidth: 1437
Flags: HMW
LayerCount: 2
Fore
SplineSet
-88 45 m 0
 -88 93 -48 132 0 132 c 2
 250 132 l 2
 298 132 338 93 338 45 c 0
 338 -3 298 -42 250 -42 c 2
 0 -42 l 2
 -48 -42 -88 -3 -88 45 c 0
EndSplineSet
Colour: ffff
EndChar

StartChar: uniE009
Encoding: 57353 57353 330
Width: 150
VWidth: 1437
Flags: HMW
LayerCount: 2
Fore
SplineSet
-88 45 m 0
 -88 93 -48 132 0 132 c 2
 150 132 l 2
 198 132 238 93 238 45 c 0
 238 -3 198 -42 150 -42 c 2
 0 -42 l 2
 -48 -42 -88 -3 -88 45 c 0
EndSplineSet
Colour: ffff
EndChar

StartChar: underscore
Encoding: 95 95 331
Width: 600
VWidth: 1823
Flags: HMW
LayerCount: 2
Fore
SplineSet
688 45 m 0
 688 -3 648 -42 600 -42 c 2
 0 -42 l 2
 -48 -42 -88 -3 -88 45 c 0
 -88 93 -48 132 0 132 c 2
 600 132 l 2
 648 132 688 93 688 45 c 0
EndSplineSet
Colour: ffff
EndChar

StartChar: seven
Encoding: 55 55 332
Width: 1080
VWidth: 2426
Flags: HMW
LayerCount: 2
Fore
SplineSet
160 1178 m 2
 114 1178 73 1215 73 1265 c 0
 73 1310 108 1348 153 1352 c 2
 781 1403 l 2
 805 1407 823 1408 843 1408 c 0
 877 1408 939 1406 981 1350 c 0
 1000 1325 1008 1293 1008 1265 c 0
 1008 1231 999 1197 983 1165 c 0
 805 809 701 435 628 -14 c 0
 621 -56 584 -87 542 -87 c 0
 491 -87 455 -45 455 0 c 0
 455 5 455 9 456 14 c 0
 530 469 636 859 821 1232 c 1
 814 1231 807 1230 799 1229 c 2
 167 1178 l 1
 160 1178 l 2
EndSplineSet
Colour: ffff
EndChar

StartChar: nine
Encoding: 57 57 333
Width: 1208
VWidth: 2426
Flags: HMW
LayerCount: 2
Fore
SplineSet
575 570 m 0
 679 570 777 595 856 633 c 1
 866 683 872 743 872 795 c 0
 872 1125 708 1226 556 1226 c 0
 364 1226 248 1071 248 886 c 0
 248 651 394 570 575 570 c 0
1047 746 m 2
 1095 746 1135 707 1135 659 c 0
 1135 602 1081 569 1045 543 c 0
 1033 535 1021 526 1008 518 c 1
 938 262 779 25 524 -85 c 0
 513 -90 501 -92 490 -92 c 0
 446 -92 402 -59 402 -6 c 0
 402 28 421 61 454 75 c 0
 603 139 717 268 788 422 c 1
 721 404 649 394 575 394 c 0
 330 394 72 539 72 886 c 0
 72 1143 248 1400 556 1400 c 0
 814 1400 1046 1197 1046 795 c 0
 1046 779 1046 762 1045 746 c 1
 1047 746 l 2
EndSplineSet
Colour: ffff
EndChar

StartChar: uniFD3E
Encoding: 64830 64830 334
Width: 866
VWidth: 0
Flags: HMW
LayerCount: 2
Fore
SplineSet
569 1455 m 0
 621 1455 655 1411 655 1367 c 0
 655 1354 653 1341 647 1329 c 0
 577 1187 531 1061 507 927 c 1
 545 942 586 950 629 950 c 0
 728 950 804 871 804 774 c 0
 804 685 727 645 684 630 c 1
 706 602 722 566 722 524 c 0
 722 381 569 380 554 380 c 0
 541 380 529 381 516 383 c 1
 542 246 586 108 647 -17 c 0
 653 -29 655 -42 655 -55 c 0
 655 -99 621 -143 569 -143 c 0
 537 -143 505 -126 490 -95 c 0
 419 50 369 208 340 364 c 1
 309 350 274 342 237 342 c 0
 166 342 102 401 102 476 c 0
 102 541 126 599 165 642 c 1
 112 676 62 737 62 819 c 0
 62 945 189 966 234 966 c 0
 270 966 303 959 332 946 c 1
 359 1103 412 1251 489 1407 c 0
 504 1438 537 1455 569 1455 c 0
EndSplineSet
Colour: ffff
EndChar

StartChar: uniFD3F
Encoding: 64831 64831 335
Width: 861
VWidth: 0
Flags: HMW
LayerCount: 2
Fore
SplineSet
203 1367 m 0
 203 1411 237 1455 289 1455 c 0
 321 1455 354 1438 369 1407 c 0
 448 1245 502 1093 529 929 c 1
 560 942 593 950 630 950 c 0
 699 950 798 903 798 792 c 0
 798 720 757 662 708 631 c 1
 737 594 754 545 754 493 c 0
 754 373 639 344 593 344 c 0
 567 344 541 349 518 357 c 1
 489 202 440 49 369 -95 c 0
 354 -126 322 -143 289 -143 c 0
 237 -143 203 -99 203 -55 c 0
 203 -42 206 -29 212 -17 c 0
 271 103 313 229 339 357 c 1
 328 355 317 354 305 354 c 0
 220 354 142 430 142 526 c 0
 142 567 157 604 179 633 c 1
 132 652 62 695 62 781 c 0
 62 887 151 962 247 962 c 0
 283 962 317 955 348 943 c 1
 323 1071 278 1193 211 1329 c 0
 205 1341 203 1354 203 1367 c 0
335 539 m 1
 330 536 326 534 323 532 c 1
 327 534 331 535 335 539 c 1
EndSplineSet
Colour: ffff
EndChar

StartChar: dollar
Encoding: 36 36 336
Width: 1182
VWidth: 1823
Flags: HMW
LayerCount: 2
Fore
SplineSet
575 1706 m 0
 623 1706 662 1667 662 1619 c 2
 662 -142 l 2
 662 -190 623 -230 575 -230 c 0
 527 -230 488 -190 488 -142 c 2
 488 1619 l 2
 488 1667 527 1706 575 1706 c 0
EndSplineSet
Refer: 31 83 N 1 0 0 1 0 0 2
Colour: ffff
EndChar

StartChar: ampersand
Encoding: 38 38 337
Width: 1194
VWidth: 2426
Flags: HMW
LayerCount: 2
Fore
SplineSet
436 790 m 1
 449 795 462 801 474 806 c 0
 659 885 776 941 776 1095 c 0
 776 1205 684 1274 569 1274 c 0
 451 1274 344 1200 344 1063 c 0
 344 984 377 890 436 790 c 1
377 566 m 1
 292 515 248 464 248 364 c 0
 248 199 378 102 549 102 c 0
 625 102 707 118 776 146 c 1
 641 266 493 411 377 566 c 1
950 1095 m 0
 950 812 707 714 538 643 c 1
 650 500 796 361 926 248 c 1
 935 259 942 270 948 281 c 0
 964 310 994 327 1026 327 c 0
 1078 327 1112 283 1112 239 c 0
 1112 196 1081 162 1060 136 c 1
 1089 113 1121 89 1121 45 c 0
 1121 -4 1080 -42 1034 -42 c 0
 1015 -42 996 -37 980 -24 c 0
 962 -10 942 7 922 23 c 1
 812 -39 679 -72 549 -72 c 0
 314 -72 72 79 72 364 c 0
 72 534 169 643 279 711 c 1
 214 823 170 942 170 1063 c 0
 170 1316 379 1448 569 1448 c 0
 750 1448 950 1327 950 1095 c 0
EndSplineSet
Colour: ffff
EndChar

StartChar: question
Encoding: 63 63 338
Width: 975
VWidth: 0
Flags: HMW
LayerCount: 2
Fore
SplineSet
572 89 m 0
 572 17 513 -42 440 -42 c 0
 370 -42 308 14 308 89 c 0
 308 162 367 222 440 222 c 0
 515 222 572 160 572 89 c 0
294 924 m 0
 294 880 260 836 208 836 c 0
 176 836 144 853 129 883 c 0
 92 955 72 1027 72 1097 c 0
 72 1315 259 1448 491 1448 c 0
 728 1448 902 1284 902 1058 c 0
 902 873 755 759 649 671 c 0
 545 584 526 569 526 469 c 0
 526 452 534 435 534 418 c 0
 534 374 501 330 448 330 c 0
 411 330 376 353 364 390 c 0
 355 417 352 445 352 469 c 0
 352 633 431 716 537 805 c 0
 653 901 728 977 728 1058 c 0
 728 1184 644 1274 491 1274 c 0
 319 1274 248 1193 248 1097 c 0
 248 1061 258 1015 285 963 c 0
 291 950 294 937 294 924 c 0
EndSplineSet
Colour: ffff
EndChar

StartChar: at
Encoding: 64 64 339
Width: 2213
VWidth: 2426
Flags: HMW
LayerCount: 2
Fore
SplineSet
1394 768 m 1
 1314 815 1232 836 1152 836 c 0
 950 836 756 664 756 372 c 0
 756 211 858 102 1021 102 c 0
 1226 102 1324 289 1350 467 c 2
 1394 768 l 1
1619 -237 m 0
 1663 -237 1707 -272 1707 -323 c 0
 1707 -352 1692 -382 1666 -398 c 0
 1510 -495 1326 -552 1129 -552 c 0
 576 -552 112 -167 112 400 c 0
 112 960 596 1482 1162 1482 c 0
 1668 1482 2100 1086 2100 564 c 0
 2100 337 1988 -62 1674 -62 c 0
 1547 -62 1456 22 1402 126 c 1
 1323 14 1201 -72 1021 -72 c 0
 762 -72 580 123 580 372 c 0
 580 746 842 1012 1152 1012 c 0
 1284 1012 1419 969 1540 882 c 0
 1563 865 1576 837 1576 810 c 0
 1576 806 1577 802 1576 798 c 2
 1524 448 l 2
 1523 420 1518 389 1518 362 c 0
 1518 224 1612 114 1674 114 c 0
 1804 114 1926 345 1926 564 c 0
 1926 984 1578 1308 1162 1308 c 0
 702 1308 288 866 288 400 c 0
 288 -59 656 -378 1129 -378 c 0
 1292 -378 1444 -331 1574 -250 c 0
 1588 -241 1603 -237 1619 -237 c 0
EndSplineSet
Colour: ffff
EndChar

StartChar: b
Encoding: 98 98 340
Width: 1163
VWidth: 1823
Flags: HMW
LayerCount: 2
Fore
SplineSet
288 47 m 1
 295 91 333 120 375 120 c 0
 382 120 389 120 396 118 c 0
 434 108 475 102 515 102 c 0
 747 102 916 281 916 495 c 0
 916 738 812 914 651 914 c 0
 372 914 321 719 288 47 c 1
242 1448 m 0
 292 1448 331 1406 329 1358 c 2
 317 962 l 1
 400 1050 515 1088 651 1088 c 0
 970 1088 1090 760 1090 495 c 0
 1090 185 843 -72 515 -72 c 0
 461 -72 405 -66 352 -52 c 0
 314 -42 287 -7 287 32 c 1
 279 -9 243 -42 200 -42 c 0
 151 -42 111 -1 113 48 c 2
 155 1364 l 2
 156 1411 196 1448 242 1448 c 0
EndSplineSet
Colour: ffff
EndChar

StartChar: d
Encoding: 100 100 341
Width: 1197
VWidth: 2426
Flags: HMW
LayerCount: 2
Fore
SplineSet
867 790 m 1
 857 786 846 784 835 784 c 0
 811 784 788 793 771 811 c 0
 701 886 631 912 567 912 c 0
 386 912 248 699 248 465 c 0
 248 233 358 102 534 102 c 0
 747 102 856 340 863 612 c 2
 867 790 l 1
1104 45 m 0
 1104 -1 1066 -42 1017 -42 c 0
 992 -42 967 -32 950 -11 c 0
 922 23 902 63 889 109 c 1
 810 4 690 -72 534 -72 c 0
 236 -72 72 175 72 465 c 0
 72 741 236 1086 567 1086 c 0
 672 1086 780 1045 872 958 c 1
 876 1093 879 1228 883 1363 c 0
 884 1410 924 1448 970 1448 c 0
 1021 1448 1058 1405 1057 1359 c 2
 1039 510 l 1
 1039 205 1052 142 1085 101 c 0
 1098 85 1104 65 1104 45 c 0
EndSplineSet
Colour: ffff
EndChar

StartChar: h
Encoding: 104 104 342
Width: 1083
VWidth: 2426
Flags: HMW
LayerCount: 2
Fore
SplineSet
290 1458 m 0
 340 1458 377 1417 377 1371 c 0
 377 1369 377 1367 377 1365 c 2
 346 892 l 1
 416 999 518 1088 655 1088 c 0
 912 1088 970 798 970 609 c 0
 970 470 948 254 948 119 c 0
 948 71 954 41 956 35 c 0
 961 24 963 12 963 1 c 0
 963 -43 930 -87 877 -87 c 0
 783 -87 774 31 774 119 c 0
 774 255 796 471 796 609 c 0
 796 806 730 914 655 914 c 0
 461 914 314 388 287 -6 c 0
 284 -51 246 -87 200 -87 c 0
 152 -87 113 -47 113 0 c 0
 113 2 113 4 113 6 c 2
 203 1377 l 2
 206 1423 245 1458 290 1458 c 0
EndSplineSet
Colour: ffff
EndChar

StartChar: k
Encoding: 107 107 345
Width: 1019
VWidth: 2426
Flags: HMW
LayerCount: 2
Fore
SplineSet
260 1448 m 0
 310 1448 349 1405 347 1357 c 2
 318 688 l 1
 467 783 606 905 706 1027 c 0
 723 1048 749 1058 774 1058 c 0
 823 1058 861 1017 861 971 c 0
 861 951 855 931 842 915 c 0
 719 765 551 622 369 514 c 1
 523 352 724 180 903 75 c 0
 930 59 946 29 946 -1 c 0
 946 -53 902 -87 858 -87 c 0
 843 -87 829 -83 815 -75 c 0
 639 29 455 179 302 332 c 1
 287 0 l 2
 285 -46 246 -83 200 -83 c 0
 150 -83 111 -40 113 8 c 2
 173 1365 l 2
 175 1411 214 1448 260 1448 c 0
EndSplineSet
Colour: ffff
EndChar

StartChar: l
Encoding: 108 108 346
Width: 419
VWidth: 2426
Flags: HMW
LayerCount: 2
Fore
SplineSet
219 1437 m 0
 268 1437 306 1397 306 1350 c 0
 306 1014 288 414 288 18 c 0
 288 12 288 6 288 0 c 0
 288 -48 248 -87 200 -87 c 0
 152 -87 113 -48 113 -0 c 2
 113 19 l 2
 113 414 116 1013 132 1354 c 0
 134 1400 173 1437 219 1437 c 0
EndSplineSet
Colour: ffff
EndChar

StartChar: m
Encoding: 109 109 347
Width: 1562
VWidth: 2426
Flags: HMW
LayerCount: 2
Fore
SplineSet
162 988 m 2
 162 1033 198 1075 249 1075 c 0
 288 1075 322 1049 333 1011 c 1
 387 1059 459 1088 540 1088 c 0
 689 1088 787 1004 831 896 c 1
 887 999 979 1088 1112 1088 c 0
 1367 1088 1444 836 1444 651 c 0
 1444 516 1430 301 1430 169 c 0
 1430 114 1435 66 1447 23 c 0
 1449 16 1450 8 1450 1 c 0
 1450 -43 1416 -87 1363 -87 c 0
 1324 -87 1288 -62 1278 -23 c 0
 1261 38 1254 102 1254 169 c 0
 1254 305 1270 515 1270 651 c 0
 1270 818 1209 914 1112 914 c 0
 1035 914 958 814 910 596 c 0
 891 513 878 420 869 330 c 1
 864 214 857 95 848 -7 c 0
 844 -52 805 -87 761 -87 c 0
 708 -87 674 -40 674 1 c 0
 674 92 682 213 695 342 c 1
 698 415 700 486 700 549 c 0
 700 570 699 592 699 613 c 0
 695 821 668 914 540 914 c 0
 457 914 407 858 369 728 c 0
 349 659 336 575 327 494 c 2
 287 1 l 2
 283 -45 244 -79 200 -79 c 0
 149 -79 113 -37 113 8 c 2
 113 15 l 1
 146 441 l 2
 148 465 150 487 153 511 c 2
 155 534 l 2
 165 620 170 724 170 824 c 0
 170 882 167 935 162 977 c 1
 162 988 l 2
EndSplineSet
Colour: ffff
EndChar

StartChar: n
Encoding: 110 110 348
Width: 1083
VWidth: 2426
Flags: HMW
LayerCount: 2
Fore
SplineSet
258 1053 m 0
 307 1053 345 1012 345 966 c 2
 345 961 l 1
 339 847 l 1
 415 975 525 1088 681 1088 c 0
 944 1088 970 785 970 609 c 0
 970 471 948 254 948 119 c 0
 948 71 954 41 956 35 c 0
 961 24 963 12 963 1 c 0
 963 -43 930 -87 877 -87 c 0
 783 -87 774 31 774 119 c 0
 774 257 796 473 796 609 c 0
 796 819 750 912 681 912 c 0
 485 912 314 382 287 -6 c 0
 284 -50 246 -87 200 -87 c 0
 152 -87 113 -47 113 0 c 2
 113 5 l 1
 171 971 l 2
 174 1017 213 1053 258 1053 c 0
EndSplineSet
Colour: ffff
EndChar

StartChar: p
Encoding: 112 112 349
Width: 1187
VWidth: 2426
Flags: HMW
LayerCount: 2
Fore
SplineSet
193 -520 m 0
 143 -520 104 -477 106 -429 c 2
 138 258 l 2
 139 275 140 292 141 308 c 0
 141 343 144 377 147 411 c 0
 151 480 152 544 152 603 c 0
 152 740 135 866 102 932 c 0
 96 944 93 957 93 970 c 0
 93 1014 127 1058 179 1058 c 0
 211 1058 244 1041 259 1010 c 0
 281 965 296 913 307 859 c 1
 412 1005 554 1088 698 1088 c 0
 933 1088 1114 882 1114 568 c 0
 1114 297 937 -72 436 -72 c 0
 388 -72 348 -33 348 15 c 0
 348 63 388 102 436 102 c 0
 825 102 940 365 940 568 c 0
 940 818 813 914 698 914 c 0
 549 914 333 725 316 288 c 0
 316 276 313 261 312 248 c 2
 280 -437 l 2
 278 -483 239 -520 193 -520 c 0
EndSplineSet
Colour: ffff
EndChar

StartChar: q
Encoding: 113 113 350
Width: 1163
VWidth: 2426
Flags: HMW
LayerCount: 2
Fore
SplineSet
867 885 m 0
 867 839 829 798 780 798 c 0
 754 798 728 809 711 831 c 0
 672 880 615 914 532 914 c 0
 358 914 248 719 248 484 c 0
 248 239 329 102 490 102 c 0
 648 102 747 242 808 456 c 0
 833 546 849 643 859 730 c 1
 864 814 870 899 876 983 c 0
 879 1021 913 1064 963 1064 c 0
 1011 1064 1050 1025 1050 977 c 0
 1050 910 1047 830 1034 715 c 1
 1023 510 1016 301 1016 87 c 0
 1016 -83 1028 -254 1028 -425 c 0
 1028 -472 989 -512 940 -512 c 0
 894 -512 855 -475 853 -429 c 0
 846 -257 842 -84 842 87 c 0
 842 96 842 105 842 114 c 1
 763 7 645 -74 490 -74 c 0
 177 -74 72 219 72 484 c 0
 72 745 202 1088 532 1088 c 0
 669 1088 780 1026 849 939 c 0
 862 923 867 904 867 885 c 0
EndSplineSet
Colour: ffff
EndChar

StartChar: r
Encoding: 114 114 351
Width: 905
VWidth: 2426
Flags: HMW
LayerCount: 2
Fore
SplineSet
745 1078 m 0
 790 1078 832 1043 832 991 c 0
 832 950 803 913 762 905 c 0
 518 858 419 710 363 473 c 0
 330 336 318 152 301 -9 c 0
 297 -50 260 -87 214 -87 c 0
 166 -87 127 -47 127 0 c 0
 127 55 135 111 140 164 c 0
 148 278 154 406 154 532 c 0
 154 703 140 865 116 946 c 0
 114 954 113 962 113 970 c 0
 113 1014 146 1058 199 1058 c 0
 237 1058 273 1034 284 996 c 0
 299 944 309 883 316 815 c 1
 404 946 539 1041 728 1077 c 0
 733 1078 740 1078 745 1078 c 0
EndSplineSet
Colour: ffff
EndChar

StartChar: u
Encoding: 117 117 352
Width: 1083
VWidth: 2426
Flags: HMW
LayerCount: 2
Fore
SplineSet
248 1058 m 0
 300 1058 335 1015 335 971 c 0
 335 965 334 958 333 952 c 0
 308 839 288 732 288 584 c 0
 288 304 311 102 490 102 c 0
 607 102 688 231 733 475 c 0
 763 638 766 800 776 976 c 0
 778 1019 815 1058 863 1058 c 0
 911 1058 950 1019 950 971 c 0
 950 922 947 868 944 810 c 0
 942 753 942 696 942 639 c 0
 942 436 951 242 970 57 c 0
 970 54 971 51 971 48 c 0
 971 2 933 -39 883 -39 c 0
 839 -39 801 -6 796 39 c 0
 794 61 792 85 790 108 c 1
 727 7 626 -72 490 -72 c 0
 116 -72 112 346 112 573 c 2
 112 584 l 2
 112 750 138 875 163 990 c 0
 172 1030 208 1058 248 1058 c 0
EndSplineSet
Colour: ffff
EndChar

StartChar: asciitilde
Encoding: 126 126 353
Width: 870
VWidth: 2426
Flags: HMW
LayerCount: 2
Fore
SplineSet
114 1065 m 0
 61 1065 28 1109 28 1153 c 0
 28 1162 29 1170 32 1179 c 0
 66 1281 148 1378 279 1378 c 0
 376 1378 449 1335 502 1296 c 0
 544 1265 571 1252 602 1252 c 0
 608 1252 639 1255 682 1353 c 0
 696 1386 729 1405 763 1405 c 0
 816 1405 849 1361 849 1317 c 0
 849 1306 847 1294 842 1283 c 0
 792 1169 718 1076 602 1076 c 0
 513 1076 446 1119 398 1154 c 0
 353 1187 322 1204 279 1204 c 0
 246 1204 218 1187 198 1125 c 0
 186 1089 151 1065 114 1065 c 0
EndSplineSet
Colour: ffff
EndChar

StartChar: cent
Encoding: 162 162 356
Width: 1031
VWidth: 1823
Flags: HMW
LayerCount: 2
Fore
SplineSet
547 914 m 0
 499 914 460 953 460 1001 c 2
 460 1316 l 2
 460 1364 499 1404 547 1404 c 0
 595 1404 634 1364 634 1316 c 2
 634 1001 l 2
 634 953 595 914 547 914 c 0
547 -452 m 0
 499 -452 460 -413 460 -365 c 2
 460 15 l 2
 460 63 499 102 547 102 c 0
 595 102 634 63 634 15 c 2
 634 -365 l 2
 634 -413 595 -452 547 -452 c 0
EndSplineSet
Refer: 1 99 N 1 0 0 1 0 0 2
Colour: ffff
EndChar

StartChar: sterling
Encoding: 163 163 357
Width: 1454
VWidth: 2426
Flags: HMW
LayerCount: 2
Fore
SplineSet
350 765 m 0
 373 765 391 758 412 754 c 1
 412 939 l 2
 412 960 411 984 411 1009 c 0
 411 1185 424 1434 621 1434 c 0
 755 1434 814 1309 814 1196 c 0
 814 1148 774 1108 726 1108 c 0
 678 1108 638 1148 638 1196 c 0
 638 1235 628 1253 625 1257 c 1
 604 1225 586 1093 586 939 c 2
 586 741 l 1
 690 742 796 754 882 771 c 0
 887 772 894 772 899 772 c 0
 944 772 987 737 987 685 c 0
 987 644 957 607 916 599 c 0
 820 580 704 567 585 566 c 1
 581 420 565 276 510 163 c 1
 591 132 712 102 828 102 c 0
 1051 102 1197 162 1218 271 c 0
 1226 313 1264 342 1305 342 c 0
 1357 342 1392 300 1392 255 c 0
 1392 250 1391 244 1390 239 c 0
 1340 -24 1047 -72 828 -72 c 0
 666 -72 513 -28 414 14 c 0
 406 17 396 21 388 24 c 1
 341 -5 285 -20 225 -20 c 0
 192 -20 159 -14 131 2 c 0
 100 19 62 54 62 110 c 0
 62 214 169 232 219 232 c 0
 255 232 296 228 340 219 c 1
 383 288 403 422 409 577 c 1
 381 581 354 586 327 593 c 0
 288 603 262 640 262 679 c 0
 262 731 306 765 350 765 c 0
EndSplineSet
Colour: ffff
EndChar

StartChar: currency
Encoding: 164 164 358
Width: 1109
VWidth: 1823
Flags: HMW
LayerCount: 2
Fore
SplineSet
251 243 m 0
 299 243 338 202 338 155 c 0
 338 134 331 113 316 97 c 2
 216 -14 l 2
 199 -33 175 -42 151 -42 c 0
 103 -42 64 -2 64 45 c 0
 64 66 71 88 86 104 c 2
 186 214 l 2
 203 233 227 243 251 243 c 0
959 1057 m 0
 1008 1057 1046 1017 1046 970 c 0
 1046 949 1040 928 1025 912 c 2
 924 798 l 2
 907 779 882 769 858 769 c 0
 809 769 771 810 771 857 c 0
 771 878 778 898 793 914 c 2
 893 1028 l 2
 910 1047 935 1057 959 1057 c 0
350 848 m 0
 350 801 311 761 263 761 c 0
 239 761 216 771 199 789 c 2
 86 911 l 2
 71 928 63 949 63 970 c 0
 63 1017 102 1057 150 1057 c 0
 174 1057 197 1047 214 1029 c 2
 327 907 l 2
 342 890 350 869 350 848 c 0
1046 45 m 0
 1046 -1 1008 -42 959 -42 c 0
 934 -42 910 -32 893 -12 c 2
 773 126 l 2
 759 142 752 163 752 183 c 0
 752 229 790 271 839 271 c 0
 864 271 888 261 905 241 c 2
 1025 102 l 2
 1039 86 1046 65 1046 45 c 0
EndSplineSet
Refer: 5 111 N 1 0 0 1 0 0 2
Colour: ffff
EndChar

StartChar: brokenbar
Encoding: 166 166 360
Width: 419
VWidth: 2426
Flags: HMW
LayerCount: 2
Fore
SplineSet
219 584 m 0
 267 584 306 544 306 497 c 0
 306 316 296 142 288 -5 c 0
 286 -51 247 -87 201 -87 c 0
 152 -87 114 -47 114 0 c 0
 114 147 128 318 132 499 c 0
 133 546 172 584 219 584 c 0
200 808 m 0
 152 808 113 848 113 895 c 0
 113 1058 116 1216 116 1361 c 0
 116 1409 156 1448 204 1448 c 0
 252 1448 292 1409 292 1361 c 0
 292 1216 291 1057 288 893 c 0
 287 846 247 808 200 808 c 0
EndSplineSet
Colour: ffff
EndChar

StartChar: dieresis
Encoding: 168 168 361
Width: 688
VWidth: 1823
Flags: HMW
LayerCount: 2
Fore
SplineSet
284 1223 m 0
 284 1167 241 1124 185 1124 c 0
 135 1124 105 1171 105 1214 c 0
 105 1263 144 1303 194 1303 c 0
 238 1303 284 1273 284 1223 c 0
583 1211 m 0
 583 1158 539 1124 493 1124 c 0
 441 1124 404 1168 404 1210 c 0
 404 1262 439 1303 486 1303 c 0
 540 1303 583 1262 583 1211 c 0
EndSplineSet
Colour: ffff00
EndChar

StartChar: ordfeminine
Encoding: 170 170 363
Width: 936
VWidth: 2426
Flags: HMW
LayerCount: 2
Fore
SplineSet
632 1417 m 1
 645 1455 654 1504 697 1504 c 0
 724 1504 742 1482 742 1459 c 0
 742 1453 741 1445 738 1439 c 0
 714 1389 677 1245 677 1134 c 0
 677 1017 713 941 756 941 c 0
 781 941 801 921 801 896 c 0
 801 871 781 851 756 851 c 0
 676 851 633 906 610 972 c 1
 565 902 496 851 394 851 c 0
 237 851 135 990 135 1156 c 0
 135 1339 256 1504 437 1504 c 0
 517 1504 587 1476 632 1417 c 1
588 1176 m 0
 589 1193 591 1212 593 1229 c 0
 593 1235 593 1241 593 1247 c 0
 593 1374 533 1414 437 1414 c 0
 318 1414 225 1305 225 1156 c 0
 225 1022 299 941 394 941 c 0
 509 941 571 1053 588 1176 c 0
EndSplineSet
Colour: ffff00
EndChar

StartChar: logicalnot
Encoding: 172 172 364
Width: 975
VWidth: 1823
Flags: HMW
LayerCount: 2
Fore
SplineSet
62 661 m 0
 62 709 102 748 150 748 c 2
 795 748 l 2
 848 748 882 699 882 661 c 2
 882 388 l 2
 882 340 843 300 795 300 c 0
 747 300 708 340 708 388 c 2
 708 574 l 1
 150 574 l 2
 102 574 62 613 62 661 c 0
EndSplineSet
Colour: ffff
EndChar

StartChar: degree
Encoding: 176 176 368
Width: 830
VWidth: 2426
Flags: HMW
LayerCount: 2
Fore
SplineSet
695 1398 m 0
 695 1246 557 1124 400 1124 c 0
 258 1124 135 1248 135 1391 c 0
 135 1544 268 1684 414 1684 c 0
 571 1684 695 1545 695 1398 c 0
605 1398 m 0
 605 1497 517 1594 414 1594 c 0
 324 1594 225 1496 225 1391 c 0
 225 1298 310 1214 400 1214 c 0
 513 1214 605 1304 605 1398 c 0
EndSplineSet
Colour: ffff00
EndChar

StartChar: acute
Encoding: 180 180 369
Width: 522
VWidth: 2426
Flags: HMW
LayerCount: 2
Fore
SplineSet
362 1568 m 0
 411 1568 449 1527 449 1481 c 0
 449 1462 443 1442 430 1426 c 0
 355 1333 293 1251 240 1133 c 0
 226 1101 192 1082 159 1082 c 0
 106 1082 73 1126 73 1170 c 0
 73 1182 75 1194 80 1205 c 0
 142 1343 219 1441 294 1536 c 0
 311 1557 336 1568 362 1568 c 0
EndSplineSet
Colour: ffff
EndChar

StartChar: mu
Encoding: 181 181 370
Width: 1099
VWidth: 1823
Flags: HMW
LayerCount: 2
Fore
SplineSet
972 1015 m 0
 972 899 964 728 964 587 c 0
 964 402 968 227 986 57 c 0
 986 54 987 51 987 48 c 0
 987 2 949 -39 899 -39 c 0
 855 -39 817 -5 812 39 c 0
 810 54 809 70 808 85 c 1
 742 -7 640 -72 511 -72 c 0
 430 -72 358 -53 300 -15 c 1
 309 -164 322 -309 335 -438 c 0
 335 -441 335 -444 335 -447 c 0
 335 -493 298 -534 248 -534 c 0
 204 -534 165 -501 161 -456 c 0
 137 -214 112 83 112 367 c 0
 112 421 115 477 118 533 c 2
 118 535 l 2
 118 660 138 792 160 900 c 0
 169 951 180 998 192 1039 c 0
 203 1077 239 1102 277 1102 c 0
 331 1102 363 1056 363 1013 c 0
 363 1006 363 1000 361 993 c 0
 327 859 303 693 293 528 c 1
 293 437 297 348 314 277 c 0
 342 160 385 102 511 102 c 0
 630 102 706 203 752 405 c 0
 772 493 784 595 790 694 c 1
 790 801 792 921 798 1020 c 0
 800 1057 834 1102 885 1102 c 0
 932 1102 972 1063 972 1015 c 0
EndSplineSet
Colour: ffff
EndChar

StartChar: paragraph
Encoding: 182 182 371
Width: 1319
VWidth: 2426
Flags: HMW
LayerCount: 2
Fore
SplineSet
620 1108 m 0
 668 1108 708 1068 708 1020 c 2
 708 397 l 1
 722 396 736 396 750 396 c 0
 779 396 808 398 836 402 c 1
 836 960 l 2
 836 1008 875 1048 923 1048 c 0
 971 1048 1010 1008 1010 960 c 2
 1010 432 l 1
 1041 420 1067 391 1067 351 c 0
 1067 316 1046 281 1011 268 c 1
 1010 268 l 1
 1010 -442 l 2
 1010 -490 971 -530 923 -530 c 0
 875 -530 836 -490 836 -442 c 2
 836 225 l 1
 808 222 779 220 750 220 c 0
 736 220 722 221 708 222 c 1
 708 -382 l 2
 708 -430 668 -470 620 -470 c 0
 572 -470 532 -430 532 -382 c 2
 532 253 l 1
 284 328 72 527 72 811 c 0
 72 1161 372 1434 715 1434 c 0
 934 1434 1107 1340 1225 1205 c 0
 1239 1189 1246 1167 1246 1147 c 0
 1246 1101 1208 1060 1159 1060 c 0
 1134 1060 1110 1069 1093 1089 c 0
 1005 1190 882 1258 715 1258 c 0
 462 1258 248 1057 248 811 c 0
 248 643 368 504 532 438 c 1
 532 1020 l 2
 532 1068 572 1108 620 1108 c 0
EndSplineSet
Colour: ffff
EndChar

StartChar: uni00B9
Encoding: 185 185 373
Width: 526
VWidth: 2426
Flags: HMW
LayerCount: 2
Fore
SplineSet
326 788 m 0
 300 788 279 811 281 836 c 2
 315 1361 l 1
 273 1332 227 1307 177 1287 c 0
 172 1285 165 1284 160 1284 c 0
 138 1284 115 1302 115 1329 c 0
 115 1347 126 1364 143 1371 c 0
 215 1400 280 1442 336 1492 c 0
 343 1499 355 1504 366 1504 c 0
 392 1504 413 1482 411 1456 c 2
 371 830 l 2
 369 806 349 788 326 788 c 0
EndSplineSet
Colour: ffff00
EndChar

StartChar: onequarter
Encoding: 188 188 375
Width: 2006
VWidth: 1839
Flags: HMW
LayerCount: 2
Fore
SplineSet
386 433 m 0
 336 433 299 474 299 520 c 0
 299 522 299 524 299 526 c 2
 357 1418 l 1
 308 1380 257 1344 204 1313 c 0
 190 1305 176 1302 161 1302 c 0
 117 1302 73 1336 73 1388 c 0
 73 1418 88 1449 116 1465 c 0
 201 1515 288 1583 361 1651 c 0
 374 1663 398 1674 421 1674 c 2
 456 1674 l 2
 502 1674 543 1635 543 1587 c 0
 543 1585 543 1583 543 1581 c 2
 473 514 l 2
 470 468 431 433 386 433 c 0
1627 461 m 0
 1678 461 1714 420 1714 374 c 2
 1714 364 l 1
 1672 -9 l 1
 1724 1 1776 12 1826 24 c 0
 1833 26 1839 26 1846 26 c 0
 1890 26 1934 -8 1934 -60 c 0
 1934 -99 1907 -136 1867 -146 c 0
 1797 -163 1725 -178 1651 -190 c 1
 1630 -375 l 2
 1625 -419 1587 -452 1543 -452 c 0
 1492 -452 1456 -411 1456 -365 c 2
 1456 -355 l 1
 1472 -214 l 1
 1400 -221 1327 -226 1255 -226 c 0
 1220 -226 1183 -225 1143 -219 c 0
 1115 -215 1053 -207 1018 -146 c 0
 1006 -126 1000 -101 1000 -78 c 0
 1000 -30 1020 0 1035 22 c 0
 1205 270 1327 510 1443 797 c 0
 1457 831 1490 851 1525 851 c 0
 1578 851 1611 807 1611 763 c 0
 1611 752 1609 741 1605 731 c 0
 1490 447 1366 201 1198 -49 c 1
 1216 -50 1234 -50 1255 -50 c 0
 1333 -50 1413 -45 1492 -36 c 1
 1540 384 l 2
 1545 428 1583 461 1627 461 c 0
485 -42 m 0
 437 -42 398 -2 398 45 c 0
 398 67 405 88 421 105 c 0
 775 481 1220 1066 1436 1456 c 0
 1452 1485 1482 1501 1513 1501 c 0
 1565 1501 1599 1457 1599 1413 c 0
 1599 1399 1596 1385 1589 1372 c 0
 1361 962 915 373 549 -15 c 0
 532 -33 508 -42 485 -42 c 0
EndSplineSet
Colour: ffff
EndChar

StartChar: onehalf
Encoding: 189 189 376
Width: 2060
VWidth: 2426
Flags: HMW
LayerCount: 2
Fore
SplineSet
386 433 m 0
 336 433 299 474 299 520 c 0
 299 522 299 524 299 526 c 2
 357 1418 l 1
 308 1380 257 1344 204 1313 c 0
 190 1305 176 1302 161 1302 c 0
 117 1302 73 1336 73 1388 c 0
 73 1418 88 1449 116 1465 c 0
 201 1515 288 1583 361 1651 c 0
 374 1663 398 1674 421 1674 c 2
 456 1674 l 2
 502 1674 543 1635 543 1587 c 0
 543 1585 543 1583 543 1581 c 2
 473 514 l 2
 470 468 431 433 386 433 c 0
485 -42 m 0
 437 -42 398 -2 398 45 c 0
 398 67 405 88 421 105 c 0
 776 481 1220 1065 1436 1456 c 0
 1452 1485 1482 1501 1513 1501 c 0
 1565 1501 1599 1457 1599 1413 c 0
 1599 1399 1596 1385 1589 1372 c 0
 1361 961 916 373 549 -15 c 0
 532 -33 508 -42 485 -42 c 0
1250 -422 m 2
 1202 -422 1162 -382 1162 -335 c 0
 1162 -311 1171 -287 1190 -270 c 2
 1477 -9 l 2
 1478 -8 1481 -6 1483 -4 c 0
 1671 138 1772 252 1772 424 c 0
 1772 544 1708 618 1597 618 c 0
 1471 618 1380 511 1380 370 c 0
 1380 322 1341 282 1293 282 c 0
 1245 282 1206 322 1206 370 c 0
 1206 585 1355 792 1597 792 c 0
 1814 792 1948 620 1948 424 c 0
 1948 167 1784 4 1592 -141 c 1
 1492 -232 l 1
 1530 -231 1566 -230 1604 -230 c 0
 1702 -230 1805 -235 1905 -240 c 0
 1951 -242 1988 -281 1988 -327 c 0
 1988 -376 1947 -414 1900 -414 c 2
 1896 -414 l 1
 1798 -409 1698 -406 1604 -406 c 0
 1486 -406 1373 -410 1258 -422 c 1
 1250 -422 l 2
EndSplineSet
Colour: ffff
EndChar

StartChar: threequarters
Encoding: 190 190 377
Width: 2156
VWidth: 1839
Flags: HMW
LayerCount: 2
Fore
SplineSet
213 1264 m 0
 161 1264 127 1308 127 1352 c 0
 127 1358 128 1364 129 1370 c 0
 168 1545 329 1646 479 1646 c 0
 636 1646 782 1527 782 1307 c 0
 782 1207 734 1127 671 1073 c 1
 752 1023 808 939 812 829 c 1
 812 661 717 544 588 488 c 1
 575 455 543 432 506 432 c 0
 485 432 465 440 450 453 c 1
 434 451 418 450 402 450 c 0
 297 450 189 485 105 554 c 0
 84 571 73 597 73 622 c 0
 73 671 114 709 160 709 c 0
 180 709 200 703 216 690 c 0
 265 649 335 626 402 626 c 0
 543 626 636 703 637 825 c 1
 633 903 572 952 464 952 c 0
 417 952 366 938 326 929 c 0
 320 928 314 927 308 927 c 0
 263 927 220 962 220 1013 c 0
 220 1086 286 1101 349 1114 c 0
 390 1125 431 1138 467 1153 c 0
 564 1194 608 1241 608 1307 c 0
 608 1441 544 1472 479 1472 c 0
 403 1472 318 1415 299 1332 c 0
 290 1292 253 1264 213 1264 c 0
1777 461 m 0
 1828 461 1864 420 1864 374 c 2
 1864 364 l 1
 1822 -9 l 1
 1874 1 1926 12 1976 24 c 0
 1983 26 1989 26 1996 26 c 0
 2040 26 2084 -8 2084 -60 c 0
 2084 -99 2057 -136 2017 -146 c 0
 1947 -163 1875 -178 1801 -190 c 1
 1780 -375 l 2
 1775 -419 1737 -452 1693 -452 c 0
 1642 -452 1606 -411 1606 -365 c 2
 1606 -355 l 1
 1622 -214 l 1
 1550 -221 1477 -226 1405 -226 c 0
 1370 -226 1333 -225 1293 -219 c 0
 1265 -215 1203 -207 1168 -146 c 0
 1156 -126 1150 -101 1150 -78 c 0
 1150 -30 1170 0 1185 22 c 0
 1355 270 1477 510 1593 797 c 0
 1607 831 1640 851 1675 851 c 0
 1728 851 1761 807 1761 763 c 0
 1761 752 1759 741 1755 731 c 0
 1640 447 1516 201 1348 -49 c 1
 1366 -50 1384 -50 1405 -50 c 0
 1483 -50 1563 -45 1642 -36 c 1
 1690 384 l 2
 1695 428 1733 461 1777 461 c 0
635 -42 m 0
 587 -42 548 -2 548 45 c 0
 548 67 555 88 571 105 c 0
 925 481 1370 1066 1586 1456 c 0
 1602 1485 1632 1501 1663 1501 c 0
 1715 1501 1749 1457 1749 1413 c 0
 1749 1399 1746 1385 1739 1372 c 0
 1511 962 1065 373 699 -15 c 0
 682 -33 658 -42 635 -42 c 0
EndSplineSet
Colour: ffff
EndChar

StartChar: Eth
Encoding: 208 208 394
Width: 1341
VWidth: 1823
Flags: HMW
LayerCount: 2
Fore
SplineSet
89 642 m 2
 43 642 2 679 2 729 c 0
 2 774 37 812 82 816 c 0
 186 824 283 828 372 828 c 0
 474 828 566 823 650 816 c 0
 695 812 731 774 731 729 c 0
 731 679 689 642 643 642 c 2
 636 642 l 1
 556 649 469 653 372 653 c 0
 287 653 196 650 96 642 c 1
 89 642 l 2
EndSplineSet
Refer: 16 68 N 1 0 0 1 150 0 2
Colour: ffff
EndChar

StartChar: multiply
Encoding: 215 215 401
Width: 872
VWidth: 1823
Flags: HMW
LayerCount: 2
Fore
SplineSet
192 313 m 0
 143 313 105 354 105 400 c 0
 105 419 111 438 123 454 c 0
 187 535 253 612 321 685 c 1
 251 744 177 799 113 840 c 0
 87 856 73 886 73 915 c 0
 73 966 116 1001 161 1001 c 0
 177 1001 193 997 207 988 c 0
 284 940 365 878 443 812 c 1
 501 870 561 926 624 983 c 0
 640 998 662 1005 683 1005 c 0
 730 1005 770 966 770 918 c 0
 770 894 761 870 742 853 c 0
 684 800 627 748 573 694 c 1
 664 613 753 503 790 429 c 0
 796 417 799 404 799 391 c 0
 799 347 765 303 713 303 c 0
 681 303 649 321 634 351 c 0
 615 389 556 464 478 542 c 0
 469 551 460 559 451 568 c 1
 386 497 323 425 261 346 c 0
 244 324 218 313 192 313 c 0
EndSplineSet
Colour: ffff
EndChar

StartChar: germandbls
Encoding: 223 223 408
Width: 1124
VWidth: 2426
Flags: HMW
LayerCount: 2
Fore
SplineSet
200 -83 m 0
 150 -83 113 -42 113 4 c 0
 113 6 113 8 113 10 c 0
 138 382 160 723 199 1022 c 0
 234 1291 370 1434 561 1434 c 0
 797 1434 920 1226 920 1060 c 0
 920 911 875 830 779 754 c 0
 730 715 698 662 698 619 c 0
 698 588 712 568 778 534 c 0
 884 480 1052 383 1052 182 c 0
 1052 -17 817 -74 672 -74 c 0
 584 -74 406 -53 406 54 c 0
 406 106 450 140 494 140 c 0
 508 140 523 136 536 129 c 0
 567 112 616 102 672 102 c 0
 815 102 876 167 876 182 c 0
 876 267 804 325 698 378 c 0
 620 418 524 488 524 619 c 0
 524 738 596 831 669 890 c 0
 743 950 744 939 744 1060 c 0
 744 1156 675 1258 561 1258 c 0
 478 1258 402 1225 373 1000 c 0
 336 709 312 370 287 -2 c 0
 284 -48 245 -83 200 -83 c 0
EndSplineSet
Colour: ffff
EndChar

StartChar: ae
Encoding: 230 230 415
Width: 1885
VWidth: 2426
Flags: HMW
LayerCount: 2
Fore
SplineSet
1071 551 m 1
 1099 549 1126 548 1153 548 c 0
 1347 548 1606 659 1606 784 c 0
 1606 848 1537 914 1457 914 c 0
 1277 914 1122 754 1071 551 c 1
920 914 m 0
 920 865 880 827 833 827 c 0
 812 827 791 834 775 848 c 0
 730 887 664 914 604 914 c 0
 419 914 248 654 248 419 c 0
 248 242 365 102 529 102 c 0
 744 102 842 290 880 490 c 1
 880 491 l 1
 904 617 934 835 951 966 c 0
 957 1010 995 1042 1038 1042 c 0
 1085 1042 1121 1006 1125 964 c 1
 1215 1040 1328 1088 1457 1088 c 0
 1619 1088 1780 964 1780 784 c 0
 1780 463 1341 372 1153 372 c 0
 1121 372 1089 374 1058 376 c 1
 1082 220 1208 102 1372 102 c 0
 1466 102 1577 166 1666 246 c 0
 1682 261 1704 268 1725 268 c 0
 1772 268 1812 229 1812 181 c 0
 1812 157 1803 133 1784 116 c 0
 1681 22 1536 -72 1372 -72 c 0
 1187 -72 1032 29 948 173 c 1
 869 42 732 -72 529 -72 c 0
 251 -72 72 166 72 419 c 0
 72 700 265 1088 604 1088 c 0
 710 1088 813 1049 891 980 c 0
 910 963 920 938 920 914 c 0
EndSplineSet
Colour: ffff
EndChar

StartChar: oslash
Encoding: 248 248 432
Width: 1144
VWidth: 1823
Flags: HMW
LayerCount: 2
Fore
SplineSet
159 -87 m 0
 108 -87 73 -44 73 1 c 0
 73 17 77 33 86 47 c 0
 327 419 635 805 924 1080 c 0
 941 1096 962 1104 984 1104 c 0
 1031 1104 1071 1065 1071 1017 c 0
 1071 994 1062 971 1044 954 c 0
 769 693 467 315 234 -47 c 0
 217 -73 188 -87 159 -87 c 0
EndSplineSet
Refer: 5 111 N 1 0 0 1 26 0 2
Colour: ffff
EndChar

StartChar: thorn
Encoding: 254 254 438
Width: 1166
VWidth: 1823
Flags: HMW
LayerCount: 2
Fore
SplineSet
234 1448 m 0
 283 1448 322 1407 321 1359 c 2
 287 -367 l 2
 286 -414 247 -452 200 -452 c 0
 151 -452 112 -411 113 -363 c 2
 147 1363 l 2
 148 1410 187 1448 234 1448 c 0
EndSplineSet
Refer: 5 111 N 1 0 0 1 57 0 2
Colour: ffff
EndChar

StartChar: OE
Encoding: 338 338 440
Width: 2327
VWidth: 2426
Flags: HMW
LayerCount: 2
Fore
SplineSet
1100 1181 m 0
 1100 1136 1063 1094 1013 1094 c 0
 986 1094 959 1106 942 1129 c 0
 886 1206 806 1258 699 1258 c 0
 454 1258 248 967 248 643 c 0
 248 322 455 102 696 102 c 0
 1003 102 1139 332 1184 708 c 0
 1182 716 1181 724 1181 732 c 0
 1181 747 1184 762 1191 774 c 1
 1199 864 1202 961 1202 1065 c 0
 1202 1151 1196 1241 1196 1329 c 0
 1196 1381 1243 1416 1285 1416 c 2
 1295 1416 l 1
 1527 1385 1721 1360 1889 1360 c 0
 1976 1360 2054 1366 2129 1383 c 0
 2135 1384 2142 1385 2148 1385 c 0
 2192 1385 2236 1351 2236 1299 c 0
 2236 1259 2208 1222 2168 1213 c 0
 2077 1192 1984 1184 1889 1184 c 0
 1731 1184 1566 1204 1375 1229 c 1
 1377 1175 1378 1119 1378 1065 c 0
 1378 979 1375 893 1369 808 c 1
 1465 798 1584 792 1701 792 c 0
 1803 792 1904 797 1991 808 c 1
 2002 808 l 2
 2047 808 2090 772 2090 721 c 0
 2090 678 2057 640 2013 634 c 0
 1916 621 1809 616 1701 616 c 0
 1576 616 1452 623 1349 634 c 1
 1289 242 1120 -72 696 -72 c 0
 337 -72 72 250 72 643 c 0
 72 1015 308 1434 699 1434 c 0
 870 1434 1002 1344 1084 1233 c 0
 1095 1218 1100 1199 1100 1181 c 0
1232 107 m 0
 1232 159 1276 193 1320 193 c 0
 1326 193 1332 192 1338 191 c 0
 1505 154 1680 136 1849 136 c 0
 1955 136 2057 144 2154 158 c 0
 2158 159 2163 158 2167 158 c 0
 2212 158 2255 122 2255 71 c 0
 2255 29 2223 -10 2180 -16 c 0
 2075 -32 1963 -40 1849 -40 c 0
 1668 -40 1481 -20 1300 21 c 0
 1260 30 1232 67 1232 107 c 0
EndSplineSet
Colour: ffff
EndChar

StartChar: dotlessi
Encoding: 305 305 442
Width: 415
VWidth: 2426
Flags: HMW
LayerCount: 2
Fore
SplineSet
215 1058 m 0
 264 1058 302 1018 302 971 c 0
 302 741 288 223 288 8 c 2
 288 0 l 2
 288 -48 248 -87 200 -87 c 0
 148 -87 113 -45 113 8 c 0
 113 224 117 739 128 975 c 0
 130 1021 169 1058 215 1058 c 0
EndSplineSet
Colour: ffff
EndChar

StartChar: uniE00A
Encoding: 57354 57354 443
Width: 645
VWidth: 1823
Flags: HMW
AnchorPoint: "Anchor-1" 342 0 basechar 0
AnchorPoint: "Anchor-3" 508 1631 basechar 0
LayerCount: 2
Fore
SplineSet
881 1786 m 0
 933 1786 967 1742 967 1698 c 0
 967 1683 964 1669 956 1656 c 0
 902 1561 823 1480 705 1480 c 0
 636 1480 569 1505 499 1545 c 0
 437 1580 391 1592 362 1592 c 0
 314 1592 227 1526 212 1458 c 0
 203 1418 167 1390 127 1390 c 0
 75 1390 40 1434 40 1478 c 0
 40 1484 41 1490 42 1496 c 0
 75 1642 216 1766 362 1766 c 0
 433 1766 507 1742 585 1697 c 0
 641 1665 682 1654 705 1654 c 0
 733 1654 760 1665 804 1742 c 0
 820 1770 850 1786 881 1786 c 0
EndSplineSet
Refer: 80 1575 N 1 0 0 1 200 0 2
PairPos2: "'kern' Horizontal Kerning in Arabic lookup 2 per glyph data 0" uniFEDF dx=-120 dy=0 dh=-120 dv=0 dx=0 dy=0 dh=0 dv=0
PairPos2: "'kern' Horizontal Kerning in Arabic lookup 2 per glyph data 0" uni0622 dx=300 dy=0 dh=300 dv=0 dx=0 dy=0 dh=0 dv=0
PairPos2: "'kern' Horizontal Kerning in Arabic lookup 2 per glyph data 0" uniE00A dx=300 dy=0 dh=300 dv=0 dx=0 dy=0 dh=0 dv=0
Colour: ffff
EndChar

StartChar: uniE00C
Encoding: 57356 57356 445
Width: 1069
VWidth: 1823
Flags: HMW
LayerCount: 2
Fore
SplineSet
541 1058 m 0
 873 1058 1024 782 1024 508 c 0
 1024 234 873 -42 541 -42 c 0
 209 -42 60 234 60 508 c 0
 60 782 209 1058 541 1058 c 0
541 884 m 0
 335 884 234 730 234 508 c 0
 234 286 335 132 541 132 c 0
 747 132 848 286 848 508 c 0
 848 730 747 884 541 884 c 0
EndSplineSet
Colour: ffff
EndChar

StartChar: uniE00D
Encoding: 57357 57357 446
Width: 950
VWidth: 1823
Flags: HMW
LayerCount: 2
Fore
SplineSet
147 -88 m 0
 99 -88 60 -48 60 0 c 2
 60 584 l 2
 60 823 191 1058 482 1058 c 0
 773 1058 904 823 904 584 c 2
 904 0 l 2
 904 -48 865 -88 817 -88 c 0
 769 -88 730 -48 730 0 c 2
 730 584 l 2
 730 769 651 884 482 884 c 0
 313 884 234 769 234 584 c 2
 234 0 l 2
 234 -48 195 -88 147 -88 c 0
EndSplineSet
Colour: ffff
EndChar

StartChar: uniE00E
Encoding: 57358 57358 447
Width: 850
VWidth: 1823
Flags: HMW
LayerCount: 2
Fore
SplineSet
147 -88 m 0
 99 -88 60 -48 60 0 c 2
 60 598 l 2
 60 829 170 1058 432 1058 c 0
 694 1058 804 829 804 598 c 2
 804 0 l 2
 804 -48 765 -88 717 -88 c 0
 669 -88 630 -48 630 0 c 2
 630 598 l 2
 630 791 558 884 432 884 c 0
 306 884 234 791 234 598 c 2
 234 0 l 2
 234 -48 195 -88 147 -88 c 0
EndSplineSet
Colour: ffff
EndChar

StartChar: uniE00F
Encoding: 57359 57359 448
Width: 1089
VWidth: 1437
Flags: HW
AnchorPoint: "Anchor-3" 608 1160 basechar 0
AnchorPoint: "Anchor-1" 469 -164 basechar 0
LayerCount: 2
Fore
SplineSet
840 420 m 0
 840 254 926 132 1089 132 c 0
 1137 132 1176 93 1176 45 c 0
 1176 -3 1137 -42 1089 -42 c 0
 915 -42 789 50 724 174 c 1
 601 -20 396 -148 134 -148 c 0
 86 -148 47 -108 47 -60 c 0
 47 -12 86 28 134 28 c 0
 433 28 616 234 675 521 c 0
 675 523 676 526 676 527 c 2
 724 825 l 2
 731 868 769 898 811 898 c 0
 863 898 897 855 897 811 c 0
 897 807 897 801 896 797 c 2
 855 537 l 2
 849 502 840 457 840 420 c 0
EndSplineSet
Colour: ffff
EndChar

StartChar: uniE010
Encoding: 57360 57360 451
Width: 435
VWidth: 2296
Flags: HW
AnchorPoint: "Anchor-1" 83 -394 basechar 0
AnchorPoint: "Anchor-3" 205 1361 basechar 0
LayerCount: 2
Fore
SplineSet
342 654 m 0
 291 654 256 697 256 742 c 0
 256 785 284 791 284 845 c 0
 284 896 248 934 176 934 c 0
 120 934 78 888 78 849 c 0
 78 793 102 769 160 716 c 0
 179 699 188 675 188 651 c 0
 188 603 148 564 101 564 c 0
 80 564 59 571 42 586 c 0
 -14 637 -98 715 -98 849 c 0
 -98 1000 36 1108 176 1108 c 0
 322 1108 458 1008 458 845 c 0
 458 765 427 654 342 654 c 0
-250 -544 m 0
 -295 -544 -337 -508 -337 -457 c 0
 -337 -414 -305 -376 -262 -370 c 0
 40 -328 198 -176 198 181 c 0
 198 236 193 294 183 349 c 0
 182 354 182 359 182 364 c 0
 182 409 217 451 269 451 c 0
 310 451 348 421 355 379 c 0
 367 313 372 246 372 181 c 0
 372 -252 138 -492 -238 -544 c 0
 -242 -545 -246 -544 -250 -544 c 0
EndSplineSet
Colour: ffff
EndChar

StartChar: uniE011
Encoding: 57361 57361 452
Width: 593
VWidth: 2234
Flags: HW
AnchorPoint: "Anchor-1" 99 -394 basechar 0
AnchorPoint: "Anchor-3" 209 1361 basechar 0
LayerCount: 2
Fore
SplineSet
300 654 m 0
 249 654 214 697 214 742 c 0
 214 785 242 791 242 845 c 0
 242 896 206 934 134 934 c 0
 78 934 36 888 36 849 c 0
 36 793 60 769 118 716 c 0
 137 699 146 675 146 651 c 0
 146 603 106 564 59 564 c 0
 38 564 17 571 0 586 c 0
 -56 637 -140 715 -140 849 c 0
 -140 1000 -6 1108 134 1108 c 0
 280 1108 416 1008 416 845 c 0
 416 765 385 654 300 654 c 0
90 382 m 0
 90 425 122 471 176 471 c 0
 213 471 248 448 260 411 c 0
 317 235 356 132 593 132 c 0
 641 132 680 93 680 45 c 0
 680 -3 641 -42 593 -42 c 0
 472 -42 375 -16 299 34 c 1
 268 -261 93 -462 -229 -542 c 0
 -236 -544 -242 -544 -249 -544 c 0
 -293 -544 -337 -510 -337 -458 c 0
 -337 -419 -310 -382 -271 -372 c 0
 22 -300 130 -143 130 137 c 0
 130 230 124 253 93 360 c 0
 91 367 90 374 90 382 c 0
EndSplineSet
Colour: ffff
EndChar

StartChar: uniE012
Encoding: 57362 57362 453
Width: 0
VWidth: 2280
Flags: HW
LayerCount: 2
Fore
SplineSet
310 1736 m 0
 333 1736 355 1717 355 1691 c 0
 355 1669 338 1649 316 1646 c 0
 220 1633 95 1553 95 1512 c 0
 95 1494 125 1476 213 1453 c 0
 278 1436 401 1414 401 1305 c 0
 401 1182 216 1121 14 1121 c 0
 -11 1121 -31 1141 -31 1166 c 0
 -31 1191 -11 1211 14 1211 c 0
 228 1211 311 1290 311 1305 c 0
 311 1324 280 1343 191 1366 c 0
 127 1383 5 1404 5 1512 c 0
 5 1649 208 1722 304 1735 c 0
 306 1735 308 1736 310 1736 c 0
EndSplineSet
Colour: ffff00
EndChar

